SplineFontDB: 3.0
FontName: AVCircleNumberFaces-Initial
FullName: AV Circle Number Faces
FamilyName: AVCircleNumberFaces
Weight: Initial
Copyright: Copyright (c) 2019, Michael,,,
UComments: "2019-3-12: Created with FontForge (http://fontforge.org)"
Version: 000.001
ItalicAngle: 0
UnderlinePosition: -100
UnderlineWidth: 50
Ascent: 800
Descent: 200
InvalidEm: 0
LayerCount: 2
Layer: 0 0 "Back" 1
Layer: 1 0 "Fore" 0
XUID: [1021 55 -2146410917 15266926]
StyleMap: 0x0001
FSType: 0
OS2Version: 0
OS2_WeightWidthSlopeOnly: 0
OS2_UseTypoMetrics: 1
CreationTime: 1552414364
ModificationTime: 1552427770
PfmFamily: 17
TTFWeight: 400
TTFWidth: 5
LineGap: 90
VLineGap: 0
OS2TypoAscent: 0
OS2TypoAOffset: 1
OS2TypoDescent: 0
OS2TypoDOffset: 1
OS2TypoLinegap: 90
OS2WinAscent: 0
OS2WinAOffset: 1
OS2WinDescent: 0
OS2WinDOffset: 1
HheadAscent: 0
HheadAOffset: 1
HheadDescent: 0
HheadDOffset: 1
OS2Vendor: 'AVFF'
MarkAttachClasses: 1
DEI: 91125

StartChar: zero
Encoding: 256 48 0
Width: 505
Flags: W
HStem: -15 43<246.495 505> 137 28<294.775 374.235> 502 27<295.565 370.731> 649 43<246.495 505>
VStem: 0 43<231.882 444.797> 187 64<216.593 444.108> 417 64<217.634 440.3>
LayerCount: 2
Fore
SplineSet
481 328 m 0
 481 229 440 137 334 137 c 0
 222 137 187 236 187 333 c 0
 187 436 232 529 336 529 c 0
 422 529 481 447 481 328 c 0
417 325 m 0
 417 438 388 502 332 502 c 0
 280 502 251 437 251 328 c 0
 251 219 279 165 334 165 c 0
 388 165 417 219 417 325 c 0
353 28 m 0
 505 28 l 25
 505 -15 l 1
 445 -15 547 -15 351 -15 c 0
 154 -15 0 141 0 338 c 0
 0 537 155 692 356 692 c 0
 505 692 l 25
 505 649 l 1
 446 649 525 649 353 649 c 0
 182 649 43 510 43 338 c 0
 43 167 182 28 353 28 c 0
EndSplineSet
EndChar

StartChar: one
Encoding: 257 49 1
Width: 505
Flags: W
HStem: -15 43<246.495 505> 144 21<295 343 419.058 474> 649 43<246.495 505>
VStem: 0 43<231.882 444.797> 355 58<170.627 468.996>
LayerCount: 2
Fore
SplineSet
474 144 m 1
 295 144 l 1
 295 165 l 1
 343 167 355 177 355 203 c 2
 355 448 l 2
 355 463 350 469 339 469 c 0
 333 469 321 468 309 464 c 2
 291 456 l 1
 291 477 l 1
 407 529 l 1
 413 527 l 1
 413 192 l 2
 413 172 426 165 474 165 c 1
 474 144 l 1
353 28 m 0
 505 28 l 25
 505 -15 l 1
 445 -15 547 -15 351 -15 c 0
 154 -15 0 141 0 338 c 0
 0 537 155 692 356 692 c 0
 505 692 l 25
 505 649 l 1
 446 649 525 649 353 649 c 0
 182 649 43 510 43 338 c 0
 43 167 182 28 353 28 c 0
EndSplineSet
EndChar

StartChar: two
Encoding: 258 50 2
Width: 505
Flags: W
HStem: -15 43<246.495 505> 144 55<284 457> 474 55<266.091 382.027> 649 43<246.495 505>
VStem: 0 43<231.882 444.797> 203 19<399.421 411.943> 403 58<348.606 452.994>
LayerCount: 2
Fore
SplineSet
499 232 m 1
 457 144 l 1
 204 144 l 1
 204 164 l 1
 318 261 l 2
 381 314 403 357 403 402 c 0
 403 448 368 474 314 474 c 0
 267 474 249 450 222 395 c 1
 203 402 l 1
 219 475 261 529 341 529 c 0
 415 529 461 483 461 424 c 0
 461 376 437 329 379 279 c 2
 284 199 l 1
 417 199 l 2
 444 199 458 209 478 239 c 1
 499 232 l 1
353 28 m 0
 505 28 l 25
 505 -15 l 1
 445 -15 547 -15 351 -15 c 0
 154 -15 0 141 0 338 c 0
 0 537 155 692 356 692 c 0
 505 692 l 25
 505 649 l 1
 446 649 525 649 353 649 c 0
 182 649 43 510 43 338 c 0
 43 167 182 28 353 28 c 0
EndSplineSet
EndChar

StartChar: three
Encoding: 259 51 3
Width: 503
Flags: W
HStem: -15 43<246.495 505> 137 34<293.71 392.102> 321 22<299 335.536> 482 47<284.306 396.483> 649 43<246.495 505>
VStem: 0 43<231.882 444.797> 405 54<393.807 471.907> 433 48<203.673 297.026>
LayerCount: 2
Fore
SplineSet
246 421 m 1xfe
 225 427 l 1
 248 487 290 529 357 529 c 0
 419 529 459 495 459 446 c 0xfe
 459 420 445 393 409 370 c 1
 453 354 481 324 481 272 c 0
 481 177 387 137 300 137 c 0
 252 137 226 152 226 176 c 0
 226 192 238 204 255 204 c 0
 264 204 274 199 295 187 c 0
 317 174 331 171 349 171 c 0
 395 171 433 204 433 248 c 0xfd
 433 285 410 308 366 317 c 0
 351 320 338 321 299 321 c 1
 299 343 l 1
 329 351 346 357 355 361 c 0
 387 377 405 400 405 432 c 0
 405 466 379 482 338 482 c 0
 295 482 270 462 246 421 c 1xfe
353 28 m 0
 505 28 l 25
 505 -15 l 1
 445 -15 547 -15 351 -15 c 0
 154 -15 0 141 0 338 c 0
 0 537 155 692 356 692 c 0
 505 692 l 25
 505 649 l 1
 446 649 525 649 353 649 c 0
 182 649 43 510 43 338 c 0
 43 167 182 28 353 28 c 0
EndSplineSet
EndChar

StartChar: four
Encoding: 260 52 4
Width: 505
Flags: W
HStem: -15 43<246.495 505> 233 49<208 353 410 475> 649 43<246.495 505>
VStem: 0 43<231.882 444.797> 353 57<144 233 282 457>
LayerCount: 2
Fore
SplineSet
475 233 m 1
 410 233 l 1
 410 144 l 1
 353 144 l 1
 353 233 l 1
 171 233 l 1
 171 279 l 1
 377 529 l 1
 410 529 l 1
 410 282 l 1
 475 282 l 1
 475 233 l 1
353 282 m 1
 353 457 l 1
 208 282 l 1
 353 282 l 1
353 28 m 0
 505 28 l 25
 505 -15 l 1
 445 -15 547 -15 351 -15 c 0
 154 -15 0 141 0 338 c 0
 0 537 155 692 356 692 c 0
 505 692 l 25
 505 649 l 1
 446 649 525 649 353 649 c 0
 182 649 43 510 43 338 c 0
 43 167 182 28 353 28 c 0
EndSplineSet
EndChar

StartChar: five
Encoding: 261 53 5
Width: 505
Flags: W
HStem: -15 43<246.495 505> 137 35<289.921 384.054> 471 58<311 459.818> 649 43<246.495 505>
VStem: 0 43<231.882 444.797> 424 47<207.546 318.498>
LayerCount: 2
Fore
SplineSet
481 534 m 1
 455 483 l 2
 451 475 446 471 434 471 c 2
 311 471 l 1
 290 437 l 1
 396 418 471 391 471 287 c 0
 471 187 392 137 297 137 c 0
 246 137 214 151 214 176 c 0
 214 194 224 207 244 207 c 0
 261 207 269 204 292 188 c 0
 309 177 323 172 338 172 c 0
 383 172 424 215 424 260 c 0
 424 343 329 376 244 376 c 0
 236 376 233 378 233 386 c 0
 233 390 235 393 236 395 c 2
 308 529 l 1
 433 529 l 2
 449 529 454 534 462 545 c 1
 481 534 l 1
353 28 m 0
 505 28 l 25
 505 -15 l 1
 445 -15 547 -15 351 -15 c 0
 154 -15 0 141 0 338 c 0
 0 537 155 692 356 692 c 0
 505 692 l 25
 505 649 l 1
 446 649 525 649 353 649 c 0
 182 649 43 510 43 338 c 0
 43 167 182 28 353 28 c 0
EndSplineSet
EndChar

StartChar: six
Encoding: 262 54 6
Width: 505
Flags: W
HStem: -15 43<246.495 505> 137 30<300.391 392.129> 354 38<284.801 388.64> 504 25<410.694 463> 649 43<246.495 505>
VStem: 0 43<231.882 444.797> 190 67<209.701 338.443> 415 62<195.224 328.889>
LayerCount: 2
Fore
SplineSet
463 529 m 1
 463 504 l 1
 364 488 296 443 276 368 c 1
 308 388 329 392 355 392 c 0
 432 392 477 345 477 269 c 0
 477 192 418 137 342 137 c 0
 251 137 190 204 190 291 c 0
 190 354 221 414 265 455 c 0
 323 508 375 521 463 529 c 1
415 251 m 0
 415 318 390 354 333 354 c 0
 295 354 257 340 257 294 c 0
 257 214 289 167 349 167 c 0
 394 167 415 197 415 251 c 0
353 28 m 0
 505 28 l 25
 505 -15 l 1
 445 -15 547 -15 351 -15 c 0
 154 -15 0 141 0 338 c 0
 0 537 155 692 356 692 c 0
 505 692 l 25
 505 649 l 1
 446 649 525 649 353 649 c 0
 182 649 43 510 43 338 c 0
 43 167 182 28 353 28 c 0
EndSplineSet
EndChar

StartChar: seven
Encoding: 263 55 7
Width: 504
Flags: W
HStem: -15 43<246.495 505> 472 57<242 424> 649 43<246.495 505>
VStem: 0 43<231.882 444.797>
LayerCount: 2
Fore
SplineSet
483 512 m 1
 344 137 l 1
 297 137 l 1
 424 472 l 1
 292 472 l 2
 254 472 242 463 216 426 c 1
 197 435 l 1
 242 529 l 1
 483 529 l 1
 483 512 l 1
353 28 m 0
 505 28 l 25
 505 -15 l 1
 445 -15 547 -15 351 -15 c 0
 154 -15 0 141 0 338 c 0
 0 537 155 692 356 692 c 0
 505 692 l 25
 505 649 l 1
 446 649 525 649 353 649 c 0
 182 649 43 510 43 338 c 0
 43 167 182 28 353 28 c 0
EndSplineSet
EndChar

StartChar: eight
Encoding: 264 56 8
Width: 504
Flags: W
HStem: -15 43<246.495 505> 137 30<301.278 410.923> 499 30<295.929 398.791> 649 43<246.495 505>
VStem: 0 43<231.882 444.797> 222 55<184.414 286.89> 229 50<408.817 486.829> 419 47<396.439 485.639> 428 57<178.646 263.872>
LayerCount: 2
Fore
SplineSet
485 237 m 0xf880
 485 176 429 137 350 137 c 0
 276 137 222 168 222 224 c 0xfc80
 222 264 239 296 301 334 c 1
 242 378 229 396 229 436 c 0
 229 492 282 529 356 529 c 0
 421 529 466 493 466 448 c 0xfb
 466 404 445 382 389 355 c 1
 460 312 485 283 485 237 c 0xf880
419 442 m 0xfb
 419 477 393 499 350 499 c 0
 308 499 279 482 279 451 c 0
 279 421 304 400 359 371 c 1
 401 394 419 411 419 442 c 0xfb
365 295 m 2
 328 316 l 1
 290 290 277 267 277 235 c 0
 277 187 310 167 358 167 c 0
 398 167 428 184 428 216 c 0xfc80
 428 246 408 270 365 295 c 2
353 28 m 0
 505 28 l 25
 505 -15 l 1
 445 -15 547 -15 351 -15 c 0
 154 -15 0 141 0 338 c 0
 0 537 155 692 356 692 c 0
 505 692 l 25
 505 649 l 1
 446 649 525 649 353 649 c 0
 182 649 43 510 43 338 c 0
 43 167 182 28 353 28 c 0
EndSplineSet
EndChar

StartChar: nine
Encoding: 265 57 9
Width: 505
Flags: W
HStem: -15 43<246.495 505> 137 26<224 277.839> 270 38<295.117 398.769> 499 30<293.208 383.164> 649 43<246.495 505>
VStem: 0 43<231.882 444.797> 204 61<335.55 468.911> 417 66<317.196 454.439>
LayerCount: 2
Fore
SplineSet
224 137 m 1
 224 163 l 1
 318 177 385 217 413 299 c 1
 386 277 355 270 321 270 c 0
 250 270 204 318 204 391 c 0
 204 470 260 529 339 529 c 0
 433 529 483 451 483 364 c 0
 483 298 457 242 404 201 c 0
 349 157 305 147 224 137 c 1
417 341 m 2
 417 376 l 2
 417 466 389 499 334 499 c 0
 286 499 265 456 265 409 c 0
 265 347 296 308 343 308 c 0
 372 308 417 316 417 341 c 2
353 28 m 0
 505 28 l 25
 505 -15 l 1
 445 -15 547 -15 351 -15 c 0
 154 -15 0 141 0 338 c 0
 0 537 155 692 356 692 c 0
 505 692 l 25
 505 649 l 1
 446 649 525 649 353 649 c 0
 182 649 43 510 43 338 c 0
 43 167 182 28 353 28 c 0
EndSplineSet
EndChar

StartChar: A
Encoding: 266 65 10
Width: 700
Flags: W
HStem: -15 43<245.975 461.681> 144 24<149 180.514 229.829 268 406 444.782 525.477 557> 262 38<275 398> 649 43<243.309 458.735>
VStem: 0 43<231.882 444.797> 657 43<224.011 451.738>
LayerCount: 2
Fore
SplineSet
557 144 m 1
 406 144 l 1
 406 168 l 1
 426 169 445 170 445 182 c 0
 445 190 443 203 436 216 c 2
 412 262 l 1
 261 262 l 1
 234 206 l 2
 231 198 229 189 229 185 c 0
 229 172 240 168 268 168 c 1
 268 144 l 1
 149 144 l 1
 149 168 l 1
 185 172 190 183 223 258 c 2
 346 536 l 1
 355 536 l 1
 503 216 l 2
 518 183 526 172 557 168 c 1
 557 144 l 1
398 300 m 1
 337 440 l 1
 336 440 l 1
 275 300 l 1
 398 300 l 1
700 338 m 0
 700 140 547 -15 351 -15 c 0
 154 -15 0 141 0 338 c 0
 0 537 155 692 356 692 c 0
 546 692 700 533 700 338 c 0
657 338 m 0
 657 510 525 649 353 649 c 0
 182 649 43 510 43 338 c 0
 43 167 182 28 353 28 c 0
 525 28 657 167 657 338 c 0
EndSplineSet
Validated: 1
EndChar

StartChar: B
Encoding: 267 66 11
Width: 700
Flags: W
HStem: -15 43<245.975 461.681> 144 35<298.007 427.399> 144 24<174 220.152> 324 38<298 420.815> 494 35<298 413.813> 506 23<174 219.365> 649 43<243.309 458.735>
VStem: 0 43<231.882 444.797> 226 72<179.736 324 362 493.807> 439 72<377.472 473.688> 454 82<200.969 302.276> 657 43<224.011 451.738>
LayerCount: 2
Fore
SplineSet
174 529 m 1xb7b0
 348 529 l 2
 455 529 511 492 511 429 c 0x9bd0
 511 387 488 358 452 347 c 1
 497 333 536 302 536 251 c 0
 536 185 473 144 384 144 c 2xdbb0
 174 144 l 1
 174 168 l 1
 223 169 226 177 226 215 c 2
 226 460 l 2
 226 497 224 503 174 506 c 1
 174 529 l 1xb7b0
298 362 m 1
 353 362 l 2
 415 362 439 384 439 426 c 0
 439 469 410 494 337 494 c 2
 311 494 l 2
 302 494 298 491 298 484 c 2
 298 362 l 1
298 324 m 1
 298 197 l 2
 298 183 308 179 336 179 c 0
 399 179 454 187 454 252 c 0xd3b0
 454 322 386 324 320 324 c 2
 298 324 l 1
700 338 m 0
 700 140 547 -15 351 -15 c 0
 154 -15 0 141 0 338 c 0
 0 537 155 692 356 692 c 0
 546 692 700 533 700 338 c 0
657 338 m 0
 657 510 525 649 353 649 c 0
 182 649 43 510 43 338 c 0
 43 167 182 28 353 28 c 0
 525 28 657 167 657 338 c 0
EndSplineSet
Validated: 1
EndChar

StartChar: C
Encoding: 268 67 12
Width: 700
Flags: W
HStem: -15 43<245.975 461.681> 137 38<309.259 470.882> 500 36<306.008 457.165> 649 43<243.309 458.735>
VStem: 0 43<231.882 444.797> 149 79<249.817 423.425> 521 22<396 427.145> 657 43<224.011 451.738>
LayerCount: 2
Fore
SplineSet
539 231 m 1
 557 217 l 1
 514 165 447 137 370 137 c 0
 249 137 149 208 149 334 c 0
 149 459 254 536 370 536 c 0
 402 536 431 532 462 525 c 0
 473 522 487 519 495 519 c 0
 508 519 520 525 524 536 c 1
 538 536 l 1
 543 396 l 1
 521 396 l 1
 506 461 453 500 386 500 c 0
 287 500 228 436 228 343 c 0
 228 236 289 175 393 175 c 0
 452 175 489 192 539 231 c 1
700 338 m 0
 700 140 547 -15 351 -15 c 0
 154 -15 0 141 0 338 c 0
 0 537 155 692 356 692 c 0
 546 692 700 533 700 338 c 0
657 338 m 0
 657 510 525 649 353 649 c 0
 182 649 43 510 43 338 c 0
 43 167 182 28 353 28 c 0
 525 28 657 167 657 338 c 0
EndSplineSet
Validated: 1
EndChar

StartChar: D
Encoding: 269 68 13
Width: 700
Flags: W
HStem: -15 43<245.975 461.681> 144 35<265.009 397.52> 144 24<141 187.244> 494 35<265 395.334> 506 23<141 187.75> 649 43<243.309 458.735>
VStem: 0 43<231.882 444.797> 193 72<179.657 493.919> 478 80<248.229 426.279> 657 43<224.011 451.738>
LayerCount: 2
Fore
SplineSet
141 529 m 1xafc0
 313 529 l 2
 446 529 558 487 558 341 c 0
 558 219 471 144 320 144 c 2xd7c0
 141 144 l 1
 141 168 l 1
 187 170 193 174 193 212 c 2
 193 464 l 2
 193 502 187 503 141 506 c 1
 141 529 l 1xafc0
265 479 m 2
 265 197 l 2
 265 183 277 179 300 179 c 0
 403 179 476 215 478 338 c 0
 478 461 396 494 287 494 c 0
 265 494 265 492 265 479 c 2
700 338 m 0
 700 140 547 -15 351 -15 c 0
 154 -15 0 141 0 338 c 0
 0 537 155 692 356 692 c 0
 546 692 700 533 700 338 c 0
657 338 m 0
 657 510 525 649 353 649 c 0
 182 649 43 510 43 338 c 0
 43 167 182 28 353 28 c 0
 525 28 657 167 657 338 c 0
EndSplineSet
Validated: 1
EndChar

StartChar: E
Encoding: 270 69 14
Width: 700
Flags: W
HStem: -15 43<245.975 461.681> 144 35<290.009 468.917> 144 24<166 212.244> 324 38<290 432.739> 494 35<290 461.564> 506 23<166 211.385> 649 43<243.309 458.735>
VStem: 0 43<231.882 444.797> 218 72<180.082 324 362 493.997> 440 23<274 312.647 374.199 412> 478 22<433 467.952> 657 43<224.011 451.738>
LayerCount: 2
Fore
SplineSet
532 253 m 1xdbf0
 500 144 l 1
 166 144 l 1
 166 168 l 1
 212 169 218 174 218 212 c 2
 218 464 l 2
 218 499 211 503 166 506 c 1
 166 529 l 1
 496 529 l 1xb7f0
 500 433 l 1
 478 433 l 1
 469 483 456 494 387 494 c 2
 309 494 l 2
 294 494 290 494 290 482 c 2
 290 362 l 1
 375 362 l 2
 427 362 434 368 440 412 c 1
 463 412 l 1
 463 274 l 1
 440 274 l 1
 434 320 427 324 375 324 c 2
 290 324 l 1
 290 197 l 2
 290 184 302 179 322 179 c 2
 375 179 l 2
 461 179 484 193 512 253 c 1
 532 253 l 1xdbf0
700 338 m 0
 700 140 547 -15 351 -15 c 0
 154 -15 0 141 0 338 c 0
 0 537 155 692 356 692 c 0
 546 692 700 533 700 338 c 0
657 338 m 0
 657 510 525 649 353 649 c 0
 182 649 43 510 43 338 c 0
 43 167 182 28 353 28 c 0
 525 28 657 167 657 338 c 0
EndSplineSet
Validated: 1
EndChar

StartChar: F
Encoding: 271 70 15
Width: 700
Flags: W
HStem: -15 43<245.975 461.681> 144 24<166 212.677 298.902 357> 324 38<290 444.88> 494 35<290 481.815> 506 23<166 211.125> 649 43<243.309 458.735>
VStem: 0 43<231.882 444.797> 218 72<173.465 324 362 493.687> 452 23<274 312.647 374.199 412> 498 23<433 469.304> 657 43<224.011 451.738>
LayerCount: 2
Fore
SplineSet
521 433 m 1xefe0
 498 433 l 1
 488 483 479 494 404 494 c 2
 311 494 l 2xf7e0
 293 494 290 493 290 482 c 2
 290 362 l 1
 385 362 l 2
 440 362 446 368 452 412 c 1
 475 412 l 1
 475 274 l 1
 452 274 l 1
 446 320 440 324 385 324 c 2
 290 324 l 1
 290 207 l 2
 290 174 305 171 357 168 c 1
 357 144 l 1
 166 144 l 1
 166 168 l 1
 215 170 218 174 218 217 c 2
 218 460 l 2
 218 495 217 503 166 506 c 1
 166 529 l 1
 517 529 l 1
 521 433 l 1xefe0
700 338 m 0
 700 140 547 -15 351 -15 c 0
 154 -15 0 141 0 338 c 0
 0 537 155 692 356 692 c 0
 546 692 700 533 700 338 c 0
657 338 m 0
 657 510 525 649 353 649 c 0
 182 649 43 510 43 338 c 0
 43 167 182 28 353 28 c 0
 525 28 657 167 657 338 c 0
EndSplineSet
Validated: 1
EndChar

StartChar: G
Encoding: 272 71 16
Width: 700
Flags: W
HStem: -15 43<245.975 461.681> 137 38<306.211 460.289> 332 23<412 457.44 539.623 576> 500 36<307.739 447.552> 649 43<243.309 458.735>
VStem: 0 43<231.882 444.797> 149 79<248.463 422.752> 465 69<182.436 327.76> 504 22<405 432.423> 657 43<224.011 451.738>
LayerCount: 2
Fore
SplineSet
576 355 m 1xff40
 576 332 l 1
 542 329 534 325 534 295 c 2
 534 178 l 1xff40
 500 151 431 137 369 137 c 0
 242 137 149 213 149 335 c 0
 149 457 253 536 371 536 c 0
 395 536 421 530 446 524 c 0
 457 521 468 519 476 519 c 0
 488 519 498 526 503 536 c 1
 521 536 l 1
 526 405 l 1
 504 405 l 1xfec0
 493 440 481 454 462 472 c 0
 441 490 411 500 383 500 c 0
 304 500 228 450 228 342 c 0
 228 235 290 175 393 175 c 0
 439 175 465 188 465 203 c 2
 465 287 l 2
 465 325 459 328 412 332 c 1
 412 355 l 1
 576 355 l 1xff40
700 338 m 0
 700 140 547 -15 351 -15 c 0
 154 -15 0 141 0 338 c 0
 0 537 155 692 356 692 c 0
 546 692 700 533 700 338 c 0
657 338 m 0
 657 510 525 649 353 649 c 0
 182 649 43 510 43 338 c 0
 43 167 182 28 353 28 c 0
 525 28 657 167 657 338 c 0
EndSplineSet
Validated: 1
EndChar

StartChar: H
Encoding: 273 72 17
Width: 700
Flags: W
HStem: -15 43<245.975 461.681> 144 24<156 195.481 281.768 320 385 423.875 512.5 551> 324 38<274 432> 506 23<156 194.5 282.875 321 385 424.118 512.5 551> 649 43<243.309 458.735>
VStem: 0 43<231.882 444.797> 203 71<171.977 324 362 501.505> 432 72<172.341 324 362 501.676> 657 43<224.011 451.738>
LayerCount: 2
Fore
SplineSet
551 144 m 1
 385 144 l 1
 385 168 l 1
 426 171 432 179 432 220 c 2
 432 324 l 1
 274 324 l 1
 274 215 l 2
 274 179 281 171 320 168 c 1
 320 144 l 1
 156 144 l 1
 156 168 l 1
 197 171 203 177 203 219 c 2
 203 459 l 2
 203 496 196 502 156 506 c 1
 156 529 l 1
 321 529 l 1
 321 506 l 1
 282 502 274 496 274 459 c 2
 274 362 l 1
 432 362 l 1
 432 459 l 2
 432 497 425 502 385 506 c 1
 385 529 l 1
 551 529 l 1
 551 506 l 1
 511 502 504 496 504 459 c 2
 504 214 l 2
 504 179 511 172 551 168 c 1
 551 144 l 1
700 338 m 0
 700 140 547 -15 351 -15 c 0
 154 -15 0 141 0 338 c 0
 0 537 155 692 356 692 c 0
 546 692 700 533 700 338 c 0
657 338 m 0
 657 510 525 649 353 649 c 0
 182 649 43 510 43 338 c 0
 43 167 182 28 353 28 c 0
 525 28 657 167 657 338 c 0
EndSplineSet
Validated: 1
EndChar

StartChar: I
Encoding: 274 73 18
Width: 700
Flags: W
HStem: -15 43<245.975 461.681> 144 24<261 310.05 396.998 446> 506 23<261 309.481 397.655 446> 649 43<243.309 458.735>
VStem: 0 43<231.882 444.797> 317 72<172.023 501.253> 657 43<224.011 451.738>
LayerCount: 2
Fore
SplineSet
446 144 m 1
 261 144 l 1
 261 168 l 1
 310 169 317 176 317 214 c 2
 317 460 l 2
 317 498 312 503 261 506 c 1
 261 529 l 1
 446 529 l 1
 446 506 l 1
 395 503 389 496 389 460 c 2
 389 214 l 2
 389 177 397 169 446 168 c 1
 446 144 l 1
700 338 m 0
 700 140 547 -15 351 -15 c 0
 154 -15 0 141 0 338 c 0
 0 537 155 692 356 692 c 0
 546 692 700 533 700 338 c 0
657 338 m 0
 657 510 525 649 353 649 c 0
 182 649 43 510 43 338 c 0
 43 167 182 28 353 28 c 0
 525 28 657 167 657 338 c 0
EndSplineSet
Validated: 1
EndChar

StartChar: J
Encoding: 275 74 19
Width: 700
Flags: W
HStem: -15 43<245.975 461.681> 137 35<263.902 324.482> 506 23<271 319.131 407.25 456> 649 43<243.309 458.735>
VStem: 0 43<231.882 444.797> 217 67<172.449 217.766> 327 72<175.827 500.964> 657 43<224.011 451.738>
LayerCount: 2
Fore
SplineSet
456 529 m 1
 456 506 l 1
 402 502 399 495 399 459 c 2
 399 256 l 2
 399 174 356 137 284 137 c 0
 244 137 217 153 217 185 c 0
 217 208 231 220 251 220 c 0
 265 220 280 210 284 188 c 0
 285 182 289 172 301 172 c 0
 320 172 327 186 327 205 c 2
 327 461 l 2
 327 498 321 503 271 506 c 1
 271 529 l 1
 456 529 l 1
700 338 m 0
 700 140 547 -15 351 -15 c 0
 154 -15 0 141 0 338 c 0
 0 537 155 692 356 692 c 0
 546 692 700 533 700 338 c 0
657 338 m 0
 657 510 525 649 353 649 c 0
 182 649 43 510 43 338 c 0
 43 167 182 28 353 28 c 0
 525 28 657 167 657 338 c 0
EndSplineSet
Validated: 1
EndChar

StartChar: K
Encoding: 276 75 20
Width: 700
Flags: W
HStem: -15 43<245.975 461.681> 144 24<147 196.071 282.764 333 385 423.565 528.515 570> 506 23<147 195.997 284.126 333 383 399 488.669 537> 649 43<243.309 458.735>
VStem: 0 43<231.882 444.797> 204 71<172.075 312 353 501.333> 657 43<224.011 451.738>
LayerCount: 2
Fore
SplineSet
570 144 m 1
 385 144 l 1
 385 168 l 1
 412 171 424 175 424 182 c 0
 424 189 407 205 394 218 c 2
 290 324 l 1
 275 312 l 1
 275 214 l 2
 275 176 284 169 333 168 c 1
 333 144 l 1
 147 144 l 1
 147 168 l 1
 200 169 204 178 204 221 c 2
 204 464 l 2
 204 499 194 503 147 506 c 1
 147 529 l 1
 333 529 l 1
 333 506 l 1
 284 503 275 498 275 461 c 2
 275 353 l 1
 376 443 l 2
 404 469 422 484 422 493 c 0
 422 500 418 504 399 505 c 2
 383 506 l 1
 383 529 l 1
 537 529 l 1
 537 506 l 1
 495 503 484 496 445 462 c 2
 338 367 l 1
 478 226 l 2
 529 174 541 168 570 168 c 1
 570 144 l 1
700 338 m 0
 700 140 547 -15 351 -15 c 0
 154 -15 0 141 0 338 c 0
 0 537 155 692 356 692 c 0
 546 692 700 533 700 338 c 0
657 338 m 0
 657 510 525 649 353 649 c 0
 182 649 43 510 43 338 c 0
 43 167 182 28 353 28 c 0
 525 28 657 167 657 338 c 0
EndSplineSet
Validated: 1
EndChar

StartChar: L
Encoding: 277 76 21
Width: 700
Flags: W
HStem: -15 43<245.975 461.681> 144 36<311.884 456.329> 144 24<183 231.4> 506 23<183 231.301 319.819 368> 649 43<243.309 458.735>
VStem: 0 43<231.882 444.797> 239 72<181.643 501.45> 657 43<224.011 451.738>
LayerCount: 2
Fore
SplineSet
509 255 m 1xdf
 482 144 l 1
 183 144 l 1
 183 168 l 1xbf
 228 169 239 174 239 212 c 2
 239 469 l 2
 239 503 221 504 183 506 c 1
 183 529 l 1
 368 529 l 1
 368 506 l 1
 328 503 311 502 311 466 c 2
 311 207 l 2
 311 187 320 180 355 180 c 2
 389 180 l 2
 429 180 453 189 469 211 c 0
 476 222 483 235 491 255 c 1
 509 255 l 1xdf
700 338 m 0
 700 140 547 -15 351 -15 c 0
 154 -15 0 141 0 338 c 0
 0 537 155 692 356 692 c 0
 546 692 700 533 700 338 c 0
657 338 m 0
 657 510 525 649 353 649 c 0
 182 649 43 510 43 338 c 0
 43 167 182 28 353 28 c 0
 525 28 657 167 657 338 c 0
EndSplineSet
Validated: 1
EndChar

StartChar: M
Encoding: 278 77 22
Width: 700
Flags: W
HStem: -15 43<245.975 461.681> 144 24<124 162.5 214.697 252 414 454.25 543.375 582> 506 23<125 165.047 541.993 581> 649 43<243.309 458.735>
VStem: 0 43<231.882 444.797> 171 33<175.462 434> 463 71<172.378 459> 657 43<224.011 451.738>
LayerCount: 2
Fore
SplineSet
700 338 m 0
 700 140 547 -15 351 -15 c 0
 154 -15 0 141 0 338 c 0
 0 537 155 692 356 692 c 0
 546 692 700 533 700 338 c 0
657 338 m 0
 657 510 525 649 353 649 c 0
 182 649 43 510 43 338 c 0
 43 167 182 28 353 28 c 0
 525 28 657 167 657 338 c 0
582 144 m 1
 414 144 l 1
 414 168 l 1
 456 171 463 179 463 220 c 2
 463 459 l 1
 461 459 l 1
 327 144 l 1
 315 144 l 1
 205 434 l 1
 204 434 l 1
 204 236 l 2
 204 180 211 171 252 168 c 1
 252 144 l 1
 124 144 l 1
 124 168 l 1
 169 172 171 179 171 236 c 2
 171 459 l 2
 171 496 169 503 125 506 c 1
 125 529 l 1
 231 529 l 1
 340 246 l 1
 459 529 l 1
 581 529 l 1
 581 506 l 1
 543 505 534 496 534 460 c 2
 534 214 l 2
 534 180 543 171 582 168 c 1
 582 144 l 1
EndSplineSet
Validated: 1
EndChar

StartChar: N
Encoding: 279 78 23
Width: 700
Flags: W
HStem: -15 43<245.975 461.681> 143 24<174 209.754 263.636 297> 506 23<174 205.596 408 445.968 505.282 538> 649 43<243.309 458.735>
VStem: 0 43<231.882 444.797> 218 33<176.158 441> 457 33<260 491.573> 657 43<224.011 451.738>
LayerCount: 2
Fore
SplineSet
538 529 m 1
 538 506 l 1
 518 504 511 502 505 496 c 0
 495 488 490 476 490 436 c 2
 490 137 l 1
 475 137 l 1
 251 441 l 1
 251 230 l 2
 251 182 258 174 297 167 c 1
 297 143 l 1
 174 143 l 1
 174 167 l 1
 217 172 218 180 218 234 c 2
 218 478 l 1
 203 498 201 506 174 506 c 1
 174 529 l 1
 261 529 l 1
 457 260 l 1
 457 441 l 2
 457 467 455 483 448 492 c 0
 441 502 432 504 408 506 c 1
 408 529 l 1
 538 529 l 1
700 338 m 0
 700 140 547 -15 351 -15 c 0
 154 -15 0 141 0 338 c 0
 0 537 155 692 356 692 c 0
 546 692 700 533 700 338 c 0
657 338 m 0
 657 510 525 649 353 649 c 0
 182 649 43 510 43 338 c 0
 43 167 182 28 353 28 c 0
 525 28 657 167 657 338 c 0
EndSplineSet
Validated: 1
EndChar

StartChar: O
Encoding: 280 79 24
Width: 700
Flags: W
HStem: -15 43<245.975 461.681> 144 33<288.667 418.172> 504 32<292.105 414.119> 649 43<243.309 458.735>
VStem: 0 43<231.882 444.797> 145 79<248.586 434.128> 482 79<246.91 431.537> 657 43<224.011 451.738>
LayerCount: 2
Fore
SplineSet
561 341 m 0
 561 223 474 144 353 144 c 0
 231 144 145 224 145 342 c 0
 145 457 230 536 353 536 c 0
 476 536 561 453 561 341 c 0
482 344 m 0
 482 435 440 504 352 504 c 0
 262 504 224 429 224 341 c 0
 224 250 262 177 354 177 c 0
 447 177 482 250 482 344 c 0
700 338 m 0
 700 140 547 -15 351 -15 c 0
 154 -15 0 141 0 338 c 0
 0 537 155 692 356 692 c 0
 546 692 700 533 700 338 c 0
657 338 m 0
 657 510 525 649 353 649 c 0
 182 649 43 510 43 338 c 0
 43 167 182 28 353 28 c 0
 525 28 657 167 657 338 c 0
EndSplineSet
Validated: 1
EndChar

StartChar: P
Encoding: 281 80 25
Width: 700
Flags: W
HStem: -15 43<245.975 461.681> 144 24<176 224.424 311.349 361> 304 38<304 398.383> 494 35<304 400> 506 23<176 224.828> 649 43<243.309 458.735>
VStem: 0 43<231.882 444.797> 232 72<171.718 306 342.081 493.624> 421 77<361.177 476.456> 657 43<224.011 451.738>
LayerCount: 2
Fore
SplineSet
176 529 m 1xefc0
 345 529 l 2xf7c0
 427 529 498 505 498 421 c 0
 498 332 424 304 342 304 c 0
 327 304 317 304 304 306 c 1
 304 211 l 2
 304 174 316 169 361 168 c 1
 361 144 l 1
 176 144 l 1
 176 168 l 1
 219 170 232 171 232 213 c 2
 232 467 l 2
 232 504 216 504 176 506 c 1
 176 529 l 1xefc0
304 480 m 2
 304 344 l 1
 315 342 326 342 337 342 c 0
 398 342 421 371 421 418 c 0
 421 474 398 494 322 494 c 0
 307 494 304 490 304 480 c 2
700 338 m 0
 700 140 547 -15 351 -15 c 0
 154 -15 0 141 0 338 c 0
 0 537 155 692 356 692 c 0
 546 692 700 533 700 338 c 0
657 338 m 0
 657 510 525 649 353 649 c 0
 182 649 43 510 43 338 c 0
 43 167 182 28 353 28 c 0
 525 28 657 167 657 338 c 0
EndSplineSet
Validated: 1
EndChar

StartChar: Q
Encoding: 282 81 26
Width: 700
Flags: W
HStem: -15 43<245.975 461.681> 80 23<445.57 509> 504 32<290.824 415.264> 649 43<243.309 458.735>
VStem: 0 43<231.882 444.797> 145 79<251.595 433.377> 482 79<248.267 430.927> 657 43<224.011 451.738>
LayerCount: 2
Fore
SplineSet
509 80 m 1
 479 80 l 2
 385 80 331 93 289 161 c 1
 209 180 145 241 145 340 c 0
 145 465 237 536 352 536 c 0
 470 536 561 461 561 340 c 0
 561 233 489 166 392 155 c 1
 412 127 441 106 509 103 c 1
 509 80 l 1
482 342 m 0
 482 436 440 504 352 504 c 0
 263 504 224 429 224 341 c 0
 224 250 263 185 354 185 c 0
 446 185 482 249 482 342 c 0
700 338 m 0
 700 140 547 -15 351 -15 c 0
 154 -15 0 141 0 338 c 0
 0 537 155 692 356 692 c 0
 546 692 700 533 700 338 c 0
657 338 m 0
 657 510 525 649 353 649 c 0
 182 649 43 510 43 338 c 0
 43 167 182 28 353 28 c 0
 525 28 657 167 657 338 c 0
EndSplineSet
Validated: 1
EndChar

StartChar: R
Encoding: 283 82 27
Width: 700
Flags: W
HStem: -15 43<245.975 461.681> 144 24<176 224.478 311.601 354 521.385 562> 314 38<304 338> 494 35<304 397.436> 506 23<176 224.564> 649 43<243.309 458.735>
VStem: 0 43<231.882 444.797> 232 72<171.866 314 352.001 493.624> 421 77<366.865 475.997> 657 43<224.011 451.738>
LayerCount: 2
Fore
SplineSet
562 144 m 1xf7c0
 467 144 l 1
 338 314 l 1
 304 314 l 1
 304 214 l 2
 304 177 311 171 354 168 c 1
 354 144 l 1
 176 144 l 1
 176 168 l 1
 217 170 232 170 232 213 c 2
 232 467 l 2
 232 504 215 504 176 506 c 1
 176 529 l 1xefc0
 345 529 l 2
 405 529 498 516 498 421 c 0
 498 370 472 335 407 322 c 1
 509 192 l 2
 523 174 535 171 562 168 c 1
 562 144 l 1xf7c0
304 480 m 2
 304 353 l 1
 312 352 321 352 328 352 c 0
 387 352 421 363 421 420 c 0
 421 460 410 494 329 494 c 0xf7c0
 311 494 304 494 304 480 c 2
700 338 m 0
 700 140 547 -15 351 -15 c 0
 154 -15 0 141 0 338 c 0
 0 537 155 692 356 692 c 0
 546 692 700 533 700 338 c 0
657 338 m 0
 657 510 525 649 353 649 c 0
 182 649 43 510 43 338 c 0
 43 167 182 28 353 28 c 0
 525 28 657 167 657 338 c 0
EndSplineSet
Validated: 1
EndChar

StartChar: S
Encoding: 284 83 28
Width: 700
Flags: W
HStem: -15 43<245.975 461.681> 137 34<291.349 406.949> 499 37<298.671 411.133> 649 43<243.309 458.735>
VStem: 0 43<231.882 444.797> 225 65<417.188 491.319> 228 22<137 155.39> 426 76<185.528 269.383> 657 43<224.011 451.738>
LayerCount: 2
Fore
SplineSet
486 404 m 1xfd80
 463 404 l 1
 456 430 449 445 436 460 c 0
 413 483 388 499 348 499 c 0
 309 499 290 481 290 453 c 0xfd80
 290 422 332 399 398 366 c 0
 468 332 502 295 502 249 c 0
 502 180 442 137 366 137 c 0
 340 137 320 141 295 151 c 0
 283 155 273 156 265 156 c 0
 257 156 250 149 250 137 c 1
 228 137 l 1xfb80
 207 270 l 1
 230 270 l 1
 258 203 294 171 356 171 c 0
 399 171 426 195 426 231 c 0
 426 269 359 304 306 329 c 0
 254 354 225 394 225 432 c 0
 225 497 273 536 339 536 c 0
 364 536 377 533 400 524 c 0
 411 520 422 518 430 518 c 0
 440 518 447 524 450 536 c 1
 469 536 l 1
 486 404 l 1xfd80
700 338 m 0
 700 140 547 -15 351 -15 c 0
 154 -15 0 141 0 338 c 0
 0 537 155 692 356 692 c 0
 546 692 700 533 700 338 c 0
657 338 m 0
 657 510 525 649 353 649 c 0
 182 649 43 510 43 338 c 0
 43 167 182 28 353 28 c 0
 525 28 657 167 657 338 c 0
EndSplineSet
Validated: 1
EndChar

StartChar: T
Encoding: 285 84 29
Width: 700
Flags: W
HStem: -15 43<245.975 461.681> 144 24<261 310.106 396.68 446> 494 35<217.533 317 389 485.678> 649 43<243.309 458.735>
VStem: 0 43<231.882 444.797> 174 21<421 458.141> 317 72<171.853 494> 510 22<421 456.292> 657 43<224.011 451.738>
LayerCount: 2
Fore
SplineSet
532 421 m 1
 510 421 l 1
 497 482 480 494 414 494 c 2
 389 494 l 1
 389 214 l 2
 389 176 398 169 446 168 c 1
 446 144 l 1
 261 144 l 1
 261 168 l 1
 312 170 317 175 317 219 c 2
 317 494 l 1
 287 494 l 2
 222 494 207 482 195 421 c 1
 174 421 l 1
 178 529 l 1
 527 529 l 1
 532 421 l 1
700 338 m 0
 700 140 547 -15 351 -15 c 0
 154 -15 0 141 0 338 c 0
 0 537 155 692 356 692 c 0
 546 692 700 533 700 338 c 0
657 338 m 0
 657 510 525 649 353 649 c 0
 182 649 43 510 43 338 c 0
 43 167 182 28 353 28 c 0
 525 28 657 167 657 338 c 0
EndSplineSet
Validated: 1
EndChar

StartChar: U
Encoding: 286 85 30
Width: 700
Flags: W
HStem: -15 43<245.975 461.681> 137 38<300.75 425.325> 506 23<162 201.25 289.428 327 409 445.187 503.916 538> 649 43<243.309 458.735>
VStem: 0 43<231.882 444.797> 209 71<198.133 500.849> 457 33<211.592 496.467> 657 43<224.011 451.738>
LayerCount: 2
Fore
SplineSet
538 529 m 1
 538 506 l 1
 495 500 490 488 490 440 c 2
 490 299 l 2
 490 201 451 137 351 137 c 0
 261 137 209 190 209 292 c 2
 209 462 l 2
 209 495 204 502 162 506 c 1
 162 529 l 1
 327 529 l 1
 327 506 l 1
 286 500 280 495 280 460 c 2
 280 284 l 2
 280 219 284 175 363 175 c 0
 439 175 457 223 457 292 c 2
 457 439 l 2
 457 491 451 503 409 506 c 1
 409 529 l 1
 538 529 l 1
700 338 m 0
 700 140 547 -15 351 -15 c 0
 154 -15 0 141 0 338 c 0
 0 537 155 692 356 692 c 0
 546 692 700 533 700 338 c 0
657 338 m 0
 657 510 525 649 353 649 c 0
 182 649 43 510 43 338 c 0
 43 167 182 28 353 28 c 0
 525 28 657 167 657 338 c 0
EndSplineSet
Validated: 1
EndChar

StartChar: V
Encoding: 287 86 31
Width: 700
Flags: W
HStem: -15 43<245.975 461.681> 506 23<149 184.615 291 309 434 474.233 524.521 557> 649 43<243.309 458.735>
VStem: 0 43<231.882 444.797> 657 43<224.011 451.738>
LayerCount: 2
Fore
SplineSet
557 529 m 1
 557 506 l 1
 532 505 518 497 502 460 c 2
 368 144 l 1
 360 144 l 1
 214 448 l 2
 189 498 180 505 149 506 c 1
 149 529 l 1
 309 529 l 1
 309 506 l 1
 291 505 l 2
 272 504 265 499 265 493 c 0
 265 488 268 477 287 438 c 2
 380 251 l 1
 465 452 l 2
 472 469 476 481 476 489 c 0
 476 503 450 505 434 506 c 1
 434 529 l 1
 557 529 l 1
700 338 m 0
 700 140 547 -15 351 -15 c 0
 154 -15 0 141 0 338 c 0
 0 537 155 692 356 692 c 0
 546 692 700 533 700 338 c 0
657 338 m 0
 657 510 525 649 353 649 c 0
 182 649 43 510 43 338 c 0
 43 167 182 28 353 28 c 0
 525 28 657 167 657 338 c 0
EndSplineSet
Validated: 1
EndChar

StartChar: W
Encoding: 288 87 32
Width: 700
Flags: W
HStem: -15 43<245.975 461.681> 506 23<124 150.675 214.018 244 275 308.124 370.605 407 481 513.945 554.25 582> 649 43<243.309 458.735>
VStem: 0 43<231.882 444.797> 657 43<224.011 451.738>
LayerCount: 2
Fore
SplineSet
582 529 m 1
 582 506 l 1
 555 499 549 495 540 471 c 2
 438 144 l 1
 432 144 l 1
 352 379 l 1
 351 379 l 1
 276 144 l 1
 270 144 l 1
 174 443 l 2
 158 492 150 505 124 506 c 1
 124 529 l 1
 244 529 l 1
 244 506 l 1
 220 505 214 503 214 494 c 0
 214 490 217 482 220 472 c 2
 287 264 l 1
 339 418 l 1
 325 456 l 2
 310 502 305 505 275 506 c 1
 275 529 l 1
 407 529 l 1
 407 506 l 1
 383 505 370 504 370 490 c 0
 370 485 374 476 378 464 c 2
 447 263 l 1
 448 263 l 1
 507 449 l 2
 512 465 516 477 516 486 c 0
 516 499 507 505 481 506 c 1
 481 529 l 1
 582 529 l 1
700 338 m 0
 700 140 547 -15 351 -15 c 0
 154 -15 0 141 0 338 c 0
 0 537 155 692 356 692 c 0
 546 692 700 533 700 338 c 0
657 338 m 0
 657 510 525 649 353 649 c 0
 182 649 43 510 43 338 c 0
 43 167 182 28 353 28 c 0
 525 28 657 167 657 338 c 0
EndSplineSet
Validated: 1
EndChar

StartChar: X
Encoding: 289 88 33
Width: 700
Flags: W
HStem: -15 43<245.975 461.681> 144 24<174 207.155 256.007 295 379 393 497.773 532> 506 23<180 212.854 298.026 337 405 438.926 489.163 528> 649 43<243.309 458.735>
VStem: 0 43<231.882 444.797> 657 43<224.011 451.738>
LayerCount: 2
Fore
SplineSet
532 144 m 1
 379 144 l 1
 379 168 l 1
 393 169 l 2
 408 170 418 173 418 179 c 0
 418 185 409 203 392 230 c 2
 343 307 l 1
 282 225 l 2
 264 199 256 185 256 180 c 0
 256 173 265 171 295 168 c 1
 295 144 l 1
 174 144 l 1
 174 168 l 1
 203 171 211 177 249 229 c 2
 325 334 l 1
 273 417 l 2
 226 491 216 500 180 506 c 1
 180 529 l 1
 337 529 l 1
 337 506 l 1
 321 506 l 2
 307 506 298 503 298 494 c 0
 298 485 307 471 327 439 c 2
 363 384 l 1
 420 461 l 2
 434 481 439 488 439 493 c 0
 439 502 433 505 405 506 c 1
 405 529 l 1
 528 529 l 1
 528 506 l 1
 493 503 480 493 449 451 c 2
 380 357 l 1
 475 207 l 2
 492 179 504 172 532 168 c 1
 532 144 l 1
700 338 m 0
 700 140 547 -15 351 -15 c 0
 154 -15 0 141 0 338 c 0
 0 537 155 692 356 692 c 0
 546 692 700 533 700 338 c 0
657 338 m 0
 657 510 525 649 353 649 c 0
 182 649 43 510 43 338 c 0
 43 167 182 28 353 28 c 0
 525 28 657 167 657 338 c 0
EndSplineSet
Validated: 1
EndChar

StartChar: Y
Encoding: 290 89 34
Width: 700
Flags: W
HStem: -15 43<245.975 461.681> 144 24<261 309.727 396.582 446> 506 23<174 204.151 309 322 418 450.891 497.731 532> 649 43<243.309 458.735>
VStem: 0 43<231.882 444.797> 317 72<171.431 325> 657 43<224.011 451.738>
LayerCount: 2
Fore
SplineSet
532 529 m 1
 532 506 l 1
 499 503 487 491 460 445 c 2
 389 327 l 1
 389 211 l 2
 389 172 404 169 446 168 c 1
 446 144 l 1
 261 144 l 1
 261 168 l 1
 309 170 317 173 317 216 c 2
 317 325 l 1
 259 420 l 2
 214 492 201 505 174 506 c 1
 174 529 l 1
 322 529 l 1
 322 506 l 1
 309 505 l 2
 293 504 284 502 284 496 c 0
 284 492 289 483 294 474 c 2
 370 352 l 1
 444 475 l 2
 449 483 451 490 451 494 c 0
 450 502 444 505 418 506 c 1
 418 529 l 1
 532 529 l 1
700 338 m 0
 700 140 547 -15 351 -15 c 0
 154 -15 0 141 0 338 c 0
 0 537 155 692 356 692 c 0
 546 692 700 533 700 338 c 0
657 338 m 0
 657 510 525 649 353 649 c 0
 182 649 43 510 43 338 c 0
 43 167 182 28 353 28 c 0
 525 28 657 167 657 338 c 0
EndSplineSet
Validated: 1
EndChar

StartChar: Z
Encoding: 291 90 35
Width: 700
Flags: W
HStem: -15 43<245.975 461.681> 144 35<267 477.984> 494 35<233.681 427> 649 43<243.309 458.735>
VStem: 0 43<231.882 444.797> 187 21<420 452.685> 512 20<230.191 257> 657 43<224.011 451.738>
LayerCount: 2
Fore
SplineSet
532 257 m 1
 516 144 l 1
 174 144 l 1
 174 164 l 1
 427 494 l 1
 313 494 l 2
 241 494 223 484 208 420 c 1
 187 420 l 1
 201 529 l 1
 520 529 l 1
 520 516 l 1
 267 179 l 1
 405 179 l 2
 469 179 492 192 512 257 c 1
 532 257 l 1
700 338 m 0
 700 140 547 -15 351 -15 c 0
 154 -15 0 141 0 338 c 0
 0 537 155 692 356 692 c 0
 546 692 700 533 700 338 c 0
657 338 m 0
 657 510 525 649 353 649 c 0
 182 649 43 510 43 338 c 0
 43 167 182 28 353 28 c 0
 525 28 657 167 657 338 c 0
EndSplineSet
Validated: 1
EndChar

StartChar: a
Encoding: 292 97 36
Width: 700
Flags: W
HStem: -15 43<245.975 461.681> 190 44<280.635 360.195 417 484.162> 435 27<288.962 371.553> 649 43<243.309 458.735>
VStem: 0 43<231.882 444.797> 217 60<238.729 304.222> 229 57<363.19 431.838> 383 57<243.626 342 361.141 428.748> 657 43<224.011 451.738>
LayerCount: 2
Fore
SplineSet
490 239 m 1xfb80
 490 218 l 1
 469 194 450 190 429 190 c 0
 405 190 389 200 384 230 c 1
 347 197 315 190 287 190 c 0
 247 190 217 213 217 253 c 0xfd80
 217 285 238 309 263 323 c 0
 284 336 310 345 383 367 c 1
 383 392 l 2
 383 422 361 435 333 435 c 0
 307 435 286 426 286 415 c 0
 286 407 292 401 292 392 c 0
 292 378 281 362 259 362 c 0
 241 362 229 376 229 394 c 0
 229 444 293 462 341 462 c 0
 405 462 440 438 440 369 c 2
 440 259 l 2
 440 237 449 229 461 229 c 0
 472 229 479 232 490 239 c 1xfb80
383 271 m 2
 383 342 l 1
 341 329 315 318 300 308 c 0
 283 297 277 284 277 270 c 0
 277 246 298 234 322 234 c 0
 348 234 383 248 383 271 c 2
700 338 m 0
 700 140 547 -15 351 -15 c 0
 154 -15 0 141 0 338 c 0
 0 537 155 692 356 692 c 0
 546 692 700 533 700 338 c 0
657 338 m 0
 657 510 525 649 353 649 c 0
 182 649 43 510 43 338 c 0
 43 167 182 28 353 28 c 0
 525 28 657 167 657 338 c 0
EndSplineSet
Validated: 1
EndChar

StartChar: b
Encoding: 293 98 37
Width: 700
Flags: W
HStem: -15 43<245.975 461.681> 137 29<304.692 407.635> 359 48<321.018 420.17> 490 21<198 210.766> 649 43<243.309 458.735>
VStem: 0 43<231.882 444.797> 242 58<171.156 348.886 361 490.78> 448 60<201.219 329.148> 657 43<224.011 451.738>
LayerCount: 2
Fore
SplineSet
300 535 m 1
 300 361 l 1
 316 390 351 407 388 407 c 0
 461 407 508 352 508 278 c 0
 508 191 441 137 352 137 c 0
 325 137 242 146 242 180 c 2
 242 467 l 2
 242 488 237 491 211 491 c 0
 206 491 201 491 198 490 c 2
 198 511 l 1
 246 521 267 527 296 536 c 1
 300 535 l 1
300 322 m 2
 300 189 l 2
 300 176 326 166 360 166 c 0
 411 166 448 206 448 254 c 0
 448 309 424 359 364 359 c 0
 331 359 300 341 300 322 c 2
700 338 m 0
 700 140 547 -15 351 -15 c 0
 154 -15 0 141 0 338 c 0
 0 537 155 692 356 692 c 0
 546 692 700 533 700 338 c 0
657 338 m 0
 657 510 525 649 353 649 c 0
 182 649 43 510 43 338 c 0
 43 167 182 28 353 28 c 0
 525 28 657 167 657 338 c 0
EndSplineSet
Validated: 1
EndChar

StartChar: c
Encoding: 294 99 38
Width: 700
Flags: W
HStem: -15 43<245.975 461.681> 190 52<313.54 425.986> 433 29<313.632 396.056> 649 43<243.309 458.735>
VStem: 0 43<231.882 444.797> 218 61<275.519 392.669> 400 71<374.884 431.033> 657 43<224.011 451.738>
LayerCount: 2
Fore
SplineSet
470 293 m 1
 486 284 l 1
 455 226 418 190 348 190 c 0
 272 190 218 243 218 318 c 0
 218 403 289 462 367 462 c 0
 424 462 471 433 471 398 c 0
 471 382 459 369 440 369 c 0
 417 369 406 392 400 410 c 0
 395 429 383 433 363 433 c 0
 310 433 279 396 279 344 c 0
 279 284 315 242 376 242 c 0
 414 242 438 256 470 293 c 1
700 338 m 0
 700 140 547 -15 351 -15 c 0
 154 -15 0 141 0 338 c 0
 0 537 155 692 356 692 c 0
 546 692 700 533 700 338 c 0
657 338 m 0
 657 510 525 649 353 649 c 0
 182 649 43 510 43 338 c 0
 43 167 182 28 353 28 c 0
 525 28 657 167 657 338 c 0
EndSplineSet
Validated: 1
EndChar

StartChar: d
Encoding: 295 100 39
Width: 700
Flags: W
HStem: -15 43<245.975 461.681> 137 42<287.95 388.675> 166 20<491.142 509> 379 28<295.156 383.829> 490 21<360 377.628> 649 43<243.309 458.735>
VStem: 0 43<231.882 444.797> 198 60<207.834 341.94> 406 58<185.345 364.608 383 490.862> 657 43<224.011 451.738>
LayerCount: 2
Fore
SplineSet
509 166 m 1xbfc0
 410 137 l 1
 406 140 l 1
 406 174 l 1
 383 147 354 137 319 137 c 0xdfc0
 244 137 198 187 198 263 c 0
 198 346 259 407 337 407 c 0
 361 407 387 400 405 383 c 1
 406 383 l 1
 406 469 l 2
 406 486 401 491 378 491 c 0
 370 491 366 491 360 490 c 1
 360 511 l 1
 403 520 427 526 459 536 c 1
 464 534 l 1
 464 212 l 2
 464 191 469 185 491 185 c 0
 494 185 499 185 509 186 c 1
 509 166 l 1xbfc0
406 210 m 2
 406 329 l 2
 406 355 375 379 339 379 c 0
 290 379 258 340 258 281 c 0
 258 216 290 179 345 179 c 0
 374 179 406 188 406 210 c 2
700 338 m 0
 700 140 547 -15 351 -15 c 0
 154 -15 0 141 0 338 c 0
 0 537 155 692 356 692 c 0
 546 692 700 533 700 338 c 0
657 338 m 0
 657 510 525 649 353 649 c 0
 182 649 43 510 43 338 c 0
 43 167 182 28 353 28 c 0
 525 28 657 167 657 338 c 0
EndSplineSet
Validated: 1
EndChar

StartChar: e
Encoding: 296 101 40
Width: 700
Flags: W
HStem: -15 43<245.975 461.681> 190 52<315.008 432.348> 347 32<281 409> 428 34<301.635 393.895> 649 43<243.309 458.735>
VStem: 0 43<231.882 444.797> 218 61<279.375 346.513> 657 43<224.011 451.738>
LayerCount: 2
Fore
SplineSet
476 293 m 1
 492 284 l 1
 462 226 424 190 354 190 c 0
 274 190 218 241 218 321 c 0
 218 401 279 462 365 462 c 0
 436 462 479 420 482 347 c 1
 279 347 l 1
 279 287 317 242 382 242 c 0
 420 242 445 256 476 293 c 1
281 379 m 1
 409 379 l 1
 405 406 388 428 347 428 c 0
 312 428 289 408 281 379 c 1
700 338 m 0
 700 140 547 -15 351 -15 c 0
 154 -15 0 141 0 338 c 0
 0 537 155 692 356 692 c 0
 546 692 700 533 700 338 c 0
657 338 m 0
 657 510 525 649 353 649 c 0
 182 649 43 510 43 338 c 0
 43 167 182 28 353 28 c 0
 525 28 657 167 657 338 c 0
EndSplineSet
Validated: 1
EndChar

StartChar: f
Encoding: 297 102 41
Width: 700
Flags: W
HStem: -15 43<245.975 461.681> 144 21<242 288.337 362.538 415> 371 32<243 296 353 435> 516 20<367.383 433.5> 649 43<243.309 458.735>
VStem: 0 43<231.882 444.797> 296 57<169.304 371 403 486.997> 657 43<224.011 451.738>
LayerCount: 2
Fore
SplineSet
243 403 m 1
 296 403 l 1
 298 475 329 536 413 536 c 0
 454 536 487 519 487 494 c 0
 487 471 474 464 456 464 c 0
 443 464 433 476 424 487 c 0
 414 497 407 516 390 516 c 0
 365 516 353 493 353 465 c 2
 353 403 l 1
 435 403 l 1
 435 371 l 1
 353 371 l 1
 353 209 l 2
 353 172 362 167 415 165 c 1
 415 144 l 1
 242 144 l 1
 242 165 l 1
 290 167 296 173 296 209 c 2
 296 371 l 1
 243 371 l 1
 243 403 l 1
700 338 m 0
 700 140 547 -15 351 -15 c 0
 154 -15 0 141 0 338 c 0
 0 537 155 692 356 692 c 0
 546 692 700 533 700 338 c 0
657 338 m 0
 657 510 525 649 353 649 c 0
 182 649 43 510 43 338 c 0
 43 167 182 28 353 28 c 0
 525 28 657 167 657 338 c 0
EndSplineSet
Validated: 1
EndChar

StartChar: g
Encoding: 298 103 42
Width: 700
Flags: W
HStem: -15 43<245.975 461.681> 137 47<257.587 429.384> 254 58<284.011 471.925> 345 29<315.121 393.078> 484 32<452 505> 507 29<300.318 376.28> 649 43<243.309 458.735>
VStem: 0 43<231.882 444.797> 200 52<195.96 245.043> 231 52<297.5 341.86 398.787 497.167> 406 55<382.419 482.992> 473 26<208.766 247.203> 657 43<224.011 451.738>
LayerCount: 2
Fore
SplineSet
505 484 m 1xfb78
 452 484 l 1
 459 470 461 451 461 441 c 0
 461 382 408 345 353 345 c 0
 342 345 322 348 315 348 c 0
 296 348 283 335 283 325 c 0xfb78
 283 319 291 314 326 312 c 2
 413 308 l 2
 467 306 499 280 499 241 c 0
 499 164 384 137 320 137 c 0
 254 137 200 154 200 199 c 0xfbb8
 200 224 214 244 254 270 c 1
 236 278 231 290 231 305 c 0
 231 329 253 345 281 358 c 1
 249 371 229 400 229 437 c 0
 229 493 279 536 344 536 c 0xf778
 362 536 384 535 412 522 c 0
 426 516 437 516 451 516 c 2
 505 516 l 1
 505 484 l 1xfb78
406 419 m 0
 406 459 386 507 337 507 c 0xf738
 307 507 286 488 286 459 c 0
 286 407 316 374 357 374 c 0
 387 374 406 391 406 419 c 0
473 232 m 0
 473 249 454 254 394 254 c 0
 361 254 304 257 283 262 c 1xf378
 255 239 252 228 252 219 c 0xf3b8
 252 197 290 184 349 184 c 0
 425 184 473 203 473 232 c 0
700 338 m 0
 700 140 547 -15 351 -15 c 0
 154 -15 0 141 0 338 c 0
 0 537 155 692 356 692 c 0
 546 692 700 533 700 338 c 0
657 338 m 0
 657 510 525 649 353 649 c 0
 182 649 43 510 43 338 c 0
 43 167 182 28 353 28 c 0
 525 28 657 167 657 338 c 0
EndSplineSet
Validated: 1
EndChar

StartChar: h
Encoding: 299 104 43
Width: 700
Flags: W
HStem: -15 43<245.975 461.681> 144 21<193 228.56 301.875 339 369 406.625 480.585 513> 365 43<322.2 408.168> 490 22<194 205.856> 649 43<243.309 458.735>
VStem: 0 43<231.882 444.797> 236 58<168.75 350.354 361 491.793> 415 58<168.975 357.844> 657 43<224.011 451.738>
LayerCount: 2
Fore
SplineSet
513 144 m 1
 369 144 l 1
 369 165 l 1
 408 169 415 174 415 208 c 2
 415 314 l 2
 415 349 398 365 367 365 c 0
 340 365 319 357 294 333 c 1
 294 208 l 2
 294 174 300 169 339 165 c 1
 339 144 l 1
 193 144 l 1
 193 165 l 1
 232 170 236 174 236 208 c 2
 236 470 l 2
 236 488 230 492 206 492 c 0
 203 492 196 490 194 490 c 2
 194 512 l 1
 251 523 267 528 289 536 c 1
 294 533 l 1
 294 361 l 1
 324 395 354 408 391 408 c 0
 445 408 473 377 473 315 c 2
 473 208 l 2
 473 175 477 171 513 165 c 1
 513 144 l 1
700 338 m 0
 700 140 547 -15 351 -15 c 0
 154 -15 0 141 0 338 c 0
 0 537 155 692 356 692 c 0
 546 692 700 533 700 338 c 0
657 338 m 0
 657 510 525 649 353 649 c 0
 182 649 43 510 43 338 c 0
 43 167 182 28 353 28 c 0
 525 28 657 167 657 338 c 0
EndSplineSet
Validated: 1
EndChar

StartChar: i
Encoding: 300 105 44
Width: 700
Flags: W
HStem: -15 43<245.975 461.681> 190 21<273 318.141 390.497 433> 408 22<275 298.258> 518 74<316.181 383.664> 649 43<243.309 458.735>
VStem: 0 43<231.882 444.797> 313 74<521.181 588.664> 325 58<214.147 409.996> 657 43<224.011 451.738>
LayerCount: 2
Fore
SplineSet
387 555 m 0xfe80
 387 534 370 518 350 518 c 0
 329 518 313 534 313 555 c 0
 313 575 329 592 350 592 c 0
 370 592 387 575 387 555 c 0xfe80
433 190 m 1
 273 190 l 1
 273 211 l 1
 319 213 325 217 325 255 c 2
 325 382 l 2
 325 404 320 410 305 410 c 0
 299 410 287 410 275 408 c 1
 275 430 l 1
 378 461 l 1
 383 457 l 1
 383 256 l 2xfd80
 383 219 388 213 433 211 c 1
 433 190 l 1
700 338 m 0
 700 140 547 -15 351 -15 c 0
 154 -15 0 141 0 338 c 0
 0 537 155 692 356 692 c 0
 546 692 700 533 700 338 c 0
657 338 m 0
 657 510 525 649 353 649 c 0
 182 649 43 510 43 338 c 0
 43 167 182 28 353 28 c 0
 525 28 657 167 657 338 c 0
EndSplineSet
Validated: 1
EndChar

StartChar: j
Encoding: 301 106 45
Width: 700
Flags: W
HStem: -15 43<245.975 461.681> 81 32<276.913 347.61> 425 22<302 332.625> 535 74<345.199 411.663> 649 43<243.309 458.735>
VStem: 0 43<231.882 444.797> 342 73<537.969 605.975> 354 57<126.157 427.994> 657 43<224.011 451.738>
LayerCount: 2
Fore
SplineSet
415 572 m 0xfe80
 415 552 399 535 379 535 c 0
 357 535 342 552 342 572 c 0
 342 594 358 609 380 609 c 0
 400 609 415 594 415 572 c 0xfe80
411 475 m 1xfd80
 411 214 l 2
 411 127 372 81 297 81 c 0
 258 81 232 97 232 120 c 0
 232 136 243 148 261 148 c 0
 289 148 301 113 322 113 c 0
 354 113 354 139 354 187 c 2
 354 399 l 2
 354 420 347 428 333 428 c 0
 325 428 317 427 302 425 c 1
 302 447 l 1
 340 456 366 466 407 479 c 1
 411 475 l 1xfd80
700 338 m 0
 700 140 547 -15 351 -15 c 0
 154 -15 0 141 0 338 c 0
 0 537 155 692 356 692 c 0
 546 692 700 533 700 338 c 0
657 338 m 0
 657 510 525 649 353 649 c 0
 182 649 43 510 43 338 c 0
 43 167 182 28 353 28 c 0
 525 28 657 167 657 338 c 0
EndSplineSet
Validated: 1
EndChar

StartChar: k
Encoding: 302 107 46
Width: 700
Flags: W
HStem: -15 43<245.975 461.681> 144 21<187 230.8 299.773 339 374 396.996 478.625 519> 384 20<366 396.984 447.116 504> 491 21<187 209.717> 649 43<243.309 458.735>
VStem: 0 43<231.882 444.797> 237 58<168.343 283 302 491.859> 657 43<224.011 451.738>
LayerCount: 2
Fore
SplineSet
519 144 m 1
 374 144 l 1
 374 165 l 1
 387 165 l 2
 392 165 397 166 397 170 c 0
 397 172 396 173 393 177 c 2
 295 283 l 1
 295 193 l 2
 295 171 306 166 339 165 c 1
 339 144 l 1
 187 144 l 1
 187 165 l 1
 234 167 237 177 237 198 c 2
 237 466 l 2
 237 487 232 492 210 492 c 0
 204 492 195 492 187 491 c 1
 187 512 l 1
 238 519 265 527 290 536 c 1
 295 533 l 1
 295 302 l 1
 384 365 l 2
 393 372 397 375 397 379 c 0
 397 384 375 384 366 384 c 1
 366 404 l 1
 504 404 l 1
 504 384 l 1
 463 384 436 379 360 318 c 2
 345 306 l 1
 442 203 l 2
 466 178 490 167 519 165 c 1
 519 144 l 1
700 338 m 0
 700 140 547 -15 351 -15 c 0
 154 -15 0 141 0 338 c 0
 0 537 155 692 356 692 c 0
 546 692 700 533 700 338 c 0
657 338 m 0
 657 510 525 649 353 649 c 0
 182 649 43 510 43 338 c 0
 43 167 182 28 353 28 c 0
 525 28 657 167 657 338 c 0
EndSplineSet
Validated: 1
EndChar

StartChar: l
Encoding: 303 108 47
Width: 700
Flags: W
HStem: -15 43<245.975 461.681> 144 21<274 314.875 389.364 432> 491 21<276 299.763> 649 43<243.309 458.735>
VStem: 0 43<231.882 444.797> 325 58<169.845 491.916> 657 43<224.011 451.738>
LayerCount: 2
Fore
SplineSet
432 144 m 1
 274 144 l 1
 274 165 l 1
 315 168 325 177 325 201 c 2
 325 464 l 2
 325 485 319 492 300 492 c 0
 295 492 286 492 276 491 c 1
 276 512 l 1
 319 520 343 526 378 536 c 1
 383 532 l 1
 383 198 l 2
 383 174 390 167 432 165 c 1
 432 144 l 1
700 338 m 0
 700 140 547 -15 351 -15 c 0
 154 -15 0 141 0 338 c 0
 0 537 155 692 356 692 c 0
 546 692 700 533 700 338 c 0
657 338 m 0
 657 510 525 649 353 649 c 0
 182 649 43 510 43 338 c 0
 43 167 182 28 353 28 c 0
 525 28 657 167 657 338 c 0
EndSplineSet
Validated: 1
EndChar

StartChar: m
Encoding: 304 109 48
Width: 700
Flags: W
HStem: -15 43<245.975 461.681> 190 21<96 137.203 204.012 246 279 320.584 390.74 433 465 501.273 568.59 612> 411 21<98 120.581> 418 44<228.89 317.353 410.92 500.237> 649 43<243.309 458.735>
VStem: 0 43<231.882 444.797> 143 57<213.099 403.242> 325 58<213.771 405.162> 507 57<213.978 410.51> 657 43<224.011 451.738>
LayerCount: 2
Fore
SplineSet
612 190 m 1xdfc0
 465 190 l 1
 465 211 l 1
 503 215 507 220 507 246 c 2
 507 361 l 2
 507 401 492 418 456 418 c 0
 423 418 401 408 383 386 c 1
 383 249 l 2
 383 219 394 211 433 211 c 1
 433 190 l 1
 279 190 l 1
 279 211 l 1
 319 213 325 216 325 243 c 2
 325 361 l 2
 325 396 310 418 281 418 c 0xdfc0
 247 418 216 404 200 388 c 1
 200 235 l 2
 200 217 211 212 246 211 c 1
 246 190 l 1
 96 190 l 1
 96 211 l 1
 134 211 143 219 143 244 c 2
 143 382 l 2
 143 405 138 412 121 412 c 0
 112 412 107 412 98 411 c 1
 98 432 l 1xefc0
 135 441 168 451 191 462 c 1
 198 460 l 1
 198 418 l 1
 243 456 273 462 303 462 c 0
 338 462 361 446 376 414 c 1
 412 447 447 462 485 462 c 0
 542 462 564 425 564 354 c 2
 564 239 l 2
 564 220 573 213 593 212 c 2
 612 211 l 1
 612 190 l 1xdfc0
700 338 m 0
 700 140 547 -15 351 -15 c 0
 154 -15 0 141 0 338 c 0
 0 537 155 692 356 692 c 0
 546 692 700 533 700 338 c 0
657 338 m 0
 657 510 525 649 353 649 c 0
 182 649 43 510 43 338 c 0
 43 167 182 28 353 28 c 0
 525 28 657 167 657 338 c 0
EndSplineSet
Validated: 1
EndChar

StartChar: n
Encoding: 305 110 49
Width: 700
Flags: W
HStem: -15 43<245.975 461.681> 190 21<195 230.21 301.193 341 371 404.152 476.623 513> 411 21<194 215.533> 418 44<324.323 407.262> 649 43<243.309 458.735>
VStem: 0 43<231.882 444.797> 238 58<213.984 402.284> 413 58<214.234 412.277> 657 43<224.011 451.738>
LayerCount: 2
Fore
SplineSet
513 190 m 1xdf80
 371 190 l 1
 371 211 l 1
 405 213 413 223 413 256 c 2
 413 367 l 2
 413 402 397 418 365 418 c 0xdf80
 342 418 326 410 296 387 c 1
 296 236 l 2
 296 220 305 213 341 211 c 1
 341 190 l 1
 195 190 l 1
 195 211 l 1
 230 213 238 222 238 249 c 2
 238 383 l 2
 238 405 233 412 216 412 c 0
 206 412 198 411 194 411 c 1
 194 432 l 1xef80
 231 441 256 449 287 462 c 1
 295 460 l 1
 295 417 l 1
 329 449 361 462 391 462 c 0
 443 462 471 428 471 368 c 2
 471 243 l 2
 471 219 479 213 513 211 c 1
 513 190 l 1xdf80
700 338 m 0
 700 140 547 -15 351 -15 c 0
 154 -15 0 141 0 338 c 0
 0 537 155 692 356 692 c 0
 546 692 700 533 700 338 c 0
657 338 m 0
 657 510 525 649 353 649 c 0
 182 649 43 510 43 338 c 0
 43 167 182 28 353 28 c 0
 525 28 657 167 657 338 c 0
EndSplineSet
Validated: 1
EndChar

StartChar: o
Encoding: 306 111 50
Width: 700
Flags: W
HStem: -15 43<245.975 461.681> 190 29<316.672 406.168> 433 29<297.002 393.67> 649 43<243.309 458.735>
VStem: 0 43<231.882 444.797> 205 61<265.389 401.984> 439 61<252.053 395.111> 657 43<224.011 451.738>
LayerCount: 2
Fore
SplineSet
500 328 m 0
 500 248 441 190 351 190 c 0
 268 190 205 247 205 326 c 0
 205 408 265 462 356 462 c 0
 438 462 500 409 500 328 c 0
439 314 m 0
 439 372 413 433 344 433 c 0
 299 433 266 403 266 352 c 0
 266 292 294 219 362 219 c 0
 409 219 439 254 439 314 c 0
700 338 m 0
 700 140 547 -15 351 -15 c 0
 154 -15 0 141 0 338 c 0
 0 537 155 692 356 692 c 0
 546 692 700 533 700 338 c 0
657 338 m 0
 657 510 525 649 353 649 c 0
 182 649 43 510 43 338 c 0
 43 167 182 28 353 28 c 0
 525 28 657 167 657 338 c 0
EndSplineSet
Validated: 1
EndChar

StartChar: p
Encoding: 307 112 51
Width: 700
Flags: W
HStem: -15 43<245.975 461.681> 144 21<195 237.235 308.931 361> 261 32<314.739 419.801> 486 29<199 216.673> 489 47<326.455 423.461> 649 43<243.309 458.735>
VStem: 0 43<231.882 444.797> 243 58<168.616 284 302.99 476.972> 452 60<327.882 460.235> 657 43<224.011 451.738>
LayerCount: 2
Fore
SplineSet
301 535 m 1xefc0
 301 492 l 1
 331 524 362 536 399 536 c 0xefc0
 465 536 512 484 512 410 c 0
 512 324 451 261 370 261 c 0
 343 261 320 269 301 284 c 1
 301 203 l 2
 301 172 310 166 361 165 c 1
 361 144 l 1
 195 144 l 1
 195 165 l 1
 236 168 243 173 243 197 c 2
 243 462 l 2
 243 483 239 488 217 488 c 0
 210 488 205 487 199 486 c 1
 199 515 l 1xf7c0
 234 523 262 524 295 536 c 1
 301 535 l 1xefc0
301 457 m 1
 301 325 l 1
 315 302 335 293 371 293 c 0
 420 293 452 328 452 387 c 0
 452 449 420 489 370 489 c 0
 340 489 315 478 301 457 c 1
700 338 m 0
 700 140 547 -15 351 -15 c 0
 154 -15 0 141 0 338 c 0
 0 537 155 692 356 692 c 0
 546 692 700 533 700 338 c 0
657 338 m 0
 657 510 525 649 353 649 c 0
 182 649 43 510 43 338 c 0
 43 167 182 28 353 28 c 0
 525 28 657 167 657 338 c 0
EndSplineSet
Validated: 1
EndChar

StartChar: q
Encoding: 308 113 52
Width: 700
Flags: W
HStem: -15 43<245.975 461.681> 144 21<350 400.712 471.797 510> 260 48<283.407 385.221> 507 29<296.192 396.129> 649 43<243.309 458.735>
VStem: 0 43<231.882 444.797> 195 60<337.446 466.338> 410 58<169.535 302 318.266 498.307> 657 43<224.011 451.738>
LayerCount: 2
Fore
SplineSet
510 144 m 1
 350 144 l 1
 350 165 l 1
 399 167 410 174 410 200 c 2
 410 302 l 1
 380 274 354 260 307 260 c 0
 243 260 195 311 195 387 c 0
 195 473 260 536 346 536 c 0
 371 536 391 532 423 516 c 1
 461 535 l 1
 468 535 l 1
 468 191 l 2
 468 172 474 168 510 165 c 1
 510 144 l 1
410 350 m 2
 410 457 l 2
 410 491 389 507 348 507 c 0
 292 507 255 471 255 407 c 0
 255 352 281 308 343 308 c 0
 370 308 410 318 410 350 c 2
700 338 m 0
 700 140 547 -15 351 -15 c 0
 154 -15 0 141 0 338 c 0
 0 537 155 692 356 692 c 0
 546 692 700 533 700 338 c 0
657 338 m 0
 657 510 525 649 353 649 c 0
 182 649 43 510 43 338 c 0
 43 167 182 28 353 28 c 0
 525 28 657 167 657 338 c 0
EndSplineSet
Validated: 1
EndChar

StartChar: r
Encoding: 309 114 53
Width: 700
Flags: W
HStem: -15 43<245.975 461.681> 190 21<241 282.5 356.649 405> 409 21<243 268.58> 414 48<379.101 451.031> 649 43<243.309 458.735>
VStem: 0 43<231.882 444.797> 291 57<216.446 403.969 408 409.995> 657 43<224.011 451.738>
LayerCount: 2
Fore
SplineSet
348 408 m 1xdf
 349 408 l 1
 383 449 401 462 428 462 c 0
 452 462 468 448 468 425 c 0
 468 406 455 393 438 393 c 0
 415 393 413 414 394 414 c 0xdf
 375 414 348 389 348 374 c 2
 348 246 l 2
 348 220 360 212 405 211 c 1
 405 190 l 1
 241 190 l 1
 241 211 l 1
 285 218 291 221 291 242 c 2
 291 383 l 2
 291 403 284 410 269 410 c 0
 260 410 254 410 243 409 c 1
 243 430 l 1xef
 283 441 309 450 344 462 c 1
 348 460 l 1
 348 408 l 1xdf
700 338 m 0
 700 140 547 -15 351 -15 c 0
 154 -15 0 141 0 338 c 0
 0 537 155 692 356 692 c 0
 546 692 700 533 700 338 c 0
657 338 m 0
 657 510 525 649 353 649 c 0
 182 649 43 510 43 338 c 0
 43 167 182 28 353 28 c 0
 525 28 657 167 657 338 c 0
EndSplineSet
Validated: 1
EndChar

StartChar: s
Encoding: 310 115 54
Width: 700
Flags: W
HStem: -15 43<245.975 461.681> 190 25<305.176 391.508> 436 26<305.876 388.338> 649 43<243.309 458.735>
VStem: 0 43<231.882 444.797> 253 45<377.475 431.732> 256 20<250.656 292> 403 49<220.743 275.808> 411 21<368 407.377> 657 43<224.011 451.738>
LayerCount: 2
Fore
SplineSet
432 368 m 1xf8c0
 411 368 l 1
 406 418 385 436 346 436 c 0
 318 436 298 426 298 405 c 0xfcc0
 298 395 308 383 325 374 c 0
 347 362 371 351 394 339 c 0
 436 315 452 301 452 265 c 0
 452 225 410 190 359 190 c 0
 346 190 326 190 311 194 c 0
 296 199 287 199 280 199 c 0
 272 199 268 198 265 193 c 1
 256 193 l 1
 256 292 l 1
 276 292 l 1xfb40
 280 239 305 215 351 215 c 0
 383 215 403 230 403 249 c 0
 403 263 390 274 335 301 c 0
 278 328 253 354 253 387 c 0
 253 434 291 462 347 462 c 0
 375 462 387 451 403 451 c 0xfd40
 407 451 410 451 414 456 c 1
 429 456 l 1
 432 368 l 1xf8c0
700 338 m 0
 700 140 547 -15 351 -15 c 0
 154 -15 0 141 0 338 c 0
 0 537 155 692 356 692 c 0
 546 692 700 533 700 338 c 0
657 338 m 0
 657 510 525 649 353 649 c 0
 182 649 43 510 43 338 c 0
 43 167 182 28 353 28 c 0
 525 28 657 167 657 338 c 0
EndSplineSet
Validated: 1
EndChar

StartChar: t
Encoding: 311 116 55
Width: 700
Flags: W
HStem: -15 43<245.975 461.681> 136 47<353.826 417.858> 411 33<349 427> 649 43<243.309 458.735>
VStem: 0 43<231.882 444.797> 248 109<424 520> 292 57<186.545 411> 657 43<224.011 451.738>
LayerCount: 2
Fore
SplineSet
437 206 m 1xfb
 451 192 l 1
 420 151 389 136 358 136 c 0
 317 136 292 161 292 221 c 2
 292 411 l 1xfb
 257 411 l 2
 253 411 248 418 248 424 c 0
 248 431 253 437 261 442 c 0
 280 454 307 483 328 516 c 0
 333 523 343 536 351 536 c 0
 355 536 357 532 357 520 c 2xfd
 349 444 l 1
 427 444 l 1
 427 411 l 1
 349 411 l 1
 349 236 l 2
 349 200 360 183 386 183 c 0
 404 183 420 189 437 206 c 1xfb
700 338 m 0
 700 140 547 -15 351 -15 c 0
 154 -15 0 141 0 338 c 0
 0 537 155 692 356 692 c 0
 546 692 700 533 700 338 c 0
657 338 m 0
 657 510 525 649 353 649 c 0
 182 649 43 510 43 338 c 0
 43 167 182 28 353 28 c 0
 525 28 657 167 657 338 c 0
EndSplineSet
Validated: 1
EndChar

StartChar: u
Encoding: 312 117 56
Width: 700
Flags: W
HStem: -15 43<245.975 461.681> 190 44<299.197 380.743> 218 19<473.652 512> 440 21<194 230.244 362 406.727> 649 43<243.309 458.735>
VStem: 0 43<231.882 444.797> 236 58<240.888 437.562> 412 58<247.547 437.245> 657 43<224.011 451.738>
LayerCount: 2
Fore
SplineSet
512 237 m 1xbf80
 512 218 l 1xbf80
 478 211 452 203 421 190 c 1
 415 193 l 1
 415 240 l 1
 380 203 343 190 318 190 c 0
 265 190 236 223 236 269 c 2
 236 410 l 2
 236 432 226 438 194 440 c 1
 194 461 l 1
 294 461 l 1
 294 274 l 2
 294 252 315 234 341 234 c 0xdf80
 368 234 412 249 412 279 c 2
 412 411 l 2
 412 434 402 438 362 440 c 1
 362 461 l 1
 470 461 l 1
 470 264 l 2
 470 246 475 237 495 237 c 2
 512 237 l 1xbf80
700 338 m 0
 700 140 547 -15 351 -15 c 0
 154 -15 0 141 0 338 c 0
 0 537 155 692 356 692 c 0
 546 692 700 533 700 338 c 0
657 338 m 0
 657 510 525 649 353 649 c 0
 182 649 43 510 43 338 c 0
 43 167 182 28 353 28 c 0
 525 28 657 167 657 338 c 0
EndSplineSet
Validated: 1
EndChar

StartChar: v
Encoding: 313 118 57
Width: 700
Flags: W
HStem: -15 43<245.975 461.681> 440 21<199 228.703 302.005 333 410 440.736 481.112 508> 649 43<243.309 458.735>
VStem: 0 43<231.882 444.797> 657 43<224.011 451.738>
LayerCount: 2
Fore
SplineSet
508 461 m 1
 508 440 l 1
 485 438 480 434 464 400 c 2
 379 223 l 2
 367 199 362 190 359 190 c 0
 355 190 349 204 343 216 c 2
 260 381 l 2
 233 433 226 438 199 440 c 1
 199 461 l 1
 333 461 l 1
 333 440 l 1
 309 438 302 435 302 431 c 0
 302 428 304 422 308 413 c 2
 374 274 l 1
 375 274 l 1
 437 411 l 2
 439 417 441 422 441 428 c 0
 441 434 431 438 410 440 c 1
 410 461 l 1
 508 461 l 1
700 338 m 0
 700 140 547 -15 351 -15 c 0
 154 -15 0 141 0 338 c 0
 0 537 155 692 356 692 c 0
 546 692 700 533 700 338 c 0
657 338 m 0
 657 510 525 649 353 649 c 0
 182 649 43 510 43 338 c 0
 43 167 182 28 353 28 c 0
 525 28 657 167 657 338 c 0
EndSplineSet
Validated: 1
EndChar

StartChar: w
Encoding: 314 119 58
Width: 700
Flags: W
HStem: -15 43<245.975 461.681> 440 21<126 149.617 218.018 248 286 317.621 386.223 425 490 520.329 559.404 580> 649 43<243.309 458.735>
VStem: 0 43<231.882 444.797> 657 43<224.011 451.738>
LayerCount: 2
Fore
SplineSet
580 461 m 1
 580 440 l 1
 568 439 557 431 550 415 c 2
 460 223 l 2
 450 204 445 190 439 190 c 0
 435 190 430 200 422 218 c 2
 361 346 l 1
 287 216 l 2
 278 199 272 190 268 190 c 0
 264 190 260 199 251 218 c 2
 161 410 l 2
 148 436 143 439 126 440 c 1
 126 461 l 1
 248 461 l 1
 248 440 l 1
 224 438 218 435 218 429 c 0
 218 426 219 422 222 415 c 2
 286 271 l 1
 345 379 l 1
 333 406 l 2
 321 432 313 438 286 440 c 1
 286 461 l 1
 425 461 l 1
 425 440 l 1
 394 438 386 434 386 428 c 0
 386 425 387 421 390 414 c 2
 453 274 l 1
 455 274 l 1
 514 404 l 2
 517 413 521 421 521 426 c 0
 521 433 514 439 490 440 c 1
 490 461 l 1
 580 461 l 1
700 338 m 0
 700 140 547 -15 351 -15 c 0
 154 -15 0 141 0 338 c 0
 0 537 155 692 356 692 c 0
 546 692 700 533 700 338 c 0
657 338 m 0
 657 510 525 649 353 649 c 0
 182 649 43 510 43 338 c 0
 43 167 182 28 353 28 c 0
 525 28 657 167 657 338 c 0
EndSplineSet
Validated: 1
EndChar

StartChar: x
Encoding: 315 120 59
Width: 700
Flags: W
HStem: -15 43<245.975 461.681> 190 21<193 228.068 271.004 296 371 400.995 477.167 514> 440 21<197 237.985 314.006 343 370 397.996 439.928 482> 649 43<243.309 458.735>
VStem: 0 43<231.882 444.797> 657 43<224.011 451.738>
LayerCount: 2
Fore
SplineSet
514 190 m 1
 371 190 l 1
 371 211 l 1
 394 212 401 213 401 217 c 0
 401 219 400 221 397 225 c 2
 336 305 l 1
 279 231 l 2
 273 224 271 220 271 217 c 0
 271 214 276 212 296 211 c 1
 296 190 l 1
 193 190 l 1
 193 211 l 1
 220 213 226 216 243 237 c 2
 317 331 l 1
 258 408 l 2
 239 433 227 440 206 440 c 2
 197 440 l 1
 197 461 l 1
 343 461 l 1
 343 440 l 1
 322 439 314 437 314 433 c 0
 314 430 320 421 332 406 c 2
 354 377 l 1
 372 400 l 2
 388 421 398 430 398 434 c 0
 398 438 392 439 370 440 c 1
 370 461 l 1
 482 461 l 1
 482 440 l 1
 457 439 436 431 426 418 c 2
 372 351 l 1
 456 242 l 2
 472 222 488 211 506 211 c 2
 514 211 l 1
 514 190 l 1
700 338 m 0
 700 140 547 -15 351 -15 c 0
 154 -15 0 141 0 338 c 0
 0 537 155 692 356 692 c 0
 546 692 700 533 700 338 c 0
657 338 m 0
 657 510 525 649 353 649 c 0
 182 649 43 510 43 338 c 0
 43 167 182 28 353 28 c 0
 525 28 657 167 657 338 c 0
EndSplineSet
Validated: 1
EndChar

StartChar: y
Encoding: 316 121 60
Width: 700
Flags: W
HStem: -15 43<245.975 461.681> 137 62<223.277 312.371> 516 20<192 222.927 297.007 336 419 448.993 488.144 512> 649 43<243.309 458.735>
VStem: 0 43<231.882 444.797> 657 43<224.011 451.738>
LayerCount: 2
Fore
SplineSet
512 536 m 1
 512 516 l 1
 493 513 485 507 478 490 c 2
 375 255 l 2
 337 170 304 137 253 137 c 0
 221 137 204 154 204 178 c 0
 204 196 220 211 237 211 c 0
 261 211 267 199 284 199 c 0
 299 199 310 212 321 224 c 0
 335 240 348 272 348 279 c 0
 348 286 333 313 322 332 c 2
 229 499 l 2
 224 509 211 513 192 516 c 1
 192 536 l 1
 336 536 l 1
 336 516 l 1
 306 514 297 512 297 506 c 0
 297 504 300 494 305 486 c 2
 382 345 l 1
 443 491 l 2
 445 495 449 515 449 515 c 2
 449 520 439 516 419 516 c 1
 419 536 l 1
 512 536 l 1
700 338 m 0
 700 140 547 -15 351 -15 c 0
 154 -15 0 141 0 338 c 0
 0 537 155 692 356 692 c 0
 546 692 700 533 700 338 c 0
657 338 m 0
 657 510 525 649 353 649 c 0
 182 649 43 510 43 338 c 0
 43 167 182 28 353 28 c 0
 525 28 657 167 657 338 c 0
EndSplineSet
Validated: 1
EndChar

StartChar: z
Encoding: 317 122 61
Width: 700
Flags: W
HStem: -15 43<245.975 461.681> 190 31<300 446.613> 430 31<265.999 394> 649 43<243.309 458.735>
VStem: 0 43<231.882 444.797> 234 22<380 415.667> 468 21<248.839 281> 657 43<224.011 451.738>
LayerCount: 2
Fore
SplineSet
489 281 m 1
 476 190 l 1
 217 190 l 1
 217 209 l 1
 394 430 l 1
 315 430 l 2
 273 430 260 421 256 380 c 1
 234 380 l 1
 237 461 l 1
 477 461 l 1
 477 441 l 1
 300 221 l 1
 376 221 l 2
 414 221 439 226 447 234 c 0
 457 244 461 253 468 281 c 1
 489 281 l 1
700 338 m 0
 700 140 547 -15 351 -15 c 0
 154 -15 0 141 0 338 c 0
 0 537 155 692 356 692 c 0
 546 692 700 533 700 338 c 0
657 338 m 0
 657 510 525 649 353 649 c 0
 182 649 43 510 43 338 c 0
 43 167 182 28 353 28 c 0
 525 28 657 167 657 338 c 0
EndSplineSet
Validated: 1
EndChar

StartChar: uni2010
Encoding: 319 8208 63
Width: 315
Flags: W
HStem: 218 65<45 270>
VStem: 45 225<218 283>
LayerCount: 2
Fore
SplineSet
270 218 m 1
 45 218 l 1
 45 283 l 1
 270 283 l 1
 270 218 l 1
EndSplineSet
Validated: 1
EndChar

StartChar: uni2011
Encoding: 320 8209 64
Width: 315
Flags: W
HStem: 218 65<45 270>
VStem: 45 225<218 283>
LayerCount: 2
Fore
SplineSet
270 218 m 1
 45 218 l 1
 45 283 l 1
 270 283 l 1
 270 218 l 1
EndSplineSet
Validated: 1
EndChar

StartChar: figuredash
Encoding: 321 8210 65
Width: 495
Flags: W
HStem: 222 57<30 465>
LayerCount: 2
Fore
SplineSet
465 222 m 1
 30 222 l 1
 30 279 l 1
 465 279 l 1
 465 222 l 1
EndSplineSet
Validated: 1
EndChar

StartChar: endash
Encoding: 322 8211 66
Width: 500
Flags: W
HStem: 222 57<30 470>
LayerCount: 2
Fore
SplineSet
470 222 m 1
 30 222 l 1
 30 279 l 1
 470 279 l 1
 470 222 l 1
EndSplineSet
Validated: 1
EndChar

StartChar: emdash
Encoding: 323 8212 67
Width: 1000
Flags: W
HStem: 222 57<30 970>
LayerCount: 2
Fore
SplineSet
970 222 m 1
 30 222 l 1
 30 279 l 1
 970 279 l 1
 970 222 l 1
EndSplineSet
Validated: 1
EndChar

StartChar: uni2015
Encoding: 324 8213 68
Width: 940
Flags: W
HStem: 222 57<0 940>
LayerCount: 2
Fore
SplineSet
940 222 m 1
 0 222 l 1
 0 279 l 1
 940 279 l 1
 940 222 l 1
EndSplineSet
Validated: 1
EndChar

StartChar: uni2460
Encoding: 325 9312 69
Width: 700
Flags: W
HStem: -15 43<245.975 461.681> 144 21<266 314 390.058 445> 649 43<243.309 458.735>
VStem: 0 43<231.882 444.797> 326 58<170.627 468.996> 657 43<224.011 451.738>
LayerCount: 2
Fore
SplineSet
445 144 m 1
 266 144 l 1
 266 165 l 1
 314 167 326 177 326 203 c 2
 326 448 l 2
 326 463 321 469 310 469 c 0
 304 469 292 468 280 464 c 2
 262 456 l 1
 262 477 l 1
 378 529 l 1
 384 527 l 1
 384 192 l 2
 384 172 397 165 445 165 c 1
 445 144 l 1
700 338 m 0
 700 140 547 -15 351 -15 c 0
 154 -15 0 141 0 338 c 0
 0 537 155 692 356 692 c 0
 546 692 700 533 700 338 c 0
657 338 m 0
 657 510 525 649 353 649 c 0
 182 649 43 510 43 338 c 0
 43 167 182 28 353 28 c 0
 525 28 657 167 657 338 c 0
EndSplineSet
Validated: 1
EndChar

StartChar: uni2461
Encoding: 326 9313 70
Width: 700
Flags: W
HStem: -15 43<245.975 461.681> 144 55<287 460> 474 55<269.091 385.027> 649 43<243.309 458.735>
VStem: 0 43<231.882 444.797> 206 19<399.421 411.943> 406 58<348.606 452.994> 657 43<224.011 451.738>
LayerCount: 2
Fore
SplineSet
502 232 m 1
 460 144 l 1
 207 144 l 1
 207 164 l 1
 321 261 l 2
 384 314 406 357 406 402 c 0
 406 448 371 474 317 474 c 0
 270 474 252 450 225 395 c 1
 206 402 l 1
 222 475 264 529 344 529 c 0
 418 529 464 483 464 424 c 0
 464 376 440 329 382 279 c 2
 287 199 l 1
 420 199 l 2
 447 199 461 209 481 239 c 1
 502 232 l 1
700 338 m 0
 700 140 547 -15 351 -15 c 0
 154 -15 0 141 0 338 c 0
 0 537 155 692 356 692 c 0
 546 692 700 533 700 338 c 0
657 338 m 0
 657 510 525 649 353 649 c 0
 182 649 43 510 43 338 c 0
 43 167 182 28 353 28 c 0
 525 28 657 167 657 338 c 0
EndSplineSet
Validated: 1
EndChar

StartChar: uni2462
Encoding: 327 9314 71
Width: 700
Flags: W
HStem: -15 43<245.975 461.681> 137 34<293.71 392.102> 321 22<299 335.536> 482 47<284.306 396.483> 649 43<243.309 458.735>
VStem: 0 43<231.882 444.797> 405 54<393.807 471.907> 433 48<203.673 297.026> 657 43<224.011 451.738>
LayerCount: 2
Fore
SplineSet
246 421 m 1xfe80
 225 427 l 1
 248 487 290 529 357 529 c 0
 419 529 459 495 459 446 c 0xfe80
 459 420 445 393 409 370 c 1
 453 354 481 324 481 272 c 0
 481 177 387 137 300 137 c 0
 252 137 226 152 226 176 c 0
 226 192 238 204 255 204 c 0
 264 204 274 199 295 187 c 0
 317 174 331 171 349 171 c 0
 395 171 433 204 433 248 c 0xfd80
 433 285 410 308 366 317 c 0
 351 320 338 321 299 321 c 1
 299 343 l 1
 329 351 346 357 355 361 c 0
 387 377 405 400 405 432 c 0
 405 466 379 482 338 482 c 0
 295 482 270 462 246 421 c 1xfe80
700 338 m 0
 700 140 547 -15 351 -15 c 0
 154 -15 0 141 0 338 c 0
 0 537 155 692 356 692 c 0
 546 692 700 533 700 338 c 0
657 338 m 0
 657 510 525 649 353 649 c 0
 182 649 43 510 43 338 c 0
 43 167 182 28 353 28 c 0
 525 28 657 167 657 338 c 0
EndSplineSet
Validated: 1
EndChar

StartChar: uni2463
Encoding: 328 9315 72
Width: 700
Flags: W
HStem: -15 43<245.975 461.681> 233 49<208 353 410 475> 649 43<243.309 458.735>
VStem: 0 43<231.882 444.797> 353 57<144 233 282 457> 657 43<224.011 451.738>
LayerCount: 2
Fore
SplineSet
475 233 m 1
 410 233 l 1
 410 144 l 1
 353 144 l 1
 353 233 l 1
 171 233 l 1
 171 279 l 1
 377 529 l 1
 410 529 l 1
 410 282 l 1
 475 282 l 1
 475 233 l 1
353 282 m 1
 353 457 l 1
 208 282 l 1
 353 282 l 1
700 338 m 0
 700 140 547 -15 351 -15 c 0
 154 -15 0 141 0 338 c 0
 0 537 155 692 356 692 c 0
 546 692 700 533 700 338 c 0
657 338 m 0
 657 510 525 649 353 649 c 0
 182 649 43 510 43 338 c 0
 43 167 182 28 353 28 c 0
 525 28 657 167 657 338 c 0
EndSplineSet
Validated: 1
EndChar

StartChar: uni2464
Encoding: 329 9316 73
Width: 700
Flags: W
HStem: -15 43<245.975 461.681> 137 35<283.921 378.054> 471 58<305 453.818> 649 43<243.309 458.735>
VStem: 0 43<231.882 444.797> 418 47<207.546 318.498> 657 43<224.011 451.738>
LayerCount: 2
Fore
SplineSet
475 534 m 1
 449 483 l 2
 445 475 440 471 428 471 c 2
 305 471 l 1
 284 437 l 1
 390 418 465 391 465 287 c 0
 465 187 386 137 291 137 c 0
 240 137 208 151 208 176 c 0
 208 194 218 207 238 207 c 0
 255 207 263 204 286 188 c 0
 303 177 317 172 332 172 c 0
 377 172 418 215 418 260 c 0
 418 343 323 376 238 376 c 0
 230 376 227 378 227 386 c 0
 227 390 229 393 230 395 c 2
 302 529 l 1
 427 529 l 2
 443 529 448 534 456 545 c 1
 475 534 l 1
700 338 m 0
 700 140 547 -15 351 -15 c 0
 154 -15 0 141 0 338 c 0
 0 537 155 692 356 692 c 0
 546 692 700 533 700 338 c 0
657 338 m 0
 657 510 525 649 353 649 c 0
 182 649 43 510 43 338 c 0
 43 167 182 28 353 28 c 0
 525 28 657 167 657 338 c 0
EndSplineSet
Validated: 1
EndChar

StartChar: uni2465
Encoding: 330 9317 74
Width: 700
Flags: W
HStem: -15 43<245.975 461.681> 137 30<300.391 392.129> 354 38<284.801 388.64> 504 25<410.694 463> 649 43<243.309 458.735>
VStem: 0 43<231.882 444.797> 190 67<209.701 338.443> 415 62<195.224 328.889> 657 43<224.011 451.738>
LayerCount: 2
Fore
SplineSet
463 529 m 1
 463 504 l 1
 364 488 296 443 276 368 c 1
 308 388 329 392 355 392 c 0
 432 392 477 345 477 269 c 0
 477 192 418 137 342 137 c 0
 251 137 190 204 190 291 c 0
 190 354 221 414 265 455 c 0
 323 508 375 521 463 529 c 1
415 251 m 0
 415 318 390 354 333 354 c 0
 295 354 257 340 257 294 c 0
 257 214 289 167 349 167 c 0
 394 167 415 197 415 251 c 0
700 338 m 0
 700 140 547 -15 351 -15 c 0
 154 -15 0 141 0 338 c 0
 0 537 155 692 356 692 c 0
 546 692 700 533 700 338 c 0
657 338 m 0
 657 510 525 649 353 649 c 0
 182 649 43 510 43 338 c 0
 43 167 182 28 353 28 c 0
 525 28 657 167 657 338 c 0
EndSplineSet
Validated: 1
EndChar

StartChar: uni2466
Encoding: 331 9318 75
Width: 700
Flags: W
HStem: -15 43<245.975 461.681> 472 57<242 424> 649 43<243.309 458.735>
VStem: 0 43<231.882 444.797> 657 43<224.011 451.738>
LayerCount: 2
Fore
SplineSet
483 512 m 1
 344 137 l 1
 297 137 l 1
 424 472 l 1
 292 472 l 2
 254 472 242 463 216 426 c 1
 197 435 l 1
 242 529 l 1
 483 529 l 1
 483 512 l 1
700 338 m 0
 700 140 547 -15 351 -15 c 0
 154 -15 0 141 0 338 c 0
 0 537 155 692 356 692 c 0
 546 692 700 533 700 338 c 0
657 338 m 0
 657 510 525 649 353 649 c 0
 182 649 43 510 43 338 c 0
 43 167 182 28 353 28 c 0
 525 28 657 167 657 338 c 0
EndSplineSet
Validated: 1
EndChar

StartChar: uni2467
Encoding: 332 9319 76
Width: 700
Flags: W
HStem: -15 43<245.975 461.681> 137 30<301.278 410.923> 499 30<295.929 398.791> 649 43<243.309 458.735>
VStem: 0 43<231.882 444.797> 222 55<184.414 286.89> 229 50<408.817 486.829> 419 47<396.439 485.639> 428 57<178.646 263.872> 657 43<224.011 451.738>
LayerCount: 2
Fore
SplineSet
485 237 m 0xf8c0
 485 176 429 137 350 137 c 0
 276 137 222 168 222 224 c 0xfcc0
 222 264 239 296 301 334 c 1
 242 378 229 396 229 436 c 0
 229 492 282 529 356 529 c 0
 421 529 466 493 466 448 c 0xfb40
 466 404 445 382 389 355 c 1
 460 312 485 283 485 237 c 0xf8c0
419 442 m 0xfb40
 419 477 393 499 350 499 c 0
 308 499 279 482 279 451 c 0
 279 421 304 400 359 371 c 1
 401 394 419 411 419 442 c 0xfb40
365 295 m 2
 328 316 l 1
 290 290 277 267 277 235 c 0
 277 187 310 167 358 167 c 0
 398 167 428 184 428 216 c 0xfcc0
 428 246 408 270 365 295 c 2
700 338 m 0
 700 140 547 -15 351 -15 c 0
 154 -15 0 141 0 338 c 0
 0 537 155 692 356 692 c 0
 546 692 700 533 700 338 c 0
657 338 m 0
 657 510 525 649 353 649 c 0
 182 649 43 510 43 338 c 0
 43 167 182 28 353 28 c 0
 525 28 657 167 657 338 c 0
EndSplineSet
Validated: 1
EndChar

StartChar: uni2468
Encoding: 333 9320 77
Width: 700
Flags: W
HStem: -15 43<245.975 461.681> 137 26<234 287.839> 270 38<305.117 408.769> 499 30<303.208 393.164> 649 43<243.309 458.735>
VStem: 0 43<231.882 444.797> 214 61<335.55 468.911> 427 66<317.196 454.439> 657 43<224.011 451.738>
LayerCount: 2
Fore
SplineSet
234 137 m 1
 234 163 l 1
 328 177 395 217 423 299 c 1
 396 277 365 270 331 270 c 0
 260 270 214 318 214 391 c 0
 214 470 270 529 349 529 c 0
 443 529 493 451 493 364 c 0
 493 298 467 242 414 201 c 0
 359 157 315 147 234 137 c 1
427 341 m 2
 427 376 l 2
 427 466 399 499 344 499 c 0
 296 499 275 456 275 409 c 0
 275 347 306 308 353 308 c 0
 382 308 427 316 427 341 c 2
700 338 m 0
 700 140 547 -15 351 -15 c 0
 154 -15 0 141 0 338 c 0
 0 537 155 692 356 692 c 0
 546 692 700 533 700 338 c 0
657 338 m 0
 657 510 525 649 353 649 c 0
 182 649 43 510 43 338 c 0
 43 167 182 28 353 28 c 0
 525 28 657 167 657 338 c 0
EndSplineSet
Validated: 1
EndChar

StartChar: uni24B6
Encoding: 334 9398 78
Width: 700
Flags: W
HStem: -15 43<245.975 461.681> 144 24<149 180.514 229.829 268 406 444.782 525.477 557> 262 38<275 398> 649 43<243.309 458.735>
VStem: 0 43<231.882 444.797> 657 43<224.011 451.738>
LayerCount: 2
Fore
SplineSet
557 144 m 1
 406 144 l 1
 406 168 l 1
 426 169 445 170 445 182 c 0
 445 190 443 203 436 216 c 2
 412 262 l 1
 261 262 l 1
 234 206 l 2
 231 198 229 189 229 185 c 0
 229 172 240 168 268 168 c 1
 268 144 l 1
 149 144 l 1
 149 168 l 1
 185 172 190 183 223 258 c 2
 346 536 l 1
 355 536 l 1
 503 216 l 2
 518 183 526 172 557 168 c 1
 557 144 l 1
398 300 m 1
 337 440 l 1
 336 440 l 1
 275 300 l 1
 398 300 l 1
700 338 m 0
 700 140 547 -15 351 -15 c 0
 154 -15 0 141 0 338 c 0
 0 537 155 692 356 692 c 0
 546 692 700 533 700 338 c 0
657 338 m 0
 657 510 525 649 353 649 c 0
 182 649 43 510 43 338 c 0
 43 167 182 28 353 28 c 0
 525 28 657 167 657 338 c 0
EndSplineSet
Validated: 1
EndChar

StartChar: uni24B7
Encoding: 335 9399 79
Width: 700
Flags: W
HStem: -15 43<245.975 461.681> 144 35<298.007 427.399> 144 24<174 220.152> 324 38<298 420.815> 494 35<298 413.813> 506 23<174 219.365> 649 43<243.309 458.735>
VStem: 0 43<231.882 444.797> 226 72<179.736 324 362 493.807> 439 72<377.472 473.688> 454 82<200.969 302.276> 657 43<224.011 451.738>
LayerCount: 2
Fore
SplineSet
174 529 m 1xb7b0
 348 529 l 2
 455 529 511 492 511 429 c 0x9bd0
 511 387 488 358 452 347 c 1
 497 333 536 302 536 251 c 0
 536 185 473 144 384 144 c 2xdbb0
 174 144 l 1
 174 168 l 1
 223 169 226 177 226 215 c 2
 226 460 l 2
 226 497 224 503 174 506 c 1
 174 529 l 1xb7b0
298 362 m 1
 353 362 l 2
 415 362 439 384 439 426 c 0
 439 469 410 494 337 494 c 2
 311 494 l 2
 302 494 298 491 298 484 c 2
 298 362 l 1
298 324 m 1
 298 197 l 2
 298 183 308 179 336 179 c 0
 399 179 454 187 454 252 c 0xd3b0
 454 322 386 324 320 324 c 2
 298 324 l 1
700 338 m 0
 700 140 547 -15 351 -15 c 0
 154 -15 0 141 0 338 c 0
 0 537 155 692 356 692 c 0
 546 692 700 533 700 338 c 0
657 338 m 0
 657 510 525 649 353 649 c 0
 182 649 43 510 43 338 c 0
 43 167 182 28 353 28 c 0
 525 28 657 167 657 338 c 0
EndSplineSet
Validated: 1
EndChar

StartChar: uni24B8
Encoding: 336 9400 80
Width: 700
Flags: W
HStem: -15 43<245.975 461.681> 137 38<309.259 470.882> 500 36<306.008 457.165> 649 43<243.309 458.735>
VStem: 0 43<231.882 444.797> 149 79<249.817 423.425> 521 22<396 427.145> 657 43<224.011 451.738>
LayerCount: 2
Fore
SplineSet
539 231 m 1
 557 217 l 1
 514 165 447 137 370 137 c 0
 249 137 149 208 149 334 c 0
 149 459 254 536 370 536 c 0
 402 536 431 532 462 525 c 0
 473 522 487 519 495 519 c 0
 508 519 520 525 524 536 c 1
 538 536 l 1
 543 396 l 1
 521 396 l 1
 506 461 453 500 386 500 c 0
 287 500 228 436 228 343 c 0
 228 236 289 175 393 175 c 0
 452 175 489 192 539 231 c 1
700 338 m 0
 700 140 547 -15 351 -15 c 0
 154 -15 0 141 0 338 c 0
 0 537 155 692 356 692 c 0
 546 692 700 533 700 338 c 0
657 338 m 0
 657 510 525 649 353 649 c 0
 182 649 43 510 43 338 c 0
 43 167 182 28 353 28 c 0
 525 28 657 167 657 338 c 0
EndSplineSet
Validated: 1
EndChar

StartChar: uni24B9
Encoding: 337 9401 81
Width: 700
Flags: W
HStem: -15 43<245.975 461.681> 144 35<265.009 397.52> 144 24<141 187.244> 494 35<265 395.334> 506 23<141 187.75> 649 43<243.309 458.735>
VStem: 0 43<231.882 444.797> 193 72<179.657 493.919> 478 80<248.229 426.279> 657 43<224.011 451.738>
LayerCount: 2
Fore
SplineSet
141 529 m 1xafc0
 313 529 l 2
 446 529 558 487 558 341 c 0
 558 219 471 144 320 144 c 2xd7c0
 141 144 l 1
 141 168 l 1
 187 170 193 174 193 212 c 2
 193 464 l 2
 193 502 187 503 141 506 c 1
 141 529 l 1xafc0
265 479 m 2
 265 197 l 2
 265 183 277 179 300 179 c 0
 403 179 476 215 478 338 c 0
 478 461 396 494 287 494 c 0
 265 494 265 492 265 479 c 2
700 338 m 0
 700 140 547 -15 351 -15 c 0
 154 -15 0 141 0 338 c 0
 0 537 155 692 356 692 c 0
 546 692 700 533 700 338 c 0
657 338 m 0
 657 510 525 649 353 649 c 0
 182 649 43 510 43 338 c 0
 43 167 182 28 353 28 c 0
 525 28 657 167 657 338 c 0
EndSplineSet
Validated: 1
EndChar

StartChar: uni24BA
Encoding: 338 9402 82
Width: 700
Flags: W
HStem: -15 43<245.975 461.681> 144 35<290.009 468.917> 144 24<166 212.244> 324 38<290 432.739> 494 35<290 461.564> 506 23<166 211.385> 649 43<243.309 458.735>
VStem: 0 43<231.882 444.797> 218 72<180.082 324 362 493.997> 440 23<274 312.647 374.199 412> 478 22<433 467.952> 657 43<224.011 451.738>
LayerCount: 2
Fore
SplineSet
532 253 m 1xdbf0
 500 144 l 1
 166 144 l 1
 166 168 l 1
 212 169 218 174 218 212 c 2
 218 464 l 2
 218 499 211 503 166 506 c 1
 166 529 l 1
 496 529 l 1xb7f0
 500 433 l 1
 478 433 l 1
 469 483 456 494 387 494 c 2
 309 494 l 2
 294 494 290 494 290 482 c 2
 290 362 l 1
 375 362 l 2
 427 362 434 368 440 412 c 1
 463 412 l 1
 463 274 l 1
 440 274 l 1
 434 320 427 324 375 324 c 2
 290 324 l 1
 290 197 l 2
 290 184 302 179 322 179 c 2
 375 179 l 2
 461 179 484 193 512 253 c 1
 532 253 l 1xdbf0
700 338 m 0
 700 140 547 -15 351 -15 c 0
 154 -15 0 141 0 338 c 0
 0 537 155 692 356 692 c 0
 546 692 700 533 700 338 c 0
657 338 m 0
 657 510 525 649 353 649 c 0
 182 649 43 510 43 338 c 0
 43 167 182 28 353 28 c 0
 525 28 657 167 657 338 c 0
EndSplineSet
Validated: 1
EndChar

StartChar: uni24BB
Encoding: 339 9403 83
Width: 700
Flags: W
HStem: -15 43<245.975 461.681> 144 24<166 212.677 298.902 357> 324 38<290 444.88> 494 35<290 481.815> 506 23<166 211.125> 649 43<243.309 458.735>
VStem: 0 43<231.882 444.797> 218 72<173.465 324 362 493.687> 452 23<274 312.647 374.199 412> 498 23<433 469.304> 657 43<224.011 451.738>
LayerCount: 2
Fore
SplineSet
521 433 m 1xefe0
 498 433 l 1
 488 483 479 494 404 494 c 2
 311 494 l 2xf7e0
 293 494 290 493 290 482 c 2
 290 362 l 1
 385 362 l 2
 440 362 446 368 452 412 c 1
 475 412 l 1
 475 274 l 1
 452 274 l 1
 446 320 440 324 385 324 c 2
 290 324 l 1
 290 207 l 2
 290 174 305 171 357 168 c 1
 357 144 l 1
 166 144 l 1
 166 168 l 1
 215 170 218 174 218 217 c 2
 218 460 l 2
 218 495 217 503 166 506 c 1
 166 529 l 1
 517 529 l 1
 521 433 l 1xefe0
700 338 m 0
 700 140 547 -15 351 -15 c 0
 154 -15 0 141 0 338 c 0
 0 537 155 692 356 692 c 0
 546 692 700 533 700 338 c 0
657 338 m 0
 657 510 525 649 353 649 c 0
 182 649 43 510 43 338 c 0
 43 167 182 28 353 28 c 0
 525 28 657 167 657 338 c 0
EndSplineSet
Validated: 1
EndChar

StartChar: uni24BC
Encoding: 340 9404 84
Width: 700
Flags: W
HStem: -15 43<245.975 461.681> 137 38<306.211 460.289> 332 23<412 457.44 539.623 576> 500 36<307.739 447.552> 649 43<243.309 458.735>
VStem: 0 43<231.882 444.797> 149 79<248.463 422.752> 465 69<182.436 327.76> 504 22<405 432.423> 657 43<224.011 451.738>
LayerCount: 2
Fore
SplineSet
576 355 m 1xff40
 576 332 l 1
 542 329 534 325 534 295 c 2
 534 178 l 1xff40
 500 151 431 137 369 137 c 0
 242 137 149 213 149 335 c 0
 149 457 253 536 371 536 c 0
 395 536 421 530 446 524 c 0
 457 521 468 519 476 519 c 0
 488 519 498 526 503 536 c 1
 521 536 l 1
 526 405 l 1
 504 405 l 1xfec0
 493 440 481 454 462 472 c 0
 441 490 411 500 383 500 c 0
 304 500 228 450 228 342 c 0
 228 235 290 175 393 175 c 0
 439 175 465 188 465 203 c 2
 465 287 l 2
 465 325 459 328 412 332 c 1
 412 355 l 1
 576 355 l 1xff40
700 338 m 0
 700 140 547 -15 351 -15 c 0
 154 -15 0 141 0 338 c 0
 0 537 155 692 356 692 c 0
 546 692 700 533 700 338 c 0
657 338 m 0
 657 510 525 649 353 649 c 0
 182 649 43 510 43 338 c 0
 43 167 182 28 353 28 c 0
 525 28 657 167 657 338 c 0
EndSplineSet
Validated: 1
EndChar

StartChar: uni24BD
Encoding: 341 9405 85
Width: 700
Flags: W
HStem: -15 43<245.975 461.681> 144 24<156 195.481 281.768 320 385 423.875 512.5 551> 324 38<274 432> 506 23<156 194.5 282.875 321 385 424.118 512.5 551> 649 43<243.309 458.735>
VStem: 0 43<231.882 444.797> 203 71<171.977 324 362 501.505> 432 72<172.341 324 362 501.676> 657 43<224.011 451.738>
LayerCount: 2
Fore
SplineSet
551 144 m 1
 385 144 l 1
 385 168 l 1
 426 171 432 179 432 220 c 2
 432 324 l 1
 274 324 l 1
 274 215 l 2
 274 179 281 171 320 168 c 1
 320 144 l 1
 156 144 l 1
 156 168 l 1
 197 171 203 177 203 219 c 2
 203 459 l 2
 203 496 196 502 156 506 c 1
 156 529 l 1
 321 529 l 1
 321 506 l 1
 282 502 274 496 274 459 c 2
 274 362 l 1
 432 362 l 1
 432 459 l 2
 432 497 425 502 385 506 c 1
 385 529 l 1
 551 529 l 1
 551 506 l 1
 511 502 504 496 504 459 c 2
 504 214 l 2
 504 179 511 172 551 168 c 1
 551 144 l 1
700 338 m 0
 700 140 547 -15 351 -15 c 0
 154 -15 0 141 0 338 c 0
 0 537 155 692 356 692 c 0
 546 692 700 533 700 338 c 0
657 338 m 0
 657 510 525 649 353 649 c 0
 182 649 43 510 43 338 c 0
 43 167 182 28 353 28 c 0
 525 28 657 167 657 338 c 0
EndSplineSet
Validated: 1
EndChar

StartChar: uni24BE
Encoding: 342 9406 86
Width: 700
Flags: W
HStem: -15 43<245.975 461.681> 144 24<261 310.05 396.998 446> 506 23<261 309.481 397.655 446> 649 43<243.309 458.735>
VStem: 0 43<231.882 444.797> 317 72<172.023 501.253> 657 43<224.011 451.738>
LayerCount: 2
Fore
SplineSet
446 144 m 1
 261 144 l 1
 261 168 l 1
 310 169 317 176 317 214 c 2
 317 460 l 2
 317 498 312 503 261 506 c 1
 261 529 l 1
 446 529 l 1
 446 506 l 1
 395 503 389 496 389 460 c 2
 389 214 l 2
 389 177 397 169 446 168 c 1
 446 144 l 1
700 338 m 0
 700 140 547 -15 351 -15 c 0
 154 -15 0 141 0 338 c 0
 0 537 155 692 356 692 c 0
 546 692 700 533 700 338 c 0
657 338 m 0
 657 510 525 649 353 649 c 0
 182 649 43 510 43 338 c 0
 43 167 182 28 353 28 c 0
 525 28 657 167 657 338 c 0
EndSplineSet
Validated: 1
EndChar

StartChar: uni24BF
Encoding: 343 9407 87
Width: 700
Flags: W
HStem: -15 43<245.975 461.681> 137 35<263.902 324.482> 506 23<271 319.131 407.25 456> 649 43<243.309 458.735>
VStem: 0 43<231.882 444.797> 217 67<172.449 217.766> 327 72<175.827 500.964> 657 43<224.011 451.738>
LayerCount: 2
Fore
SplineSet
456 529 m 1
 456 506 l 1
 402 502 399 495 399 459 c 2
 399 256 l 2
 399 174 356 137 284 137 c 0
 244 137 217 153 217 185 c 0
 217 208 231 220 251 220 c 0
 265 220 280 210 284 188 c 0
 285 182 289 172 301 172 c 0
 320 172 327 186 327 205 c 2
 327 461 l 2
 327 498 321 503 271 506 c 1
 271 529 l 1
 456 529 l 1
700 338 m 0
 700 140 547 -15 351 -15 c 0
 154 -15 0 141 0 338 c 0
 0 537 155 692 356 692 c 0
 546 692 700 533 700 338 c 0
657 338 m 0
 657 510 525 649 353 649 c 0
 182 649 43 510 43 338 c 0
 43 167 182 28 353 28 c 0
 525 28 657 167 657 338 c 0
EndSplineSet
Validated: 1
EndChar

StartChar: uni24C0
Encoding: 344 9408 88
Width: 700
Flags: W
HStem: -15 43<245.975 461.681> 144 24<147 196.071 282.764 333 385 423.565 528.515 570> 506 23<147 195.997 284.126 333 383 399 488.669 537> 649 43<243.309 458.735>
VStem: 0 43<231.882 444.797> 204 71<172.075 312 353 501.333> 657 43<224.011 451.738>
LayerCount: 2
Fore
SplineSet
570 144 m 1
 385 144 l 1
 385 168 l 1
 412 171 424 175 424 182 c 0
 424 189 407 205 394 218 c 2
 290 324 l 1
 275 312 l 1
 275 214 l 2
 275 176 284 169 333 168 c 1
 333 144 l 1
 147 144 l 1
 147 168 l 1
 200 169 204 178 204 221 c 2
 204 464 l 2
 204 499 194 503 147 506 c 1
 147 529 l 1
 333 529 l 1
 333 506 l 1
 284 503 275 498 275 461 c 2
 275 353 l 1
 376 443 l 2
 404 469 422 484 422 493 c 0
 422 500 418 504 399 505 c 2
 383 506 l 1
 383 529 l 1
 537 529 l 1
 537 506 l 1
 495 503 484 496 445 462 c 2
 338 367 l 1
 478 226 l 2
 529 174 541 168 570 168 c 1
 570 144 l 1
700 338 m 0
 700 140 547 -15 351 -15 c 0
 154 -15 0 141 0 338 c 0
 0 537 155 692 356 692 c 0
 546 692 700 533 700 338 c 0
657 338 m 0
 657 510 525 649 353 649 c 0
 182 649 43 510 43 338 c 0
 43 167 182 28 353 28 c 0
 525 28 657 167 657 338 c 0
EndSplineSet
Validated: 1
EndChar

StartChar: uni24C1
Encoding: 345 9409 89
Width: 700
Flags: W
HStem: -15 43<245.975 461.681> 144 36<311.884 456.329> 144 24<183 231.4> 506 23<183 231.301 319.819 368> 649 43<243.309 458.735>
VStem: 0 43<231.882 444.797> 239 72<181.643 501.45> 657 43<224.011 451.738>
LayerCount: 2
Fore
SplineSet
509 255 m 1xdf
 482 144 l 1
 183 144 l 1
 183 168 l 1xbf
 228 169 239 174 239 212 c 2
 239 469 l 2
 239 503 221 504 183 506 c 1
 183 529 l 1
 368 529 l 1
 368 506 l 1
 328 503 311 502 311 466 c 2
 311 207 l 2
 311 187 320 180 355 180 c 2
 389 180 l 2
 429 180 453 189 469 211 c 0
 476 222 483 235 491 255 c 1
 509 255 l 1xdf
700 338 m 0
 700 140 547 -15 351 -15 c 0
 154 -15 0 141 0 338 c 0
 0 537 155 692 356 692 c 0
 546 692 700 533 700 338 c 0
657 338 m 0
 657 510 525 649 353 649 c 0
 182 649 43 510 43 338 c 0
 43 167 182 28 353 28 c 0
 525 28 657 167 657 338 c 0
EndSplineSet
Validated: 1
EndChar

StartChar: uni24C2
Encoding: 346 9410 90
Width: 700
Flags: W
HStem: -15 43<245.975 461.681> 144 24<124 162.5 214.697 252 414 454.25 543.375 582> 506 23<125 165.047 541.993 581> 649 43<243.309 458.735>
VStem: 0 43<231.882 444.797> 171 33<175.462 434> 463 71<172.378 459> 657 43<224.011 451.738>
LayerCount: 2
Fore
SplineSet
700 338 m 0
 700 140 547 -15 351 -15 c 0
 154 -15 0 141 0 338 c 0
 0 537 155 692 356 692 c 0
 546 692 700 533 700 338 c 0
657 338 m 0
 657 510 525 649 353 649 c 0
 182 649 43 510 43 338 c 0
 43 167 182 28 353 28 c 0
 525 28 657 167 657 338 c 0
582 144 m 1
 414 144 l 1
 414 168 l 1
 456 171 463 179 463 220 c 2
 463 459 l 1
 461 459 l 1
 327 144 l 1
 315 144 l 1
 205 434 l 1
 204 434 l 1
 204 236 l 2
 204 180 211 171 252 168 c 1
 252 144 l 1
 124 144 l 1
 124 168 l 1
 169 172 171 179 171 236 c 2
 171 459 l 2
 171 496 169 503 125 506 c 1
 125 529 l 1
 231 529 l 1
 340 246 l 1
 459 529 l 1
 581 529 l 1
 581 506 l 1
 543 505 534 496 534 460 c 2
 534 214 l 2
 534 180 543 171 582 168 c 1
 582 144 l 1
EndSplineSet
Validated: 1
EndChar

StartChar: uni24C3
Encoding: 347 9411 91
Width: 700
Flags: W
HStem: -15 43<245.975 461.681> 143 24<174 209.754 263.636 297> 506 23<174 205.596 408 445.968 505.282 538> 649 43<243.309 458.735>
VStem: 0 43<231.882 444.797> 218 33<176.158 441> 457 33<260 491.573> 657 43<224.011 451.738>
LayerCount: 2
Fore
SplineSet
538 529 m 1
 538 506 l 1
 518 504 511 502 505 496 c 0
 495 488 490 476 490 436 c 2
 490 137 l 1
 475 137 l 1
 251 441 l 1
 251 230 l 2
 251 182 258 174 297 167 c 1
 297 143 l 1
 174 143 l 1
 174 167 l 1
 217 172 218 180 218 234 c 2
 218 478 l 1
 203 498 201 506 174 506 c 1
 174 529 l 1
 261 529 l 1
 457 260 l 1
 457 441 l 2
 457 467 455 483 448 492 c 0
 441 502 432 504 408 506 c 1
 408 529 l 1
 538 529 l 1
700 338 m 0
 700 140 547 -15 351 -15 c 0
 154 -15 0 141 0 338 c 0
 0 537 155 692 356 692 c 0
 546 692 700 533 700 338 c 0
657 338 m 0
 657 510 525 649 353 649 c 0
 182 649 43 510 43 338 c 0
 43 167 182 28 353 28 c 0
 525 28 657 167 657 338 c 0
EndSplineSet
Validated: 1
EndChar

StartChar: uni24C4
Encoding: 348 9412 92
Width: 700
Flags: W
HStem: -15 43<245.975 461.681> 144 33<288.667 418.172> 504 32<292.105 414.119> 649 43<243.309 458.735>
VStem: 0 43<231.882 444.797> 145 79<248.586 434.128> 482 79<246.91 431.537> 657 43<224.011 451.738>
LayerCount: 2
Fore
SplineSet
561 341 m 0
 561 223 474 144 353 144 c 0
 231 144 145 224 145 342 c 0
 145 457 230 536 353 536 c 0
 476 536 561 453 561 341 c 0
482 344 m 0
 482 435 440 504 352 504 c 0
 262 504 224 429 224 341 c 0
 224 250 262 177 354 177 c 0
 447 177 482 250 482 344 c 0
700 338 m 0
 700 140 547 -15 351 -15 c 0
 154 -15 0 141 0 338 c 0
 0 537 155 692 356 692 c 0
 546 692 700 533 700 338 c 0
657 338 m 0
 657 510 525 649 353 649 c 0
 182 649 43 510 43 338 c 0
 43 167 182 28 353 28 c 0
 525 28 657 167 657 338 c 0
EndSplineSet
Validated: 1
EndChar

StartChar: uni24C5
Encoding: 349 9413 93
Width: 700
Flags: W
HStem: -15 43<245.975 461.681> 144 24<176 224.424 311.349 361> 304 38<304 398.383> 494 35<304 400> 506 23<176 224.828> 649 43<243.309 458.735>
VStem: 0 43<231.882 444.797> 232 72<171.718 306 342.081 493.624> 421 77<361.177 476.456> 657 43<224.011 451.738>
LayerCount: 2
Fore
SplineSet
176 529 m 1xefc0
 345 529 l 2xf7c0
 427 529 498 505 498 421 c 0
 498 332 424 304 342 304 c 0
 327 304 317 304 304 306 c 1
 304 211 l 2
 304 174 316 169 361 168 c 1
 361 144 l 1
 176 144 l 1
 176 168 l 1
 219 170 232 171 232 213 c 2
 232 467 l 2
 232 504 216 504 176 506 c 1
 176 529 l 1xefc0
304 480 m 2
 304 344 l 1
 315 342 326 342 337 342 c 0
 398 342 421 371 421 418 c 0
 421 474 398 494 322 494 c 0
 307 494 304 490 304 480 c 2
700 338 m 0
 700 140 547 -15 351 -15 c 0
 154 -15 0 141 0 338 c 0
 0 537 155 692 356 692 c 0
 546 692 700 533 700 338 c 0
657 338 m 0
 657 510 525 649 353 649 c 0
 182 649 43 510 43 338 c 0
 43 167 182 28 353 28 c 0
 525 28 657 167 657 338 c 0
EndSplineSet
Validated: 1
EndChar

StartChar: uni24C6
Encoding: 350 9414 94
Width: 700
Flags: W
HStem: -15 43<245.975 461.681> 80 23<445.57 509> 504 32<290.824 415.264> 649 43<243.309 458.735>
VStem: 0 43<231.882 444.797> 145 79<251.595 433.377> 482 79<248.267 430.927> 657 43<224.011 451.738>
LayerCount: 2
Fore
SplineSet
509 80 m 1
 479 80 l 2
 385 80 331 93 289 161 c 1
 209 180 145 241 145 340 c 0
 145 465 237 536 352 536 c 0
 470 536 561 461 561 340 c 0
 561 233 489 166 392 155 c 1
 412 127 441 106 509 103 c 1
 509 80 l 1
482 342 m 0
 482 436 440 504 352 504 c 0
 263 504 224 429 224 341 c 0
 224 250 263 185 354 185 c 0
 446 185 482 249 482 342 c 0
700 338 m 0
 700 140 547 -15 351 -15 c 0
 154 -15 0 141 0 338 c 0
 0 537 155 692 356 692 c 0
 546 692 700 533 700 338 c 0
657 338 m 0
 657 510 525 649 353 649 c 0
 182 649 43 510 43 338 c 0
 43 167 182 28 353 28 c 0
 525 28 657 167 657 338 c 0
EndSplineSet
Validated: 1
EndChar

StartChar: uni24C7
Encoding: 351 9415 95
Width: 700
Flags: W
HStem: -15 43<245.975 461.681> 144 24<176 224.478 311.601 354 521.385 562> 314 38<304 338> 494 35<304 397.436> 506 23<176 224.564> 649 43<243.309 458.735>
VStem: 0 43<231.882 444.797> 232 72<171.866 314 352.001 493.624> 421 77<366.865 475.997> 657 43<224.011 451.738>
LayerCount: 2
Fore
SplineSet
562 144 m 1xf7c0
 467 144 l 1
 338 314 l 1
 304 314 l 1
 304 214 l 2
 304 177 311 171 354 168 c 1
 354 144 l 1
 176 144 l 1
 176 168 l 1
 217 170 232 170 232 213 c 2
 232 467 l 2
 232 504 215 504 176 506 c 1
 176 529 l 1xefc0
 345 529 l 2
 405 529 498 516 498 421 c 0
 498 370 472 335 407 322 c 1
 509 192 l 2
 523 174 535 171 562 168 c 1
 562 144 l 1xf7c0
304 480 m 2
 304 353 l 1
 312 352 321 352 328 352 c 0
 387 352 421 363 421 420 c 0
 421 460 410 494 329 494 c 0xf7c0
 311 494 304 494 304 480 c 2
700 338 m 0
 700 140 547 -15 351 -15 c 0
 154 -15 0 141 0 338 c 0
 0 537 155 692 356 692 c 0
 546 692 700 533 700 338 c 0
657 338 m 0
 657 510 525 649 353 649 c 0
 182 649 43 510 43 338 c 0
 43 167 182 28 353 28 c 0
 525 28 657 167 657 338 c 0
EndSplineSet
Validated: 1
EndChar

StartChar: uni24C8
Encoding: 352 9416 96
Width: 700
Flags: W
HStem: -15 43<245.975 461.681> 137 34<291.349 406.949> 499 37<298.671 411.133> 649 43<243.309 458.735>
VStem: 0 43<231.882 444.797> 225 65<417.188 491.319> 228 22<137 155.39> 426 76<185.528 269.383> 657 43<224.011 451.738>
LayerCount: 2
Fore
SplineSet
486 404 m 1xfd80
 463 404 l 1
 456 430 449 445 436 460 c 0
 413 483 388 499 348 499 c 0
 309 499 290 481 290 453 c 0xfd80
 290 422 332 399 398 366 c 0
 468 332 502 295 502 249 c 0
 502 180 442 137 366 137 c 0
 340 137 320 141 295 151 c 0
 283 155 273 156 265 156 c 0
 257 156 250 149 250 137 c 1
 228 137 l 1xfb80
 207 270 l 1
 230 270 l 1
 258 203 294 171 356 171 c 0
 399 171 426 195 426 231 c 0
 426 269 359 304 306 329 c 0
 254 354 225 394 225 432 c 0
 225 497 273 536 339 536 c 0
 364 536 377 533 400 524 c 0
 411 520 422 518 430 518 c 0
 440 518 447 524 450 536 c 1
 469 536 l 1
 486 404 l 1xfd80
700 338 m 0
 700 140 547 -15 351 -15 c 0
 154 -15 0 141 0 338 c 0
 0 537 155 692 356 692 c 0
 546 692 700 533 700 338 c 0
657 338 m 0
 657 510 525 649 353 649 c 0
 182 649 43 510 43 338 c 0
 43 167 182 28 353 28 c 0
 525 28 657 167 657 338 c 0
EndSplineSet
Validated: 1
EndChar

StartChar: uni24C9
Encoding: 353 9417 97
Width: 700
Flags: W
HStem: -15 43<245.975 461.681> 144 24<261 310.106 396.68 446> 494 35<217.533 317 389 485.678> 649 43<243.309 458.735>
VStem: 0 43<231.882 444.797> 174 21<421 458.141> 317 72<171.853 494> 510 22<421 456.292> 657 43<224.011 451.738>
LayerCount: 2
Fore
SplineSet
532 421 m 1
 510 421 l 1
 497 482 480 494 414 494 c 2
 389 494 l 1
 389 214 l 2
 389 176 398 169 446 168 c 1
 446 144 l 1
 261 144 l 1
 261 168 l 1
 312 170 317 175 317 219 c 2
 317 494 l 1
 287 494 l 2
 222 494 207 482 195 421 c 1
 174 421 l 1
 178 529 l 1
 527 529 l 1
 532 421 l 1
700 338 m 0
 700 140 547 -15 351 -15 c 0
 154 -15 0 141 0 338 c 0
 0 537 155 692 356 692 c 0
 546 692 700 533 700 338 c 0
657 338 m 0
 657 510 525 649 353 649 c 0
 182 649 43 510 43 338 c 0
 43 167 182 28 353 28 c 0
 525 28 657 167 657 338 c 0
EndSplineSet
Validated: 1
EndChar

StartChar: uni24CA
Encoding: 354 9418 98
Width: 700
Flags: W
HStem: -15 43<245.975 461.681> 137 38<300.75 425.325> 506 23<162 201.25 289.428 327 409 445.187 503.916 538> 649 43<243.309 458.735>
VStem: 0 43<231.882 444.797> 209 71<198.133 500.849> 457 33<211.592 496.467> 657 43<224.011 451.738>
LayerCount: 2
Fore
SplineSet
538 529 m 1
 538 506 l 1
 495 500 490 488 490 440 c 2
 490 299 l 2
 490 201 451 137 351 137 c 0
 261 137 209 190 209 292 c 2
 209 462 l 2
 209 495 204 502 162 506 c 1
 162 529 l 1
 327 529 l 1
 327 506 l 1
 286 500 280 495 280 460 c 2
 280 284 l 2
 280 219 284 175 363 175 c 0
 439 175 457 223 457 292 c 2
 457 439 l 2
 457 491 451 503 409 506 c 1
 409 529 l 1
 538 529 l 1
700 338 m 0
 700 140 547 -15 351 -15 c 0
 154 -15 0 141 0 338 c 0
 0 537 155 692 356 692 c 0
 546 692 700 533 700 338 c 0
657 338 m 0
 657 510 525 649 353 649 c 0
 182 649 43 510 43 338 c 0
 43 167 182 28 353 28 c 0
 525 28 657 167 657 338 c 0
EndSplineSet
Validated: 1
EndChar

StartChar: uni24CB
Encoding: 355 9419 99
Width: 700
Flags: W
HStem: -15 43<245.975 461.681> 506 23<149 184.615 291 309 434 474.233 524.521 557> 649 43<243.309 458.735>
VStem: 0 43<231.882 444.797> 657 43<224.011 451.738>
LayerCount: 2
Fore
SplineSet
557 529 m 1
 557 506 l 1
 532 505 518 497 502 460 c 2
 368 144 l 1
 360 144 l 1
 214 448 l 2
 189 498 180 505 149 506 c 1
 149 529 l 1
 309 529 l 1
 309 506 l 1
 291 505 l 2
 272 504 265 499 265 493 c 0
 265 488 268 477 287 438 c 2
 380 251 l 1
 465 452 l 2
 472 469 476 481 476 489 c 0
 476 503 450 505 434 506 c 1
 434 529 l 1
 557 529 l 1
700 338 m 0
 700 140 547 -15 351 -15 c 0
 154 -15 0 141 0 338 c 0
 0 537 155 692 356 692 c 0
 546 692 700 533 700 338 c 0
657 338 m 0
 657 510 525 649 353 649 c 0
 182 649 43 510 43 338 c 0
 43 167 182 28 353 28 c 0
 525 28 657 167 657 338 c 0
EndSplineSet
Validated: 1
EndChar

StartChar: uni24CC
Encoding: 356 9420 100
Width: 700
Flags: W
HStem: -15 43<245.975 461.681> 506 23<124 150.675 214.018 244 275 308.124 370.605 407 481 513.945 554.25 582> 649 43<243.309 458.735>
VStem: 0 43<231.882 444.797> 657 43<224.011 451.738>
LayerCount: 2
Fore
SplineSet
582 529 m 1
 582 506 l 1
 555 499 549 495 540 471 c 2
 438 144 l 1
 432 144 l 1
 352 379 l 1
 351 379 l 1
 276 144 l 1
 270 144 l 1
 174 443 l 2
 158 492 150 505 124 506 c 1
 124 529 l 1
 244 529 l 1
 244 506 l 1
 220 505 214 503 214 494 c 0
 214 490 217 482 220 472 c 2
 287 264 l 1
 339 418 l 1
 325 456 l 2
 310 502 305 505 275 506 c 1
 275 529 l 1
 407 529 l 1
 407 506 l 1
 383 505 370 504 370 490 c 0
 370 485 374 476 378 464 c 2
 447 263 l 1
 448 263 l 1
 507 449 l 2
 512 465 516 477 516 486 c 0
 516 499 507 505 481 506 c 1
 481 529 l 1
 582 529 l 1
700 338 m 0
 700 140 547 -15 351 -15 c 0
 154 -15 0 141 0 338 c 0
 0 537 155 692 356 692 c 0
 546 692 700 533 700 338 c 0
657 338 m 0
 657 510 525 649 353 649 c 0
 182 649 43 510 43 338 c 0
 43 167 182 28 353 28 c 0
 525 28 657 167 657 338 c 0
EndSplineSet
Validated: 1
EndChar

StartChar: uni24CD
Encoding: 357 9421 101
Width: 700
Flags: W
HStem: -15 43<245.975 461.681> 144 24<174 207.155 256.007 295 379 393 497.773 532> 506 23<180 212.854 298.026 337 405 438.926 489.163 528> 649 43<243.309 458.735>
VStem: 0 43<231.882 444.797> 657 43<224.011 451.738>
LayerCount: 2
Fore
SplineSet
532 144 m 1
 379 144 l 1
 379 168 l 1
 393 169 l 2
 408 170 418 173 418 179 c 0
 418 185 409 203 392 230 c 2
 343 307 l 1
 282 225 l 2
 264 199 256 185 256 180 c 0
 256 173 265 171 295 168 c 1
 295 144 l 1
 174 144 l 1
 174 168 l 1
 203 171 211 177 249 229 c 2
 325 334 l 1
 273 417 l 2
 226 491 216 500 180 506 c 1
 180 529 l 1
 337 529 l 1
 337 506 l 1
 321 506 l 2
 307 506 298 503 298 494 c 0
 298 485 307 471 327 439 c 2
 363 384 l 1
 420 461 l 2
 434 481 439 488 439 493 c 0
 439 502 433 505 405 506 c 1
 405 529 l 1
 528 529 l 1
 528 506 l 1
 493 503 480 493 449 451 c 2
 380 357 l 1
 475 207 l 2
 492 179 504 172 532 168 c 1
 532 144 l 1
700 338 m 0
 700 140 547 -15 351 -15 c 0
 154 -15 0 141 0 338 c 0
 0 537 155 692 356 692 c 0
 546 692 700 533 700 338 c 0
657 338 m 0
 657 510 525 649 353 649 c 0
 182 649 43 510 43 338 c 0
 43 167 182 28 353 28 c 0
 525 28 657 167 657 338 c 0
EndSplineSet
Validated: 1
EndChar

StartChar: uni24CE
Encoding: 358 9422 102
Width: 700
Flags: W
HStem: -15 43<245.975 461.681> 144 24<261 309.727 396.582 446> 506 23<174 204.151 309 322 418 450.891 497.731 532> 649 43<243.309 458.735>
VStem: 0 43<231.882 444.797> 317 72<171.431 325> 657 43<224.011 451.738>
LayerCount: 2
Fore
SplineSet
532 529 m 1
 532 506 l 1
 499 503 487 491 460 445 c 2
 389 327 l 1
 389 211 l 2
 389 172 404 169 446 168 c 1
 446 144 l 1
 261 144 l 1
 261 168 l 1
 309 170 317 173 317 216 c 2
 317 325 l 1
 259 420 l 2
 214 492 201 505 174 506 c 1
 174 529 l 1
 322 529 l 1
 322 506 l 1
 309 505 l 2
 293 504 284 502 284 496 c 0
 284 492 289 483 294 474 c 2
 370 352 l 1
 444 475 l 2
 449 483 451 490 451 494 c 0
 450 502 444 505 418 506 c 1
 418 529 l 1
 532 529 l 1
700 338 m 0
 700 140 547 -15 351 -15 c 0
 154 -15 0 141 0 338 c 0
 0 537 155 692 356 692 c 0
 546 692 700 533 700 338 c 0
657 338 m 0
 657 510 525 649 353 649 c 0
 182 649 43 510 43 338 c 0
 43 167 182 28 353 28 c 0
 525 28 657 167 657 338 c 0
EndSplineSet
Validated: 1
EndChar

StartChar: uni24CF
Encoding: 359 9423 103
Width: 700
Flags: W
HStem: -15 43<245.975 461.681> 144 35<267 477.984> 494 35<233.681 427> 649 43<243.309 458.735>
VStem: 0 43<231.882 444.797> 187 21<420 452.685> 512 20<230.191 257> 657 43<224.011 451.738>
LayerCount: 2
Fore
SplineSet
532 257 m 1
 516 144 l 1
 174 144 l 1
 174 164 l 1
 427 494 l 1
 313 494 l 2
 241 494 223 484 208 420 c 1
 187 420 l 1
 201 529 l 1
 520 529 l 1
 520 516 l 1
 267 179 l 1
 405 179 l 2
 469 179 492 192 512 257 c 1
 532 257 l 1
700 338 m 0
 700 140 547 -15 351 -15 c 0
 154 -15 0 141 0 338 c 0
 0 537 155 692 356 692 c 0
 546 692 700 533 700 338 c 0
657 338 m 0
 657 510 525 649 353 649 c 0
 182 649 43 510 43 338 c 0
 43 167 182 28 353 28 c 0
 525 28 657 167 657 338 c 0
EndSplineSet
Validated: 1
EndChar

StartChar: uni24D0
Encoding: 360 9424 104
Width: 700
Flags: W
HStem: -15 43<245.975 461.681> 190 44<280.635 360.195 417 484.162> 435 27<288.962 371.553> 649 43<243.309 458.735>
VStem: 0 43<231.882 444.797> 217 60<238.729 304.222> 229 57<363.19 431.838> 383 57<243.626 342 361.141 428.748> 657 43<224.011 451.738>
LayerCount: 2
Fore
SplineSet
490 239 m 1xfb80
 490 218 l 1
 469 194 450 190 429 190 c 0
 405 190 389 200 384 230 c 1
 347 197 315 190 287 190 c 0
 247 190 217 213 217 253 c 0xfd80
 217 285 238 309 263 323 c 0
 284 336 310 345 383 367 c 1
 383 392 l 2
 383 422 361 435 333 435 c 0
 307 435 286 426 286 415 c 0
 286 407 292 401 292 392 c 0
 292 378 281 362 259 362 c 0
 241 362 229 376 229 394 c 0
 229 444 293 462 341 462 c 0
 405 462 440 438 440 369 c 2
 440 259 l 2
 440 237 449 229 461 229 c 0
 472 229 479 232 490 239 c 1xfb80
383 271 m 2
 383 342 l 1
 341 329 315 318 300 308 c 0
 283 297 277 284 277 270 c 0
 277 246 298 234 322 234 c 0
 348 234 383 248 383 271 c 2
700 338 m 0
 700 140 547 -15 351 -15 c 0
 154 -15 0 141 0 338 c 0
 0 537 155 692 356 692 c 0
 546 692 700 533 700 338 c 0
657 338 m 0
 657 510 525 649 353 649 c 0
 182 649 43 510 43 338 c 0
 43 167 182 28 353 28 c 0
 525 28 657 167 657 338 c 0
EndSplineSet
Validated: 1
EndChar

StartChar: uni24D1
Encoding: 361 9425 105
Width: 700
Flags: W
HStem: -15 43<245.975 461.681> 137 29<304.692 407.635> 359 48<321.018 420.17> 490 21<198 210.766> 649 43<243.309 458.735>
VStem: 0 43<231.882 444.797> 242 58<171.156 348.886 361 490.78> 448 60<201.219 329.148> 657 43<224.011 451.738>
LayerCount: 2
Fore
SplineSet
300 535 m 1
 300 361 l 1
 316 390 351 407 388 407 c 0
 461 407 508 352 508 278 c 0
 508 191 441 137 352 137 c 0
 325 137 242 146 242 180 c 2
 242 467 l 2
 242 488 237 491 211 491 c 0
 206 491 201 491 198 490 c 2
 198 511 l 1
 246 521 267 527 296 536 c 1
 300 535 l 1
300 322 m 2
 300 189 l 2
 300 176 326 166 360 166 c 0
 411 166 448 206 448 254 c 0
 448 309 424 359 364 359 c 0
 331 359 300 341 300 322 c 2
700 338 m 0
 700 140 547 -15 351 -15 c 0
 154 -15 0 141 0 338 c 0
 0 537 155 692 356 692 c 0
 546 692 700 533 700 338 c 0
657 338 m 0
 657 510 525 649 353 649 c 0
 182 649 43 510 43 338 c 0
 43 167 182 28 353 28 c 0
 525 28 657 167 657 338 c 0
EndSplineSet
Validated: 1
EndChar

StartChar: uni24D2
Encoding: 362 9426 106
Width: 700
Flags: W
HStem: -15 43<245.975 461.681> 190 52<313.54 425.986> 433 29<313.632 396.056> 649 43<243.309 458.735>
VStem: 0 43<231.882 444.797> 218 61<275.519 392.669> 400 71<374.884 431.033> 657 43<224.011 451.738>
LayerCount: 2
Fore
SplineSet
470 293 m 1
 486 284 l 1
 455 226 418 190 348 190 c 0
 272 190 218 243 218 318 c 0
 218 403 289 462 367 462 c 0
 424 462 471 433 471 398 c 0
 471 382 459 369 440 369 c 0
 417 369 406 392 400 410 c 0
 395 429 383 433 363 433 c 0
 310 433 279 396 279 344 c 0
 279 284 315 242 376 242 c 0
 414 242 438 256 470 293 c 1
700 338 m 0
 700 140 547 -15 351 -15 c 0
 154 -15 0 141 0 338 c 0
 0 537 155 692 356 692 c 0
 546 692 700 533 700 338 c 0
657 338 m 0
 657 510 525 649 353 649 c 0
 182 649 43 510 43 338 c 0
 43 167 182 28 353 28 c 0
 525 28 657 167 657 338 c 0
EndSplineSet
Validated: 1
EndChar

StartChar: uni24D3
Encoding: 363 9427 107
Width: 700
Flags: W
HStem: -15 43<245.975 461.681> 137 42<287.95 388.675> 166 20<491.142 509> 379 28<295.156 383.829> 490 21<360 377.628> 649 43<243.309 458.735>
VStem: 0 43<231.882 444.797> 198 60<207.834 341.94> 406 58<185.345 364.608 383 490.862> 657 43<224.011 451.738>
LayerCount: 2
Fore
SplineSet
509 166 m 1xbfc0
 410 137 l 1
 406 140 l 1
 406 174 l 1
 383 147 354 137 319 137 c 0xdfc0
 244 137 198 187 198 263 c 0
 198 346 259 407 337 407 c 0
 361 407 387 400 405 383 c 1
 406 383 l 1
 406 469 l 2
 406 486 401 491 378 491 c 0
 370 491 366 491 360 490 c 1
 360 511 l 1
 403 520 427 526 459 536 c 1
 464 534 l 1
 464 212 l 2
 464 191 469 185 491 185 c 0
 494 185 499 185 509 186 c 1
 509 166 l 1xbfc0
406 210 m 2
 406 329 l 2
 406 355 375 379 339 379 c 0
 290 379 258 340 258 281 c 0
 258 216 290 179 345 179 c 0
 374 179 406 188 406 210 c 2
700 338 m 0
 700 140 547 -15 351 -15 c 0
 154 -15 0 141 0 338 c 0
 0 537 155 692 356 692 c 0
 546 692 700 533 700 338 c 0
657 338 m 0
 657 510 525 649 353 649 c 0
 182 649 43 510 43 338 c 0
 43 167 182 28 353 28 c 0
 525 28 657 167 657 338 c 0
EndSplineSet
Validated: 1
EndChar

StartChar: uni24D4
Encoding: 364 9428 108
Width: 700
Flags: W
HStem: -15 43<245.975 461.681> 190 52<315.008 432.348> 347 32<281 409> 428 34<301.635 393.895> 649 43<243.309 458.735>
VStem: 0 43<231.882 444.797> 218 61<279.375 346.513> 657 43<224.011 451.738>
LayerCount: 2
Fore
SplineSet
476 293 m 1
 492 284 l 1
 462 226 424 190 354 190 c 0
 274 190 218 241 218 321 c 0
 218 401 279 462 365 462 c 0
 436 462 479 420 482 347 c 1
 279 347 l 1
 279 287 317 242 382 242 c 0
 420 242 445 256 476 293 c 1
281 379 m 1
 409 379 l 1
 405 406 388 428 347 428 c 0
 312 428 289 408 281 379 c 1
700 338 m 0
 700 140 547 -15 351 -15 c 0
 154 -15 0 141 0 338 c 0
 0 537 155 692 356 692 c 0
 546 692 700 533 700 338 c 0
657 338 m 0
 657 510 525 649 353 649 c 0
 182 649 43 510 43 338 c 0
 43 167 182 28 353 28 c 0
 525 28 657 167 657 338 c 0
EndSplineSet
Validated: 1
EndChar

StartChar: uni24D5
Encoding: 365 9429 109
Width: 700
Flags: W
HStem: -15 43<245.975 461.681> 144 21<242 288.337 362.538 415> 371 32<243 296 353 435> 516 20<367.383 433.5> 649 43<243.309 458.735>
VStem: 0 43<231.882 444.797> 296 57<169.304 371 403 486.997> 657 43<224.011 451.738>
LayerCount: 2
Fore
SplineSet
243 403 m 1
 296 403 l 1
 298 475 329 536 413 536 c 0
 454 536 487 519 487 494 c 0
 487 471 474 464 456 464 c 0
 443 464 433 476 424 487 c 0
 414 497 407 516 390 516 c 0
 365 516 353 493 353 465 c 2
 353 403 l 1
 435 403 l 1
 435 371 l 1
 353 371 l 1
 353 209 l 2
 353 172 362 167 415 165 c 1
 415 144 l 1
 242 144 l 1
 242 165 l 1
 290 167 296 173 296 209 c 2
 296 371 l 1
 243 371 l 1
 243 403 l 1
700 338 m 0
 700 140 547 -15 351 -15 c 0
 154 -15 0 141 0 338 c 0
 0 537 155 692 356 692 c 0
 546 692 700 533 700 338 c 0
657 338 m 0
 657 510 525 649 353 649 c 0
 182 649 43 510 43 338 c 0
 43 167 182 28 353 28 c 0
 525 28 657 167 657 338 c 0
EndSplineSet
Validated: 1
EndChar

StartChar: uni24D6
Encoding: 366 9430 110
Width: 700
Flags: W
HStem: -15 43<245.975 461.681> 137 47<257.587 429.384> 254 58<284.011 471.925> 345 29<315.121 393.078> 484 32<452 505> 507 29<300.318 376.28> 649 43<243.309 458.735>
VStem: 0 43<231.882 444.797> 200 52<195.96 245.043> 231 52<297.5 341.86 398.787 497.167> 406 55<382.419 482.992> 473 26<208.766 247.203> 657 43<224.011 451.738>
LayerCount: 2
Fore
SplineSet
505 484 m 1xfb78
 452 484 l 1
 459 470 461 451 461 441 c 0
 461 382 408 345 353 345 c 0
 342 345 322 348 315 348 c 0
 296 348 283 335 283 325 c 0xfb78
 283 319 291 314 326 312 c 2
 413 308 l 2
 467 306 499 280 499 241 c 0
 499 164 384 137 320 137 c 0
 254 137 200 154 200 199 c 0xfbb8
 200 224 214 244 254 270 c 1
 236 278 231 290 231 305 c 0
 231 329 253 345 281 358 c 1
 249 371 229 400 229 437 c 0
 229 493 279 536 344 536 c 0xf778
 362 536 384 535 412 522 c 0
 426 516 437 516 451 516 c 2
 505 516 l 1
 505 484 l 1xfb78
406 419 m 0
 406 459 386 507 337 507 c 0xf738
 307 507 286 488 286 459 c 0
 286 407 316 374 357 374 c 0
 387 374 406 391 406 419 c 0
473 232 m 0
 473 249 454 254 394 254 c 0
 361 254 304 257 283 262 c 1xf378
 255 239 252 228 252 219 c 0xf3b8
 252 197 290 184 349 184 c 0
 425 184 473 203 473 232 c 0
700 338 m 0
 700 140 547 -15 351 -15 c 0
 154 -15 0 141 0 338 c 0
 0 537 155 692 356 692 c 0
 546 692 700 533 700 338 c 0
657 338 m 0
 657 510 525 649 353 649 c 0
 182 649 43 510 43 338 c 0
 43 167 182 28 353 28 c 0
 525 28 657 167 657 338 c 0
EndSplineSet
Validated: 1
EndChar

StartChar: uni24D7
Encoding: 367 9431 111
Width: 700
Flags: W
HStem: -15 43<245.975 461.681> 144 21<193 228.56 301.875 339 369 406.625 480.585 513> 365 43<322.2 408.168> 490 22<194 205.856> 649 43<243.309 458.735>
VStem: 0 43<231.882 444.797> 236 58<168.75 350.354 361 491.793> 415 58<168.975 357.844> 657 43<224.011 451.738>
LayerCount: 2
Fore
SplineSet
513 144 m 1
 369 144 l 1
 369 165 l 1
 408 169 415 174 415 208 c 2
 415 314 l 2
 415 349 398 365 367 365 c 0
 340 365 319 357 294 333 c 1
 294 208 l 2
 294 174 300 169 339 165 c 1
 339 144 l 1
 193 144 l 1
 193 165 l 1
 232 170 236 174 236 208 c 2
 236 470 l 2
 236 488 230 492 206 492 c 0
 203 492 196 490 194 490 c 2
 194 512 l 1
 251 523 267 528 289 536 c 1
 294 533 l 1
 294 361 l 1
 324 395 354 408 391 408 c 0
 445 408 473 377 473 315 c 2
 473 208 l 2
 473 175 477 171 513 165 c 1
 513 144 l 1
700 338 m 0
 700 140 547 -15 351 -15 c 0
 154 -15 0 141 0 338 c 0
 0 537 155 692 356 692 c 0
 546 692 700 533 700 338 c 0
657 338 m 0
 657 510 525 649 353 649 c 0
 182 649 43 510 43 338 c 0
 43 167 182 28 353 28 c 0
 525 28 657 167 657 338 c 0
EndSplineSet
Validated: 1
EndChar

StartChar: uni24D8
Encoding: 368 9432 112
Width: 700
Flags: W
HStem: -15 43<245.975 461.681> 190 21<273 318.141 390.497 433> 408 22<275 298.258> 518 74<316.181 383.664> 649 43<243.309 458.735>
VStem: 0 43<231.882 444.797> 313 74<521.181 588.664> 325 58<214.147 409.996> 657 43<224.011 451.738>
LayerCount: 2
Fore
SplineSet
387 555 m 0xfe80
 387 534 370 518 350 518 c 0
 329 518 313 534 313 555 c 0
 313 575 329 592 350 592 c 0
 370 592 387 575 387 555 c 0xfe80
433 190 m 1
 273 190 l 1
 273 211 l 1
 319 213 325 217 325 255 c 2
 325 382 l 2
 325 404 320 410 305 410 c 0
 299 410 287 410 275 408 c 1
 275 430 l 1
 378 461 l 1
 383 457 l 1
 383 256 l 2xfd80
 383 219 388 213 433 211 c 1
 433 190 l 1
700 338 m 0
 700 140 547 -15 351 -15 c 0
 154 -15 0 141 0 338 c 0
 0 537 155 692 356 692 c 0
 546 692 700 533 700 338 c 0
657 338 m 0
 657 510 525 649 353 649 c 0
 182 649 43 510 43 338 c 0
 43 167 182 28 353 28 c 0
 525 28 657 167 657 338 c 0
EndSplineSet
Validated: 1
EndChar

StartChar: uni24D9
Encoding: 369 9433 113
Width: 700
Flags: W
HStem: -15 43<245.975 461.681> 81 32<276.913 347.61> 425 22<302 332.625> 535 74<345.199 411.663> 649 43<243.309 458.735>
VStem: 0 43<231.882 444.797> 342 73<537.969 605.975> 354 57<126.157 427.994> 657 43<224.011 451.738>
LayerCount: 2
Fore
SplineSet
415 572 m 0xfe80
 415 552 399 535 379 535 c 0
 357 535 342 552 342 572 c 0
 342 594 358 609 380 609 c 0
 400 609 415 594 415 572 c 0xfe80
411 475 m 1xfd80
 411 214 l 2
 411 127 372 81 297 81 c 0
 258 81 232 97 232 120 c 0
 232 136 243 148 261 148 c 0
 289 148 301 113 322 113 c 0
 354 113 354 139 354 187 c 2
 354 399 l 2
 354 420 347 428 333 428 c 0
 325 428 317 427 302 425 c 1
 302 447 l 1
 340 456 366 466 407 479 c 1
 411 475 l 1xfd80
700 338 m 0
 700 140 547 -15 351 -15 c 0
 154 -15 0 141 0 338 c 0
 0 537 155 692 356 692 c 0
 546 692 700 533 700 338 c 0
657 338 m 0
 657 510 525 649 353 649 c 0
 182 649 43 510 43 338 c 0
 43 167 182 28 353 28 c 0
 525 28 657 167 657 338 c 0
EndSplineSet
Validated: 1
EndChar

StartChar: uni24DA
Encoding: 370 9434 114
Width: 700
Flags: W
HStem: -15 43<245.975 461.681> 144 21<187 230.8 299.773 339 374 396.996 478.625 519> 384 20<366 396.984 447.116 504> 491 21<187 209.717> 649 43<243.309 458.735>
VStem: 0 43<231.882 444.797> 237 58<168.343 283 302 491.859> 657 43<224.011 451.738>
LayerCount: 2
Fore
SplineSet
519 144 m 1
 374 144 l 1
 374 165 l 1
 387 165 l 2
 392 165 397 166 397 170 c 0
 397 172 396 173 393 177 c 2
 295 283 l 1
 295 193 l 2
 295 171 306 166 339 165 c 1
 339 144 l 1
 187 144 l 1
 187 165 l 1
 234 167 237 177 237 198 c 2
 237 466 l 2
 237 487 232 492 210 492 c 0
 204 492 195 492 187 491 c 1
 187 512 l 1
 238 519 265 527 290 536 c 1
 295 533 l 1
 295 302 l 1
 384 365 l 2
 393 372 397 375 397 379 c 0
 397 384 375 384 366 384 c 1
 366 404 l 1
 504 404 l 1
 504 384 l 1
 463 384 436 379 360 318 c 2
 345 306 l 1
 442 203 l 2
 466 178 490 167 519 165 c 1
 519 144 l 1
700 338 m 0
 700 140 547 -15 351 -15 c 0
 154 -15 0 141 0 338 c 0
 0 537 155 692 356 692 c 0
 546 692 700 533 700 338 c 0
657 338 m 0
 657 510 525 649 353 649 c 0
 182 649 43 510 43 338 c 0
 43 167 182 28 353 28 c 0
 525 28 657 167 657 338 c 0
EndSplineSet
Validated: 1
EndChar

StartChar: uni24DB
Encoding: 371 9435 115
Width: 700
Flags: W
HStem: -15 43<245.975 461.681> 144 21<274 314.875 389.364 432> 491 21<276 299.763> 649 43<243.309 458.735>
VStem: 0 43<231.882 444.797> 325 58<169.845 491.916> 657 43<224.011 451.738>
LayerCount: 2
Fore
SplineSet
432 144 m 1
 274 144 l 1
 274 165 l 1
 315 168 325 177 325 201 c 2
 325 464 l 2
 325 485 319 492 300 492 c 0
 295 492 286 492 276 491 c 1
 276 512 l 1
 319 520 343 526 378 536 c 1
 383 532 l 1
 383 198 l 2
 383 174 390 167 432 165 c 1
 432 144 l 1
700 338 m 0
 700 140 547 -15 351 -15 c 0
 154 -15 0 141 0 338 c 0
 0 537 155 692 356 692 c 0
 546 692 700 533 700 338 c 0
657 338 m 0
 657 510 525 649 353 649 c 0
 182 649 43 510 43 338 c 0
 43 167 182 28 353 28 c 0
 525 28 657 167 657 338 c 0
EndSplineSet
Validated: 1
EndChar

StartChar: uni24DC
Encoding: 372 9436 116
Width: 700
Flags: W
HStem: -15 43<245.975 461.681> 190 21<96 137.203 204.012 246 279 320.584 390.74 433 465 501.273 568.59 612> 411 21<98 120.581> 418 44<228.89 317.353 410.92 500.237> 649 43<243.309 458.735>
VStem: 0 43<231.882 444.797> 143 57<213.099 403.242> 325 58<213.771 405.162> 507 57<213.978 410.51> 657 43<224.011 451.738>
LayerCount: 2
Fore
SplineSet
612 190 m 1xdfc0
 465 190 l 1
 465 211 l 1
 503 215 507 220 507 246 c 2
 507 361 l 2
 507 401 492 418 456 418 c 0
 423 418 401 408 383 386 c 1
 383 249 l 2
 383 219 394 211 433 211 c 1
 433 190 l 1
 279 190 l 1
 279 211 l 1
 319 213 325 216 325 243 c 2
 325 361 l 2
 325 396 310 418 281 418 c 0xdfc0
 247 418 216 404 200 388 c 1
 200 235 l 2
 200 217 211 212 246 211 c 1
 246 190 l 1
 96 190 l 1
 96 211 l 1
 134 211 143 219 143 244 c 2
 143 382 l 2
 143 405 138 412 121 412 c 0
 112 412 107 412 98 411 c 1
 98 432 l 1xefc0
 135 441 168 451 191 462 c 1
 198 460 l 1
 198 418 l 1
 243 456 273 462 303 462 c 0
 338 462 361 446 376 414 c 1
 412 447 447 462 485 462 c 0
 542 462 564 425 564 354 c 2
 564 239 l 2
 564 220 573 213 593 212 c 2
 612 211 l 1
 612 190 l 1xdfc0
700 338 m 0
 700 140 547 -15 351 -15 c 0
 154 -15 0 141 0 338 c 0
 0 537 155 692 356 692 c 0
 546 692 700 533 700 338 c 0
657 338 m 0
 657 510 525 649 353 649 c 0
 182 649 43 510 43 338 c 0
 43 167 182 28 353 28 c 0
 525 28 657 167 657 338 c 0
EndSplineSet
Validated: 1
EndChar

StartChar: uni24DD
Encoding: 373 9437 117
Width: 700
Flags: W
HStem: -15 43<245.975 461.681> 190 21<195 230.21 301.193 341 371 404.152 476.623 513> 411 21<194 215.533> 418 44<324.323 407.262> 649 43<243.309 458.735>
VStem: 0 43<231.882 444.797> 238 58<213.984 402.284> 413 58<214.234 412.277> 657 43<224.011 451.738>
LayerCount: 2
Fore
SplineSet
513 190 m 1xdf80
 371 190 l 1
 371 211 l 1
 405 213 413 223 413 256 c 2
 413 367 l 2
 413 402 397 418 365 418 c 0xdf80
 342 418 326 410 296 387 c 1
 296 236 l 2
 296 220 305 213 341 211 c 1
 341 190 l 1
 195 190 l 1
 195 211 l 1
 230 213 238 222 238 249 c 2
 238 383 l 2
 238 405 233 412 216 412 c 0
 206 412 198 411 194 411 c 1
 194 432 l 1xef80
 231 441 256 449 287 462 c 1
 295 460 l 1
 295 417 l 1
 329 449 361 462 391 462 c 0
 443 462 471 428 471 368 c 2
 471 243 l 2
 471 219 479 213 513 211 c 1
 513 190 l 1xdf80
700 338 m 0
 700 140 547 -15 351 -15 c 0
 154 -15 0 141 0 338 c 0
 0 537 155 692 356 692 c 0
 546 692 700 533 700 338 c 0
657 338 m 0
 657 510 525 649 353 649 c 0
 182 649 43 510 43 338 c 0
 43 167 182 28 353 28 c 0
 525 28 657 167 657 338 c 0
EndSplineSet
Validated: 1
EndChar

StartChar: uni24DE
Encoding: 374 9438 118
Width: 700
Flags: W
HStem: -15 43<245.975 461.681> 190 29<316.672 406.168> 433 29<297.002 393.67> 649 43<243.309 458.735>
VStem: 0 43<231.882 444.797> 205 61<265.389 401.984> 439 61<252.053 395.111> 657 43<224.011 451.738>
LayerCount: 2
Fore
SplineSet
500 328 m 0
 500 248 441 190 351 190 c 0
 268 190 205 247 205 326 c 0
 205 408 265 462 356 462 c 0
 438 462 500 409 500 328 c 0
439 314 m 0
 439 372 413 433 344 433 c 0
 299 433 266 403 266 352 c 0
 266 292 294 219 362 219 c 0
 409 219 439 254 439 314 c 0
700 338 m 0
 700 140 547 -15 351 -15 c 0
 154 -15 0 141 0 338 c 0
 0 537 155 692 356 692 c 0
 546 692 700 533 700 338 c 0
657 338 m 0
 657 510 525 649 353 649 c 0
 182 649 43 510 43 338 c 0
 43 167 182 28 353 28 c 0
 525 28 657 167 657 338 c 0
EndSplineSet
Validated: 1
EndChar

StartChar: uni24DF
Encoding: 375 9439 119
Width: 700
Flags: W
HStem: -15 43<245.975 461.681> 144 21<195 237.235 308.931 361> 261 32<314.739 419.801> 486 29<199 216.673> 489 47<326.455 423.461> 649 43<243.309 458.735>
VStem: 0 43<231.882 444.797> 243 58<168.616 284 302.99 476.972> 452 60<327.882 460.235> 657 43<224.011 451.738>
LayerCount: 2
Fore
SplineSet
301 535 m 1xefc0
 301 492 l 1
 331 524 362 536 399 536 c 0xefc0
 465 536 512 484 512 410 c 0
 512 324 451 261 370 261 c 0
 343 261 320 269 301 284 c 1
 301 203 l 2
 301 172 310 166 361 165 c 1
 361 144 l 1
 195 144 l 1
 195 165 l 1
 236 168 243 173 243 197 c 2
 243 462 l 2
 243 483 239 488 217 488 c 0
 210 488 205 487 199 486 c 1
 199 515 l 1xf7c0
 234 523 262 524 295 536 c 1
 301 535 l 1xefc0
301 457 m 1
 301 325 l 1
 315 302 335 293 371 293 c 0
 420 293 452 328 452 387 c 0
 452 449 420 489 370 489 c 0
 340 489 315 478 301 457 c 1
700 338 m 0
 700 140 547 -15 351 -15 c 0
 154 -15 0 141 0 338 c 0
 0 537 155 692 356 692 c 0
 546 692 700 533 700 338 c 0
657 338 m 0
 657 510 525 649 353 649 c 0
 182 649 43 510 43 338 c 0
 43 167 182 28 353 28 c 0
 525 28 657 167 657 338 c 0
EndSplineSet
Validated: 1
EndChar

StartChar: uni24E0
Encoding: 376 9440 120
Width: 700
Flags: W
HStem: -15 43<245.975 461.681> 144 21<350 400.712 471.797 510> 260 48<283.407 385.221> 507 29<296.192 396.129> 649 43<243.309 458.735>
VStem: 0 43<231.882 444.797> 195 60<337.446 466.338> 410 58<169.535 302 318.266 498.307> 657 43<224.011 451.738>
LayerCount: 2
Fore
SplineSet
510 144 m 1
 350 144 l 1
 350 165 l 1
 399 167 410 174 410 200 c 2
 410 302 l 1
 380 274 354 260 307 260 c 0
 243 260 195 311 195 387 c 0
 195 473 260 536 346 536 c 0
 371 536 391 532 423 516 c 1
 461 535 l 1
 468 535 l 1
 468 191 l 2
 468 172 474 168 510 165 c 1
 510 144 l 1
410 350 m 2
 410 457 l 2
 410 491 389 507 348 507 c 0
 292 507 255 471 255 407 c 0
 255 352 281 308 343 308 c 0
 370 308 410 318 410 350 c 2
700 338 m 0
 700 140 547 -15 351 -15 c 0
 154 -15 0 141 0 338 c 0
 0 537 155 692 356 692 c 0
 546 692 700 533 700 338 c 0
657 338 m 0
 657 510 525 649 353 649 c 0
 182 649 43 510 43 338 c 0
 43 167 182 28 353 28 c 0
 525 28 657 167 657 338 c 0
EndSplineSet
Validated: 1
EndChar

StartChar: uni24E1
Encoding: 377 9441 121
Width: 700
Flags: W
HStem: -15 43<245.975 461.681> 190 21<241 282.5 356.649 405> 409 21<243 268.58> 414 48<379.101 451.031> 649 43<243.309 458.735>
VStem: 0 43<231.882 444.797> 291 57<216.446 403.969 408 409.995> 657 43<224.011 451.738>
LayerCount: 2
Fore
SplineSet
348 408 m 1xdf
 349 408 l 1
 383 449 401 462 428 462 c 0
 452 462 468 448 468 425 c 0
 468 406 455 393 438 393 c 0
 415 393 413 414 394 414 c 0xdf
 375 414 348 389 348 374 c 2
 348 246 l 2
 348 220 360 212 405 211 c 1
 405 190 l 1
 241 190 l 1
 241 211 l 1
 285 218 291 221 291 242 c 2
 291 383 l 2
 291 403 284 410 269 410 c 0
 260 410 254 410 243 409 c 1
 243 430 l 1xef
 283 441 309 450 344 462 c 1
 348 460 l 1
 348 408 l 1xdf
700 338 m 0
 700 140 547 -15 351 -15 c 0
 154 -15 0 141 0 338 c 0
 0 537 155 692 356 692 c 0
 546 692 700 533 700 338 c 0
657 338 m 0
 657 510 525 649 353 649 c 0
 182 649 43 510 43 338 c 0
 43 167 182 28 353 28 c 0
 525 28 657 167 657 338 c 0
EndSplineSet
Validated: 1
EndChar

StartChar: uni24E2
Encoding: 378 9442 122
Width: 700
Flags: W
HStem: -15 43<245.975 461.681> 190 25<305.176 391.508> 436 26<305.876 388.338> 649 43<243.309 458.735>
VStem: 0 43<231.882 444.797> 253 45<377.475 431.732> 256 20<250.656 292> 403 49<220.743 275.808> 411 21<368 407.377> 657 43<224.011 451.738>
LayerCount: 2
Fore
SplineSet
432 368 m 1xf8c0
 411 368 l 1
 406 418 385 436 346 436 c 0
 318 436 298 426 298 405 c 0xfcc0
 298 395 308 383 325 374 c 0
 347 362 371 351 394 339 c 0
 436 315 452 301 452 265 c 0
 452 225 410 190 359 190 c 0
 346 190 326 190 311 194 c 0
 296 199 287 199 280 199 c 0
 272 199 268 198 265 193 c 1
 256 193 l 1
 256 292 l 1
 276 292 l 1xfb40
 280 239 305 215 351 215 c 0
 383 215 403 230 403 249 c 0
 403 263 390 274 335 301 c 0
 278 328 253 354 253 387 c 0
 253 434 291 462 347 462 c 0
 375 462 387 451 403 451 c 0xfd40
 407 451 410 451 414 456 c 1
 429 456 l 1
 432 368 l 1xf8c0
700 338 m 0
 700 140 547 -15 351 -15 c 0
 154 -15 0 141 0 338 c 0
 0 537 155 692 356 692 c 0
 546 692 700 533 700 338 c 0
657 338 m 0
 657 510 525 649 353 649 c 0
 182 649 43 510 43 338 c 0
 43 167 182 28 353 28 c 0
 525 28 657 167 657 338 c 0
EndSplineSet
Validated: 1
EndChar

StartChar: uni24E3
Encoding: 379 9443 123
Width: 700
Flags: W
HStem: -15 43<245.975 461.681> 136 47<353.826 417.858> 411 33<349 427> 649 43<243.309 458.735>
VStem: 0 43<231.882 444.797> 248 109<424 520> 292 57<186.545 411> 657 43<224.011 451.738>
LayerCount: 2
Fore
SplineSet
437 206 m 1xfb
 451 192 l 1
 420 151 389 136 358 136 c 0
 317 136 292 161 292 221 c 2
 292 411 l 1xfb
 257 411 l 2
 253 411 248 418 248 424 c 0
 248 431 253 437 261 442 c 0
 280 454 307 483 328 516 c 0
 333 523 343 536 351 536 c 0
 355 536 357 532 357 520 c 2xfd
 349 444 l 1
 427 444 l 1
 427 411 l 1
 349 411 l 1
 349 236 l 2
 349 200 360 183 386 183 c 0
 404 183 420 189 437 206 c 1xfb
700 338 m 0
 700 140 547 -15 351 -15 c 0
 154 -15 0 141 0 338 c 0
 0 537 155 692 356 692 c 0
 546 692 700 533 700 338 c 0
657 338 m 0
 657 510 525 649 353 649 c 0
 182 649 43 510 43 338 c 0
 43 167 182 28 353 28 c 0
 525 28 657 167 657 338 c 0
EndSplineSet
Validated: 1
EndChar

StartChar: uni24E4
Encoding: 380 9444 124
Width: 700
Flags: W
HStem: -15 43<245.975 461.681> 190 44<299.197 380.743> 218 19<473.652 512> 440 21<194 230.244 362 406.727> 649 43<243.309 458.735>
VStem: 0 43<231.882 444.797> 236 58<240.888 437.562> 412 58<247.547 437.245> 657 43<224.011 451.738>
LayerCount: 2
Fore
SplineSet
512 237 m 1xbf80
 512 218 l 1xbf80
 478 211 452 203 421 190 c 1
 415 193 l 1
 415 240 l 1
 380 203 343 190 318 190 c 0
 265 190 236 223 236 269 c 2
 236 410 l 2
 236 432 226 438 194 440 c 1
 194 461 l 1
 294 461 l 1
 294 274 l 2
 294 252 315 234 341 234 c 0xdf80
 368 234 412 249 412 279 c 2
 412 411 l 2
 412 434 402 438 362 440 c 1
 362 461 l 1
 470 461 l 1
 470 264 l 2
 470 246 475 237 495 237 c 2
 512 237 l 1xbf80
700 338 m 0
 700 140 547 -15 351 -15 c 0
 154 -15 0 141 0 338 c 0
 0 537 155 692 356 692 c 0
 546 692 700 533 700 338 c 0
657 338 m 0
 657 510 525 649 353 649 c 0
 182 649 43 510 43 338 c 0
 43 167 182 28 353 28 c 0
 525 28 657 167 657 338 c 0
EndSplineSet
Validated: 1
EndChar

StartChar: uni24E5
Encoding: 381 9445 125
Width: 700
Flags: W
HStem: -15 43<245.975 461.681> 440 21<199 228.703 302.005 333 410 440.736 481.112 508> 649 43<243.309 458.735>
VStem: 0 43<231.882 444.797> 657 43<224.011 451.738>
LayerCount: 2
Fore
SplineSet
508 461 m 1
 508 440 l 1
 485 438 480 434 464 400 c 2
 379 223 l 2
 367 199 362 190 359 190 c 0
 355 190 349 204 343 216 c 2
 260 381 l 2
 233 433 226 438 199 440 c 1
 199 461 l 1
 333 461 l 1
 333 440 l 1
 309 438 302 435 302 431 c 0
 302 428 304 422 308 413 c 2
 374 274 l 1
 375 274 l 1
 437 411 l 2
 439 417 441 422 441 428 c 0
 441 434 431 438 410 440 c 1
 410 461 l 1
 508 461 l 1
700 338 m 0
 700 140 547 -15 351 -15 c 0
 154 -15 0 141 0 338 c 0
 0 537 155 692 356 692 c 0
 546 692 700 533 700 338 c 0
657 338 m 0
 657 510 525 649 353 649 c 0
 182 649 43 510 43 338 c 0
 43 167 182 28 353 28 c 0
 525 28 657 167 657 338 c 0
EndSplineSet
Validated: 1
EndChar

StartChar: uni24E6
Encoding: 382 9446 126
Width: 700
Flags: W
HStem: -15 43<245.975 461.681> 440 21<126 149.617 218.018 248 286 317.621 386.223 425 490 520.329 559.404 580> 649 43<243.309 458.735>
VStem: 0 43<231.882 444.797> 657 43<224.011 451.738>
LayerCount: 2
Fore
SplineSet
580 461 m 1
 580 440 l 1
 568 439 557 431 550 415 c 2
 460 223 l 2
 450 204 445 190 439 190 c 0
 435 190 430 200 422 218 c 2
 361 346 l 1
 287 216 l 2
 278 199 272 190 268 190 c 0
 264 190 260 199 251 218 c 2
 161 410 l 2
 148 436 143 439 126 440 c 1
 126 461 l 1
 248 461 l 1
 248 440 l 1
 224 438 218 435 218 429 c 0
 218 426 219 422 222 415 c 2
 286 271 l 1
 345 379 l 1
 333 406 l 2
 321 432 313 438 286 440 c 1
 286 461 l 1
 425 461 l 1
 425 440 l 1
 394 438 386 434 386 428 c 0
 386 425 387 421 390 414 c 2
 453 274 l 1
 455 274 l 1
 514 404 l 2
 517 413 521 421 521 426 c 0
 521 433 514 439 490 440 c 1
 490 461 l 1
 580 461 l 1
700 338 m 0
 700 140 547 -15 351 -15 c 0
 154 -15 0 141 0 338 c 0
 0 537 155 692 356 692 c 0
 546 692 700 533 700 338 c 0
657 338 m 0
 657 510 525 649 353 649 c 0
 182 649 43 510 43 338 c 0
 43 167 182 28 353 28 c 0
 525 28 657 167 657 338 c 0
EndSplineSet
Validated: 1
EndChar

StartChar: uni24E7
Encoding: 383 9447 127
Width: 700
Flags: W
HStem: -15 43<245.975 461.681> 190 21<193 228.068 271.004 296 371 400.995 477.167 514> 440 21<197 237.985 314.006 343 370 397.996 439.928 482> 649 43<243.309 458.735>
VStem: 0 43<231.882 444.797> 657 43<224.011 451.738>
LayerCount: 2
Fore
SplineSet
514 190 m 1
 371 190 l 1
 371 211 l 1
 394 212 401 213 401 217 c 0
 401 219 400 221 397 225 c 2
 336 305 l 1
 279 231 l 2
 273 224 271 220 271 217 c 0
 271 214 276 212 296 211 c 1
 296 190 l 1
 193 190 l 1
 193 211 l 1
 220 213 226 216 243 237 c 2
 317 331 l 1
 258 408 l 2
 239 433 227 440 206 440 c 2
 197 440 l 1
 197 461 l 1
 343 461 l 1
 343 440 l 1
 322 439 314 437 314 433 c 0
 314 430 320 421 332 406 c 2
 354 377 l 1
 372 400 l 2
 388 421 398 430 398 434 c 0
 398 438 392 439 370 440 c 1
 370 461 l 1
 482 461 l 1
 482 440 l 1
 457 439 436 431 426 418 c 2
 372 351 l 1
 456 242 l 2
 472 222 488 211 506 211 c 2
 514 211 l 1
 514 190 l 1
700 338 m 0
 700 140 547 -15 351 -15 c 0
 154 -15 0 141 0 338 c 0
 0 537 155 692 356 692 c 0
 546 692 700 533 700 338 c 0
657 338 m 0
 657 510 525 649 353 649 c 0
 182 649 43 510 43 338 c 0
 43 167 182 28 353 28 c 0
 525 28 657 167 657 338 c 0
EndSplineSet
Validated: 1
EndChar

StartChar: uni24E8
Encoding: 384 9448 128
Width: 700
Flags: W
HStem: -15 43<245.975 461.681> 137 62<223.277 312.371> 516 20<192 222.927 297.007 336 419 448.993 488.144 512> 649 43<243.309 458.735>
VStem: 0 43<231.882 444.797> 657 43<224.011 451.738>
LayerCount: 2
Fore
SplineSet
512 536 m 1
 512 516 l 1
 493 513 485 507 478 490 c 2
 375 255 l 2
 337 170 304 137 253 137 c 0
 221 137 204 154 204 178 c 0
 204 196 220 211 237 211 c 0
 261 211 267 199 284 199 c 0
 299 199 310 212 321 224 c 0
 335 240 348 272 348 279 c 0
 348 286 333 313 322 332 c 2
 229 499 l 2
 224 509 211 513 192 516 c 1
 192 536 l 1
 336 536 l 1
 336 516 l 1
 306 514 297 512 297 506 c 0
 297 504 300 494 305 486 c 2
 382 345 l 1
 443 491 l 2
 445 495 449 515 449 515 c 2
 449 520 439 516 419 516 c 1
 419 536 l 1
 512 536 l 1
700 338 m 0
 700 140 547 -15 351 -15 c 0
 154 -15 0 141 0 338 c 0
 0 537 155 692 356 692 c 0
 546 692 700 533 700 338 c 0
657 338 m 0
 657 510 525 649 353 649 c 0
 182 649 43 510 43 338 c 0
 43 167 182 28 353 28 c 0
 525 28 657 167 657 338 c 0
EndSplineSet
Validated: 1
EndChar

StartChar: uni24E9
Encoding: 385 9449 129
Width: 700
Flags: W
HStem: -15 43<245.975 461.681> 190 31<300 446.613> 430 31<265.999 394> 649 43<243.309 458.735>
VStem: 0 43<231.882 444.797> 234 22<380 415.667> 468 21<248.839 281> 657 43<224.011 451.738>
LayerCount: 2
Fore
SplineSet
489 281 m 1
 476 190 l 1
 217 190 l 1
 217 209 l 1
 394 430 l 1
 315 430 l 2
 273 430 260 421 256 380 c 1
 234 380 l 1
 237 461 l 1
 477 461 l 1
 477 441 l 1
 300 221 l 1
 376 221 l 2
 414 221 439 226 447 234 c 0
 457 244 461 253 468 281 c 1
 489 281 l 1
700 338 m 0
 700 140 547 -15 351 -15 c 0
 154 -15 0 141 0 338 c 0
 0 537 155 692 356 692 c 0
 546 692 700 533 700 338 c 0
657 338 m 0
 657 510 525 649 353 649 c 0
 182 649 43 510 43 338 c 0
 43 167 182 28 353 28 c 0
 525 28 657 167 657 338 c 0
EndSplineSet
Validated: 1
EndChar

StartChar: uni24EA
Encoding: 386 9450 130
Width: 700
Flags: W
HStem: -15 43<245.975 461.681> 137 28<313.775 393.235> 502 27<314.565 389.731> 649 43<243.309 458.735>
VStem: 0 43<231.882 444.797> 206 64<216.593 444.108> 436 64<217.634 440.3> 657 43<224.011 451.738>
LayerCount: 2
Fore
SplineSet
500 328 m 0
 500 229 459 137 353 137 c 0
 241 137 206 236 206 333 c 0
 206 436 251 529 355 529 c 0
 441 529 500 447 500 328 c 0
436 325 m 0
 436 438 407 502 351 502 c 0
 299 502 270 437 270 328 c 0
 270 219 298 165 353 165 c 0
 407 165 436 219 436 325 c 0
700 338 m 0
 700 140 547 -15 351 -15 c 0
 154 -15 0 141 0 338 c 0
 0 537 155 692 356 692 c 0
 546 692 700 533 700 338 c 0
657 338 m 0
 657 510 525 649 353 649 c 0
 182 649 43 510 43 338 c 0
 43 167 182 28 353 28 c 0
 525 28 657 167 657 338 c 0
EndSplineSet
Validated: 1
EndChar

StartChar: uniE061
Encoding: 387 57441 131
Width: 700
Flags: W
HStem: -15 43<245.975 461.681> 144 21<266 314 390.058 445> 649 43<243.309 458.735>
VStem: 0 43<231.882 444.797> 326 58<170.627 468.996> 657 43<224.011 451.738>
LayerCount: 2
Fore
SplineSet
445 144 m 5
 266 144 l 5
 266 165 l 5
 314 167 326 177 326 203 c 6
 326 448 l 6
 326 463 321 469 310 469 c 4
 304 469 292 468 280 464 c 6
 262 456 l 5
 262 477 l 5
 378 529 l 5
 384 527 l 5
 384 192 l 6
 384 172 397 165 445 165 c 5
 445 144 l 5
700 338 m 0
 700 140 547 -15 351 -15 c 0
 154 -15 0 141 0 338 c 0
 0 537 155 692 356 692 c 0
 546 692 700 533 700 338 c 0
657 338 m 0
 657 510 525 649 353 649 c 0
 182 649 43 510 43 338 c 0
 43 167 182 28 353 28 c 0
 525 28 657 167 657 338 c 0
EndSplineSet
Validated: 1
EndChar

StartChar: uniE062
Encoding: 388 57442 132
Width: 700
Flags: W
HStem: -15 43<245.975 461.681> 144 55<287 460> 474 55<269.091 385.027> 649 43<243.309 458.735>
VStem: 0 43<231.882 444.797> 206 19<399.421 411.943> 406 58<348.606 452.994> 657 43<224.011 451.738>
LayerCount: 2
Fore
SplineSet
502 232 m 5
 460 144 l 5
 207 144 l 5
 207 164 l 5
 321 261 l 6
 384 314 406 357 406 402 c 4
 406 448 371 474 317 474 c 4
 270 474 252 450 225 395 c 5
 206 402 l 5
 222 475 264 529 344 529 c 4
 418 529 464 483 464 424 c 4
 464 376 440 329 382 279 c 6
 287 199 l 5
 420 199 l 6
 447 199 461 209 481 239 c 5
 502 232 l 5
700 338 m 0
 700 140 547 -15 351 -15 c 0
 154 -15 0 141 0 338 c 0
 0 537 155 692 356 692 c 0
 546 692 700 533 700 338 c 0
657 338 m 0
 657 510 525 649 353 649 c 0
 182 649 43 510 43 338 c 0
 43 167 182 28 353 28 c 0
 525 28 657 167 657 338 c 0
EndSplineSet
Validated: 1
EndChar

StartChar: uniE063
Encoding: 389 57443 133
Width: 700
Flags: W
HStem: -15 43<245.975 461.681> 137 34<293.71 392.102> 321 22<299 335.536> 482 47<284.306 396.483> 649 43<243.309 458.735>
VStem: 0 43<231.882 444.797> 405 54<393.807 471.907> 433 48<203.673 297.026> 657 43<224.011 451.738>
LayerCount: 2
Fore
SplineSet
246 421 m 5xfe80
 225 427 l 5
 248 487 290 529 357 529 c 4
 419 529 459 495 459 446 c 4xfe80
 459 420 445 393 409 370 c 5
 453 354 481 324 481 272 c 4
 481 177 387 137 300 137 c 4
 252 137 226 152 226 176 c 4
 226 192 238 204 255 204 c 4
 264 204 274 199 295 187 c 4
 317 174 331 171 349 171 c 4
 395 171 433 204 433 248 c 4xfd80
 433 285 410 308 366 317 c 4
 351 320 338 321 299 321 c 5
 299 343 l 5
 329 351 346 357 355 361 c 4
 387 377 405 400 405 432 c 4
 405 466 379 482 338 482 c 4
 295 482 270 462 246 421 c 5xfe80
700 338 m 0
 700 140 547 -15 351 -15 c 0
 154 -15 0 141 0 338 c 0
 0 537 155 692 356 692 c 0
 546 692 700 533 700 338 c 0
657 338 m 0
 657 510 525 649 353 649 c 0
 182 649 43 510 43 338 c 0
 43 167 182 28 353 28 c 0
 525 28 657 167 657 338 c 0
EndSplineSet
Validated: 1
EndChar

StartChar: uniE064
Encoding: 390 57444 134
Width: 700
Flags: W
HStem: -15 43<245.975 461.681> 233 49<208 353 410 475> 649 43<243.309 458.735>
VStem: 0 43<231.882 444.797> 353 57<144 233 282 457> 657 43<224.011 451.738>
LayerCount: 2
Fore
SplineSet
475 233 m 5
 410 233 l 5
 410 144 l 5
 353 144 l 5
 353 233 l 5
 171 233 l 5
 171 279 l 5
 377 529 l 5
 410 529 l 5
 410 282 l 5
 475 282 l 5
 475 233 l 5
353 282 m 5
 353 457 l 5
 208 282 l 5
 353 282 l 5
700 338 m 0
 700 140 547 -15 351 -15 c 0
 154 -15 0 141 0 338 c 0
 0 537 155 692 356 692 c 0
 546 692 700 533 700 338 c 0
657 338 m 0
 657 510 525 649 353 649 c 0
 182 649 43 510 43 338 c 0
 43 167 182 28 353 28 c 0
 525 28 657 167 657 338 c 0
EndSplineSet
Validated: 1
EndChar

StartChar: uniE065
Encoding: 391 57445 135
Width: 700
Flags: W
HStem: -15 43<245.975 461.681> 137 35<283.921 378.054> 471 58<305 453.818> 649 43<243.309 458.735>
VStem: 0 43<231.882 444.797> 418 47<207.546 318.498> 657 43<224.011 451.738>
LayerCount: 2
Fore
SplineSet
475 534 m 5
 449 483 l 6
 445 475 440 471 428 471 c 6
 305 471 l 5
 284 437 l 5
 390 418 465 391 465 287 c 4
 465 187 386 137 291 137 c 4
 240 137 208 151 208 176 c 4
 208 194 218 207 238 207 c 4
 255 207 263 204 286 188 c 4
 303 177 317 172 332 172 c 4
 377 172 418 215 418 260 c 4
 418 343 323 376 238 376 c 4
 230 376 227 378 227 386 c 4
 227 390 229 393 230 395 c 6
 302 529 l 5
 427 529 l 6
 443 529 448 534 456 545 c 5
 475 534 l 5
700 338 m 0
 700 140 547 -15 351 -15 c 0
 154 -15 0 141 0 338 c 0
 0 537 155 692 356 692 c 0
 546 692 700 533 700 338 c 0
657 338 m 0
 657 510 525 649 353 649 c 0
 182 649 43 510 43 338 c 0
 43 167 182 28 353 28 c 0
 525 28 657 167 657 338 c 0
EndSplineSet
Validated: 1
EndChar

StartChar: uniE066
Encoding: 392 57446 136
Width: 700
Flags: W
HStem: -15 43<245.975 461.681> 137 30<300.391 392.129> 354 38<284.801 388.64> 504 25<410.694 463> 649 43<243.309 458.735>
VStem: 0 43<231.882 444.797> 190 67<209.701 338.443> 415 62<195.224 328.889> 657 43<224.011 451.738>
LayerCount: 2
Fore
SplineSet
463 529 m 5
 463 504 l 5
 364 488 296 443 276 368 c 5
 308 388 329 392 355 392 c 4
 432 392 477 345 477 269 c 4
 477 192 418 137 342 137 c 4
 251 137 190 204 190 291 c 4
 190 354 221 414 265 455 c 4
 323 508 375 521 463 529 c 5
415 251 m 4
 415 318 390 354 333 354 c 4
 295 354 257 340 257 294 c 4
 257 214 289 167 349 167 c 4
 394 167 415 197 415 251 c 4
700 338 m 0
 700 140 547 -15 351 -15 c 0
 154 -15 0 141 0 338 c 0
 0 537 155 692 356 692 c 0
 546 692 700 533 700 338 c 0
657 338 m 0
 657 510 525 649 353 649 c 0
 182 649 43 510 43 338 c 0
 43 167 182 28 353 28 c 0
 525 28 657 167 657 338 c 0
EndSplineSet
Validated: 1
EndChar

StartChar: uniE067
Encoding: 393 57447 137
Width: 700
Flags: W
HStem: -15 43<245.975 461.681> 472 57<242 424> 649 43<243.309 458.735>
VStem: 0 43<231.882 444.797> 657 43<224.011 451.738>
LayerCount: 2
Fore
SplineSet
483 512 m 5
 344 137 l 5
 297 137 l 5
 424 472 l 5
 292 472 l 6
 254 472 242 463 216 426 c 5
 197 435 l 5
 242 529 l 5
 483 529 l 5
 483 512 l 5
700 338 m 0
 700 140 547 -15 351 -15 c 0
 154 -15 0 141 0 338 c 0
 0 537 155 692 356 692 c 0
 546 692 700 533 700 338 c 0
657 338 m 0
 657 510 525 649 353 649 c 0
 182 649 43 510 43 338 c 0
 43 167 182 28 353 28 c 0
 525 28 657 167 657 338 c 0
EndSplineSet
Validated: 1
EndChar

StartChar: uniE068
Encoding: 394 57448 138
Width: 700
Flags: W
HStem: -15 43<245.975 461.681> 137 30<301.278 410.923> 499 30<295.929 398.791> 649 43<243.309 458.735>
VStem: 0 43<231.882 444.797> 222 55<184.414 286.89> 229 50<408.817 486.829> 419 47<396.439 485.639> 428 57<178.646 263.872> 657 43<224.011 451.738>
LayerCount: 2
Fore
SplineSet
485 237 m 4xf8c0
 485 176 429 137 350 137 c 4
 276 137 222 168 222 224 c 4xfcc0
 222 264 239 296 301 334 c 5
 242 378 229 396 229 436 c 4
 229 492 282 529 356 529 c 4
 421 529 466 493 466 448 c 4xfb40
 466 404 445 382 389 355 c 5
 460 312 485 283 485 237 c 4xf8c0
419 442 m 4xfb40
 419 477 393 499 350 499 c 4
 308 499 279 482 279 451 c 4
 279 421 304 400 359 371 c 5
 401 394 419 411 419 442 c 4xfb40
365 295 m 6
 328 316 l 5
 290 290 277 267 277 235 c 4
 277 187 310 167 358 167 c 4
 398 167 428 184 428 216 c 4xfcc0
 428 246 408 270 365 295 c 6
700 338 m 0
 700 140 547 -15 351 -15 c 0
 154 -15 0 141 0 338 c 0
 0 537 155 692 356 692 c 0
 546 692 700 533 700 338 c 0
657 338 m 0
 657 510 525 649 353 649 c 0
 182 649 43 510 43 338 c 0
 43 167 182 28 353 28 c 0
 525 28 657 167 657 338 c 0
EndSplineSet
Validated: 1
EndChar

StartChar: uniE069
Encoding: 395 57449 139
Width: 700
Flags: W
HStem: -15 43<245.975 461.681> 137 26<234 287.839> 270 38<305.117 408.769> 499 30<303.208 393.164> 649 43<243.309 458.735>
VStem: 0 43<231.882 444.797> 214 61<335.55 468.911> 427 66<317.196 454.439> 657 43<224.011 451.738>
LayerCount: 2
Fore
SplineSet
234 137 m 5
 234 163 l 5
 328 177 395 217 423 299 c 5
 396 277 365 270 331 270 c 4
 260 270 214 318 214 391 c 4
 214 470 270 529 349 529 c 4
 443 529 493 451 493 364 c 4
 493 298 467 242 414 201 c 4
 359 157 315 147 234 137 c 5
427 341 m 6
 427 376 l 6
 427 466 399 499 344 499 c 4
 296 499 275 456 275 409 c 4
 275 347 306 308 353 308 c 4
 382 308 427 316 427 341 c 6
700 338 m 0
 700 140 547 -15 351 -15 c 0
 154 -15 0 141 0 338 c 0
 0 537 155 692 356 692 c 0
 546 692 700 533 700 338 c 0
657 338 m 0
 657 510 525 649 353 649 c 0
 182 649 43 510 43 338 c 0
 43 167 182 28 353 28 c 0
 525 28 657 167 657 338 c 0
EndSplineSet
Validated: 1
EndChar

StartChar: uniE060
Encoding: 396 57440 140
Width: 700
Flags: W
HStem: -15 43<245.975 461.681> 137 28<313.775 393.235> 502 27<314.565 389.731> 649 43<243.309 458.735>
VStem: 0 43<231.882 444.797> 206 64<216.593 444.108> 436 64<217.634 440.3> 657 43<224.011 451.738>
LayerCount: 2
Fore
SplineSet
500 328 m 4
 500 229 459 137 353 137 c 4
 241 137 206 236 206 333 c 4
 206 436 251 529 355 529 c 4
 441 529 500 447 500 328 c 4
436 325 m 4
 436 438 407 502 351 502 c 4
 299 502 270 437 270 328 c 4
 270 219 298 165 353 165 c 4
 407 165 436 219 436 325 c 4
700 338 m 0
 700 140 547 -15 351 -15 c 0
 154 -15 0 141 0 338 c 0
 0 537 155 692 356 692 c 0
 546 692 700 533 700 338 c 0
657 338 m 0
 657 510 525 649 353 649 c 0
 182 649 43 510 43 338 c 0
 43 167 182 28 353 28 c 0
 525 28 657 167 657 338 c 0
EndSplineSet
Validated: 1
EndChar

StartChar: zero.init
Encoding: 397 57456 141
Width: 505
Flags: W
HStem: -15 43<246.495 505> 137 28<294.775 374.235> 502 27<295.565 370.731> 649 43<246.495 505>
VStem: 0 43<231.882 444.797> 187 64<216.593 444.108> 417 64<217.634 440.3>
LayerCount: 2
Fore
SplineSet
481 328 m 0
 481 229 440 137 334 137 c 0
 222 137 187 236 187 333 c 0
 187 436 232 529 336 529 c 0
 422 529 481 447 481 328 c 0
417 325 m 0
 417 438 388 502 332 502 c 0
 280 502 251 437 251 328 c 0
 251 219 279 165 334 165 c 0
 388 165 417 219 417 325 c 0
353 28 m 0
 505 28 l 25
 505 -15 l 1
 445 -15 547 -15 351 -15 c 0
 154 -15 0 141 0 338 c 0
 0 537 155 692 356 692 c 0
 505 692 l 25
 505 649 l 1
 446 649 525 649 353 649 c 0
 182 649 43 510 43 338 c 0
 43 167 182 28 353 28 c 0
EndSplineSet
Validated: 1
EndChar

StartChar: one.init
Encoding: 398 57457 142
Width: 505
Flags: W
HStem: -15 43<246.495 505> 144 21<295 343 419.058 474> 649 43<246.495 505>
VStem: 0 43<231.882 444.797> 355 58<170.627 468.996>
LayerCount: 2
Fore
SplineSet
474 144 m 1
 295 144 l 1
 295 165 l 1
 343 167 355 177 355 203 c 2
 355 448 l 2
 355 463 350 469 339 469 c 0
 333 469 321 468 309 464 c 2
 291 456 l 1
 291 477 l 1
 407 529 l 1
 413 527 l 1
 413 192 l 2
 413 172 426 165 474 165 c 1
 474 144 l 1
353 28 m 0
 505 28 l 25
 505 -15 l 1
 445 -15 547 -15 351 -15 c 0
 154 -15 0 141 0 338 c 0
 0 537 155 692 356 692 c 0
 505 692 l 25
 505 649 l 1
 446 649 525 649 353 649 c 0
 182 649 43 510 43 338 c 0
 43 167 182 28 353 28 c 0
EndSplineSet
Validated: 1
EndChar

StartChar: two.init
Encoding: 399 57458 143
Width: 505
Flags: W
HStem: -15 43<246.495 505> 144 55<284 457> 474 55<266.091 382.027> 649 43<246.495 505>
VStem: 0 43<231.882 444.797> 203 19<399.421 411.943> 403 58<348.606 452.994>
LayerCount: 2
Fore
SplineSet
499 232 m 1
 457 144 l 1
 204 144 l 1
 204 164 l 1
 318 261 l 2
 381 314 403 357 403 402 c 0
 403 448 368 474 314 474 c 0
 267 474 249 450 222 395 c 1
 203 402 l 1
 219 475 261 529 341 529 c 0
 415 529 461 483 461 424 c 0
 461 376 437 329 379 279 c 2
 284 199 l 1
 417 199 l 2
 444 199 458 209 478 239 c 1
 499 232 l 1
353 28 m 0
 505 28 l 25
 505 -15 l 1
 445 -15 547 -15 351 -15 c 0
 154 -15 0 141 0 338 c 0
 0 537 155 692 356 692 c 0
 505 692 l 25
 505 649 l 1
 446 649 525 649 353 649 c 0
 182 649 43 510 43 338 c 0
 43 167 182 28 353 28 c 0
EndSplineSet
Validated: 1
EndChar

StartChar: three.init
Encoding: 400 57459 144
Width: 503
Flags: W
HStem: -15 43<246.495 505> 137 34<293.71 392.102> 321 22<299 335.536> 482 47<284.306 396.483> 649 43<246.495 505>
VStem: 0 43<231.882 444.797> 405 54<393.807 471.907> 433 48<203.673 297.026>
LayerCount: 2
Fore
SplineSet
246 421 m 1xfe
 225 427 l 1
 248 487 290 529 357 529 c 0
 419 529 459 495 459 446 c 0xfe
 459 420 445 393 409 370 c 1
 453 354 481 324 481 272 c 0
 481 177 387 137 300 137 c 0
 252 137 226 152 226 176 c 0
 226 192 238 204 255 204 c 0
 264 204 274 199 295 187 c 0
 317 174 331 171 349 171 c 0
 395 171 433 204 433 248 c 0xfd
 433 285 410 308 366 317 c 0
 351 320 338 321 299 321 c 1
 299 343 l 1
 329 351 346 357 355 361 c 0
 387 377 405 400 405 432 c 0
 405 466 379 482 338 482 c 0
 295 482 270 462 246 421 c 1xfe
353 28 m 0
 505 28 l 25
 505 -15 l 1
 445 -15 547 -15 351 -15 c 0
 154 -15 0 141 0 338 c 0
 0 537 155 692 356 692 c 0
 505 692 l 25
 505 649 l 1
 446 649 525 649 353 649 c 0
 182 649 43 510 43 338 c 0
 43 167 182 28 353 28 c 0
EndSplineSet
Validated: 1
EndChar

StartChar: four.init
Encoding: 401 57460 145
Width: 505
Flags: W
HStem: -15 43<246.495 505> 233 49<208 353 410 475> 649 43<246.495 505>
VStem: 0 43<231.882 444.797> 353 57<144 233 282 457>
LayerCount: 2
Fore
SplineSet
475 233 m 1
 410 233 l 1
 410 144 l 1
 353 144 l 1
 353 233 l 1
 171 233 l 1
 171 279 l 1
 377 529 l 1
 410 529 l 1
 410 282 l 1
 475 282 l 1
 475 233 l 1
353 282 m 1
 353 457 l 1
 208 282 l 1
 353 282 l 1
353 28 m 0
 505 28 l 25
 505 -15 l 1
 445 -15 547 -15 351 -15 c 0
 154 -15 0 141 0 338 c 0
 0 537 155 692 356 692 c 0
 505 692 l 25
 505 649 l 1
 446 649 525 649 353 649 c 0
 182 649 43 510 43 338 c 0
 43 167 182 28 353 28 c 0
EndSplineSet
Validated: 1
EndChar

StartChar: five.init
Encoding: 402 57461 146
Width: 505
Flags: W
HStem: -15 43<246.495 505> 137 35<289.921 384.054> 471 58<311 459.818> 649 43<246.495 505>
VStem: 0 43<231.882 444.797> 424 47<207.546 318.498>
LayerCount: 2
Fore
SplineSet
481 534 m 1
 455 483 l 2
 451 475 446 471 434 471 c 2
 311 471 l 1
 290 437 l 1
 396 418 471 391 471 287 c 0
 471 187 392 137 297 137 c 0
 246 137 214 151 214 176 c 0
 214 194 224 207 244 207 c 0
 261 207 269 204 292 188 c 0
 309 177 323 172 338 172 c 0
 383 172 424 215 424 260 c 0
 424 343 329 376 244 376 c 0
 236 376 233 378 233 386 c 0
 233 390 235 393 236 395 c 2
 308 529 l 1
 433 529 l 2
 449 529 454 534 462 545 c 1
 481 534 l 1
353 28 m 0
 505 28 l 25
 505 -15 l 1
 445 -15 547 -15 351 -15 c 0
 154 -15 0 141 0 338 c 0
 0 537 155 692 356 692 c 0
 505 692 l 25
 505 649 l 1
 446 649 525 649 353 649 c 0
 182 649 43 510 43 338 c 0
 43 167 182 28 353 28 c 0
EndSplineSet
Validated: 1
EndChar

StartChar: six.init
Encoding: 403 57462 147
Width: 505
Flags: W
HStem: -15 43<246.495 505> 137 30<300.391 392.129> 354 38<284.801 388.64> 504 25<410.694 463> 649 43<246.495 505>
VStem: 0 43<231.882 444.797> 190 67<209.701 338.443> 415 62<195.224 328.889>
LayerCount: 2
Fore
SplineSet
463 529 m 1
 463 504 l 1
 364 488 296 443 276 368 c 1
 308 388 329 392 355 392 c 0
 432 392 477 345 477 269 c 0
 477 192 418 137 342 137 c 0
 251 137 190 204 190 291 c 0
 190 354 221 414 265 455 c 0
 323 508 375 521 463 529 c 1
415 251 m 0
 415 318 390 354 333 354 c 0
 295 354 257 340 257 294 c 0
 257 214 289 167 349 167 c 0
 394 167 415 197 415 251 c 0
353 28 m 0
 505 28 l 25
 505 -15 l 1
 445 -15 547 -15 351 -15 c 0
 154 -15 0 141 0 338 c 0
 0 537 155 692 356 692 c 0
 505 692 l 25
 505 649 l 1
 446 649 525 649 353 649 c 0
 182 649 43 510 43 338 c 0
 43 167 182 28 353 28 c 0
EndSplineSet
Validated: 1
EndChar

StartChar: seven.init
Encoding: 404 57463 148
Width: 504
Flags: W
HStem: -15 43<246.495 505> 472 57<242 424> 649 43<246.495 505>
VStem: 0 43<231.882 444.797>
LayerCount: 2
Fore
SplineSet
483 512 m 1
 344 137 l 1
 297 137 l 1
 424 472 l 1
 292 472 l 2
 254 472 242 463 216 426 c 1
 197 435 l 1
 242 529 l 1
 483 529 l 1
 483 512 l 1
353 28 m 0
 505 28 l 25
 505 -15 l 1
 445 -15 547 -15 351 -15 c 0
 154 -15 0 141 0 338 c 0
 0 537 155 692 356 692 c 0
 505 692 l 25
 505 649 l 1
 446 649 525 649 353 649 c 0
 182 649 43 510 43 338 c 0
 43 167 182 28 353 28 c 0
EndSplineSet
Validated: 1
EndChar

StartChar: eight.init
Encoding: 405 57464 149
Width: 504
Flags: W
HStem: -15 43<246.495 505> 137 30<301.278 410.923> 499 30<295.929 398.791> 649 43<246.495 505>
VStem: 0 43<231.882 444.797> 222 55<184.414 286.89> 229 50<408.817 486.829> 419 47<396.439 485.639> 428 57<178.646 263.872>
LayerCount: 2
Fore
SplineSet
485 237 m 0xf880
 485 176 429 137 350 137 c 0
 276 137 222 168 222 224 c 0xfc80
 222 264 239 296 301 334 c 1
 242 378 229 396 229 436 c 0
 229 492 282 529 356 529 c 0
 421 529 466 493 466 448 c 0xfb
 466 404 445 382 389 355 c 1
 460 312 485 283 485 237 c 0xf880
419 442 m 0xfb
 419 477 393 499 350 499 c 0
 308 499 279 482 279 451 c 0
 279 421 304 400 359 371 c 1
 401 394 419 411 419 442 c 0xfb
365 295 m 2
 328 316 l 1
 290 290 277 267 277 235 c 0
 277 187 310 167 358 167 c 0
 398 167 428 184 428 216 c 0xfc80
 428 246 408 270 365 295 c 2
353 28 m 0
 505 28 l 25
 505 -15 l 1
 445 -15 547 -15 351 -15 c 0
 154 -15 0 141 0 338 c 0
 0 537 155 692 356 692 c 0
 505 692 l 25
 505 649 l 1
 446 649 525 649 353 649 c 0
 182 649 43 510 43 338 c 0
 43 167 182 28 353 28 c 0
EndSplineSet
Validated: 1
EndChar

StartChar: nine.init
Encoding: 406 57465 150
Width: 505
Flags: W
HStem: -15 43<246.495 505> 137 26<224 277.839> 270 38<295.117 398.769> 499 30<293.208 383.164> 649 43<246.495 505>
VStem: 0 43<231.882 444.797> 204 61<335.55 468.911> 417 66<317.196 454.439>
LayerCount: 2
Fore
SplineSet
224 137 m 1
 224 163 l 1
 318 177 385 217 413 299 c 1
 386 277 355 270 321 270 c 0
 250 270 204 318 204 391 c 0
 204 470 260 529 339 529 c 0
 433 529 483 451 483 364 c 0
 483 298 457 242 404 201 c 0
 349 157 305 147 224 137 c 1
417 341 m 2
 417 376 l 2
 417 466 389 499 334 499 c 0
 286 499 265 456 265 409 c 0
 265 347 296 308 343 308 c 0
 372 308 417 316 417 341 c 2
353 28 m 0
 505 28 l 25
 505 -15 l 1
 445 -15 547 -15 351 -15 c 0
 154 -15 0 141 0 338 c 0
 0 537 155 692 356 692 c 0
 505 692 l 25
 505 649 l 1
 446 649 525 649 353 649 c 0
 182 649 43 510 43 338 c 0
 43 167 182 28 353 28 c 0
EndSplineSet
Validated: 1
EndChar

StartChar: zero.medi
Encoding: 407 57472 151
Width: 339
Flags: W
HStem: -15 43<-40 339> 137 28<133.775 213.235> 502 27<134.565 209.731> 649 43<-40 339>
VStem: 26 64<216.593 444.108> 256 64<217.634 440.3>
LayerCount: 2
Fore
SplineSet
320 328 m 0
 320 229 279 137 173 137 c 0
 61 137 26 236 26 333 c 0
 26 436 71 529 175 529 c 0
 261 529 320 447 320 328 c 0
256 325 m 0
 256 438 227 502 171 502 c 0
 119 502 90 437 90 328 c 0
 90 219 118 165 173 165 c 0
 227 165 256 219 256 325 c 0
-40 649 m 1
 -40 692 l 25
 339 692 l 25
 339 649 l 25
 -40 649 l 1
-40 -15 m 1
 -40 28 l 25
 339 28 l 25
 339 -15 l 25
 -40 -15 l 1
EndSplineSet
Validated: 1
EndChar

StartChar: one.medi
Encoding: 408 57473 152
Width: 249
Flags: W
HStem: -15 43<-40 249> 144 21<46 94 170.058 225> 649 43<-40 249>
VStem: 106 58<170.627 468.996>
LayerCount: 2
Fore
SplineSet
-40 649 m 1
 -40 692 l 25
 249 692 l 25
 249 649 l 25
 -40 649 l 1
-40 -15 m 1
 -40 28 l 25
 249 28 l 25
 249 -15 l 25
 -40 -15 l 1
225 144 m 1
 46 144 l 1
 46 165 l 1
 94 167 106 177 106 203 c 2
 106 448 l 2
 106 463 101 469 90 469 c 0
 84 469 72 468 60 464 c 2
 42 456 l 1
 42 477 l 1
 158 529 l 1
 164 527 l 1
 164 192 l 2
 164 172 177 165 225 165 c 1
 225 144 l 1
EndSplineSet
Validated: 1
EndChar

StartChar: two.medi
Encoding: 409 57474 153
Width: 309
Flags: W
HStem: -15 43<-40 329> 144 55<112 285> 474 55<94.0906 210.027> 649 43<-40 329>
VStem: 31 19<399.421 411.943> 231 58<348.606 452.994>
LayerCount: 2
Fore
SplineSet
-40 649 m 1
 -40 692 l 25
 329 692 l 25
 329 649 l 25
 -40 649 l 1
-40 -15 m 1
 -40 28 l 25
 329 28 l 25
 329 -15 l 29
 -40 -15 l 1
327 232 m 1
 285 144 l 1
 32 144 l 1
 32 164 l 1
 146 261 l 2
 209 314 231 357 231 402 c 0
 231 448 196 474 142 474 c 0
 95 474 77 450 50 395 c 1
 31 402 l 1
 47 475 89 529 169 529 c 0
 243 529 289 483 289 424 c 0
 289 376 265 329 207 279 c 2
 112 199 l 1
 245 199 l 2
 272 199 286 209 306 239 c 1
 327 232 l 1
EndSplineSet
Validated: 1
EndChar

StartChar: three.medi
Encoding: 410 57475 154
Width: 309
Flags: W
HStem: -15 43<-40 309> 137 34<98.7095 197.102> 321 22<104 140.536> 482 47<89.3059 201.483> 649 43<-40 309>
VStem: 210 54<393.807 471.907> 238 48<203.673 297.026>
LayerCount: 2
Fore
SplineSet
-40 649 m 1xf8
 -40 692 l 25
 309 692 l 25
 309 649 l 25
 -40 649 l 1xf8
-40 -15 m 1
 -40 28 l 25
 309 28 l 25
 309 -15 l 25
 -40 -15 l 1
51 421 m 1
 30 427 l 1
 53 487 95 529 162 529 c 0
 224 529 264 495 264 446 c 0xfc
 264 420 250 393 214 370 c 1
 258 354 286 324 286 272 c 0
 286 177 192 137 105 137 c 0
 57 137 31 152 31 176 c 0
 31 192 43 204 60 204 c 0
 69 204 79 199 100 187 c 0
 122 174 136 171 154 171 c 0
 200 171 238 204 238 248 c 0xfa
 238 285 215 308 171 317 c 0
 156 320 143 321 104 321 c 1
 104 343 l 1
 134 351 151 357 160 361 c 0
 192 377 210 400 210 432 c 0xfc
 210 466 184 482 143 482 c 0
 100 482 75 462 51 421 c 1
EndSplineSet
Validated: 1
EndChar

StartChar: four.medi
Encoding: 411 57476 155
Width: 339
Flags: W
HStem: -15 43<-40 339> 233 49<51 196 253 318> 649 43<-40 339>
VStem: 196 57<144 233 282 457>
LayerCount: 2
Fore
SplineSet
-40 649 m 1
 -40 692 l 25
 339 692 l 25
 339 649 l 25
 -40 649 l 1
-40 -15 m 1
 -40 28 l 25
 339 28 l 25
 339 -15 l 25
 -40 -15 l 1
318 233 m 1
 253 233 l 1
 253 144 l 1
 196 144 l 1
 196 233 l 1
 14 233 l 1
 14 279 l 1
 220 529 l 1
 253 529 l 1
 253 282 l 1
 318 282 l 1
 318 233 l 1
196 282 m 1
 196 457 l 1
 51 282 l 1
 196 282 l 1
EndSplineSet
Validated: 1
EndChar

StartChar: five.medi
Encoding: 412 57477 156
Width: 295
Flags: W
HStem: -15 43<-40 295> 137 35<99.9208 194.054> 471 58<121 269.818> 649 43<-40 295>
VStem: 234 47<207.546 318.498>
LayerCount: 2
Fore
SplineSet
-40 649 m 1
 -40 692 l 25
 295 692 l 25
 295 649 l 25
 -40 649 l 1
-40 -15 m 1
 -40 28 l 25
 295 28 l 25
 295 -15 l 29
 -40 -15 l 1
291 534 m 1
 265 483 l 2
 261 475 256 471 244 471 c 2
 121 471 l 1
 100 437 l 1
 206 418 281 391 281 287 c 0
 281 187 202 137 107 137 c 0
 56 137 24 151 24 176 c 0
 24 194 34 207 54 207 c 0
 71 207 79 204 102 188 c 0
 119 177 133 172 148 172 c 0
 193 172 234 215 234 260 c 0
 234 343 139 376 54 376 c 0
 46 376 43 378 43 386 c 0
 43 390 45 393 46 395 c 2
 118 529 l 1
 243 529 l 2
 259 529 264 534 272 545 c 1
 291 534 l 1
EndSplineSet
Validated: 1
EndChar

StartChar: six.medi
Encoding: 413 57478 157
Width: 339
Flags: W
HStem: -15 43<-40 339> 137 30<143.391 235.129> 354 38<127.801 231.64> 504 25<253.694 306> 649 43<-40 339>
VStem: 33 67<209.701 338.443> 258 62<195.224 328.889>
LayerCount: 2
Fore
SplineSet
-40 649 m 1
 -40 692 l 25
 339 692 l 25
 339 649 l 25
 -40 649 l 1
-40 -15 m 1
 -40 28 l 25
 339 28 l 25
 339 -15 l 25
 -40 -15 l 1
306 529 m 1
 306 504 l 1
 207 488 139 443 119 368 c 1
 151 388 172 392 198 392 c 0
 275 392 320 345 320 269 c 0
 320 192 261 137 185 137 c 0
 94 137 33 204 33 291 c 0
 33 354 64 414 108 455 c 0
 166 508 218 521 306 529 c 1
258 251 m 0
 258 318 233 354 176 354 c 0
 138 354 100 340 100 294 c 0
 100 214 132 167 192 167 c 0
 237 167 258 197 258 251 c 0
EndSplineSet
Validated: 1
EndChar

StartChar: seven.medi
Encoding: 414 57479 158
Width: 309
Flags: W
HStem: -15 43<-40 309> 472 57<58 240> 649 43<-40 309>
LayerCount: 2
Fore
SplineSet
-40 649 m 1
 -40 692 l 25
 309 692 l 25
 309 649 l 25
 -40 649 l 1
-40 -15 m 1
 -40 28 l 25
 309 28 l 25
 309 -15 l 25
 -40 -15 l 1
299 512 m 1
 160 137 l 1
 113 137 l 1
 240 472 l 1
 108 472 l 2
 70 472 58 463 32 426 c 1
 13 435 l 1
 58 529 l 1
 299 529 l 1
 299 512 l 1
EndSplineSet
Validated: 1
EndChar

StartChar: eight.medi
Encoding: 415 57480 159
Width: 329
Flags: W
HStem: -15 43<-40 329> 137 30<121.278 230.923> 499 30<115.929 218.791> 649 43<-40 329>
VStem: 42 55<184.414 286.89> 49 50<408.817 486.829> 239 47<396.439 485.639> 248 57<178.646 263.872>
LayerCount: 2
Fore
SplineSet
-40 649 m 1xf0
 -40 692 l 25
 329 692 l 25
 329 649 l 25
 -40 649 l 1xf0
-40 -15 m 1
 -40 28 l 25
 329 28 l 25
 329 -15 l 25
 -40 -15 l 1
305 237 m 0xf1
 305 176 249 137 170 137 c 0
 96 137 42 168 42 224 c 0xf9
 42 264 59 296 121 334 c 1
 62 378 49 396 49 436 c 0
 49 492 102 529 176 529 c 0
 241 529 286 493 286 448 c 0xf6
 286 404 265 382 209 355 c 1
 280 312 305 283 305 237 c 0xf1
239 442 m 0xf6
 239 477 213 499 170 499 c 0
 128 499 99 482 99 451 c 0
 99 421 124 400 179 371 c 1
 221 394 239 411 239 442 c 0xf6
185 295 m 2
 148 316 l 1
 110 290 97 267 97 235 c 0
 97 187 130 167 178 167 c 0
 218 167 248 184 248 216 c 0xf9
 248 246 228 270 185 295 c 2
EndSplineSet
Validated: 1
EndChar

StartChar: nine.medi
Encoding: 416 57481 160
Width: 339
Flags: W
HStem: -15 43<-40 339> 137 26<61 114.839> 270 38<132.117 235.769> 499 30<130.208 220.164> 649 43<-40 339>
VStem: 41 61<335.55 468.911> 254 66<317.196 454.439>
LayerCount: 2
Fore
SplineSet
-40 649 m 1
 -40 692 l 25
 339 692 l 25
 339 649 l 25
 -40 649 l 1
-40 -15 m 1
 -40 28 l 25
 339 28 l 25
 339 -15 l 25
 -40 -15 l 1
61 137 m 1
 61 163 l 1
 155 177 222 217 250 299 c 1
 223 277 192 270 158 270 c 0
 87 270 41 318 41 391 c 0
 41 470 97 529 176 529 c 0
 270 529 320 451 320 364 c 0
 320 298 294 242 241 201 c 0
 186 157 142 147 61 137 c 1
254 341 m 2
 254 376 l 2
 254 466 226 499 171 499 c 0
 123 499 102 456 102 409 c 0
 102 347 133 308 180 308 c 0
 209 308 254 316 254 341 c 2
EndSplineSet
Validated: 1
EndChar

StartChar: zero.fina
Encoding: 417 57488 161
Width: 505
Flags: W
HStem: -15 43<-40 258.505> 137 28<143.775 223.235> 502 27<144.565 219.731> 649 43<-40 258.505>
VStem: 36 64<216.593 444.108> 266 64<217.634 440.3> 462 43<231.882 444.797>
LayerCount: 2
Fore
SplineSet
330 328 m 0
 330 229 289 137 183 137 c 0
 71 137 36 236 36 333 c 0
 36 436 81 529 185 529 c 0
 271 529 330 447 330 328 c 0
266 325 m 0
 266 438 237 502 181 502 c 0
 129 502 100 437 100 328 c 0
 100 219 128 165 183 165 c 0
 237 165 266 219 266 325 c 0
152 28 m 0
 323 28 462 167 462 338 c 0
 462 510 323 649 152 649 c 0
 -20 649 19 649 -40 649 c 1
 -40 692 l 25
 149 692 l 0
 350 692 505 537 505 338 c 0
 505 141 351 -15 154 -15 c 0
 -42 -15 20 -15 -40 -15 c 1
 -40 28 l 25
 152 28 l 0
EndSplineSet
Validated: 1
EndChar

StartChar: one.fina
Encoding: 418 57489 162
Width: 505
Flags: W
HStem: -15 43<-40 258.505> 144 21<46 94 170.058 225> 649 43<-40 258.505>
VStem: 106 58<170.627 468.996> 462 43<231.882 444.797>
LayerCount: 2
Fore
SplineSet
225 144 m 5
 46 144 l 5
 46 165 l 5
 94 167 106 177 106 203 c 6
 106 448 l 6
 106 463 101 469 90 469 c 4
 84 469 72 468 60 464 c 6
 42 456 l 5
 42 477 l 5
 158 529 l 5
 164 527 l 5
 164 192 l 6
 164 172 177 165 225 165 c 5
 225 144 l 5
152 28 m 0
 323 28 462 167 462 338 c 0
 462 510 323 649 152 649 c 0
 -20 649 19 649 -40 649 c 1
 -40 692 l 25
 149 692 l 0
 350 692 505 537 505 338 c 0
 505 141 351 -15 154 -15 c 0
 -42 -15 20 -15 -40 -15 c 1
 -40 28 l 25
 152 28 l 0
EndSplineSet
Validated: 1
EndChar

StartChar: two.fina
Encoding: 419 57490 163
Width: 505
Flags: W
HStem: -15 43<-40 258.505> 144 55<117 290> 474 55<99.0906 215.027> 649 43<-40 258.505>
VStem: 36 19<399.421 411.943> 236 58<348.606 452.994> 462 43<231.882 444.797>
LayerCount: 2
Fore
SplineSet
332 232 m 5
 290 144 l 5
 37 144 l 5
 37 164 l 5
 151 261 l 6
 214 314 236 357 236 402 c 4
 236 448 201 474 147 474 c 4
 100 474 82 450 55 395 c 5
 36 402 l 5
 52 475 94 529 174 529 c 4
 248 529 294 483 294 424 c 4
 294 376 270 329 212 279 c 6
 117 199 l 5
 250 199 l 6
 277 199 291 209 311 239 c 5
 332 232 l 5
152 28 m 0
 323 28 462 167 462 338 c 0
 462 510 323 649 152 649 c 0
 -20 649 19 649 -40 649 c 1
 -40 692 l 25
 149 692 l 0
 350 692 505 537 505 338 c 0
 505 141 351 -15 154 -15 c 0
 -42 -15 20 -15 -40 -15 c 1
 -40 28 l 25
 152 28 l 0
EndSplineSet
Validated: 1
EndChar

StartChar: three.fina
Encoding: 420 57491 164
Width: 505
Flags: W
HStem: -15 43<-40 258.505> 137 34<103.71 202.102> 321 22<109 145.536> 482 47<94.3059 206.483> 649 43<-40 258.505>
VStem: 215 54<393.807 471.907> 243 48<203.673 297.026> 462 43<231.882 444.797>
LayerCount: 2
Fore
SplineSet
56 421 m 5xfd
 35 427 l 5
 58 487 100 529 167 529 c 4
 229 529 269 495 269 446 c 4xfd
 269 420 255 393 219 370 c 5
 263 354 291 324 291 272 c 4
 291 177 197 137 110 137 c 4
 62 137 36 152 36 176 c 4
 36 192 48 204 65 204 c 4
 74 204 84 199 105 187 c 4
 127 174 141 171 159 171 c 4
 205 171 243 204 243 248 c 4xfb
 243 285 220 308 176 317 c 4
 161 320 148 321 109 321 c 5
 109 343 l 5
 139 351 156 357 165 361 c 4
 197 377 215 400 215 432 c 4
 215 466 189 482 148 482 c 4
 105 482 80 462 56 421 c 5xfd
152 28 m 0
 323 28 462 167 462 338 c 0
 462 510 323 649 152 649 c 0
 -20 649 19 649 -40 649 c 1
 -40 692 l 25
 149 692 l 0
 350 692 505 537 505 338 c 0
 505 141 351 -15 154 -15 c 0
 -42 -15 20 -15 -40 -15 c 1
 -40 28 l 25
 152 28 l 0
EndSplineSet
Validated: 1
EndChar

StartChar: four.fina
Encoding: 421 57492 165
Width: 505
Flags: W
HStem: -15 43<-40 258.505> 233 49<68 213 270 335> 649 43<-40 258.505>
VStem: 213 57<144 233 282 457> 462 43<231.882 444.797>
LayerCount: 2
Fore
SplineSet
335 233 m 1
 270 233 l 1
 270 144 l 1
 213 144 l 1
 213 233 l 1
 31 233 l 1
 31 279 l 1
 237 529 l 1
 270 529 l 1
 270 282 l 1
 335 282 l 1
 335 233 l 1
213 282 m 1
 213 457 l 1
 68 282 l 1
 213 282 l 1
152 28 m 0
 323 28 462 167 462 338 c 0
 462 510 323 649 152 649 c 0
 -20 649 19 649 -40 649 c 1
 -40 692 l 25
 149 692 l 0
 350 692 505 537 505 338 c 0
 505 141 351 -15 154 -15 c 0
 -42 -15 20 -15 -40 -15 c 1
 -40 28 l 25
 152 28 l 0
EndSplineSet
Validated: 1
EndChar

StartChar: five.fina
Encoding: 422 57493 166
Width: 505
Flags: W
HStem: -15 43<-40 258.505> 137 35<119.921 214.054> 471 58<141 289.818> 649 43<-40 258.505>
VStem: 254 47<207.546 318.498> 462 43<231.882 444.797>
LayerCount: 2
Fore
SplineSet
311 534 m 1
 285 483 l 2
 281 475 276 471 264 471 c 2
 141 471 l 1
 120 437 l 1
 226 418 301 391 301 287 c 0
 301 187 222 137 127 137 c 0
 76 137 44 151 44 176 c 0
 44 194 54 207 74 207 c 0
 91 207 99 204 122 188 c 0
 139 177 153 172 168 172 c 0
 213 172 254 215 254 260 c 0
 254 343 159 376 74 376 c 0
 66 376 63 378 63 386 c 0
 63 390 65 393 66 395 c 2
 138 529 l 1
 263 529 l 2
 279 529 284 534 292 545 c 1
 311 534 l 1
152 28 m 0
 323 28 462 167 462 338 c 0
 462 510 323 649 152 649 c 0
 -20 649 19 649 -40 649 c 1
 -40 692 l 25
 149 692 l 0
 350 692 505 537 505 338 c 0
 505 141 351 -15 154 -15 c 0
 -42 -15 20 -15 -40 -15 c 1
 -40 28 l 25
 152 28 l 0
EndSplineSet
Validated: 1
EndChar

StartChar: six.fina
Encoding: 423 57494 167
Width: 505
Flags: W
HStem: -15 43<-40 258.505> 137 30<143.391 235.129> 354 38<127.801 231.64> 504 25<253.694 306> 649 43<-40 258.505>
VStem: 33 67<209.701 338.443> 258 62<195.224 328.889> 462 43<231.882 444.797>
LayerCount: 2
Fore
SplineSet
306 529 m 1
 306 504 l 1
 207 488 139 443 119 368 c 1
 151 388 172 392 198 392 c 0
 275 392 320 345 320 269 c 0
 320 192 261 137 185 137 c 0
 94 137 33 204 33 291 c 0
 33 354 64 414 108 455 c 0
 166 508 218 521 306 529 c 1
258 251 m 0
 258 318 233 354 176 354 c 0
 138 354 100 340 100 294 c 0
 100 214 132 167 192 167 c 0
 237 167 258 197 258 251 c 0
152 28 m 0
 323 28 462 167 462 338 c 0
 462 510 323 649 152 649 c 0
 -20 649 19 649 -40 649 c 1
 -40 692 l 25
 149 692 l 0
 350 692 505 537 505 338 c 0
 505 141 351 -15 154 -15 c 0
 -42 -15 20 -15 -40 -15 c 1
 -40 28 l 25
 152 28 l 0
EndSplineSet
Validated: 1
EndChar

StartChar: seven.fina
Encoding: 424 57495 168
Width: 505
Flags: W
HStem: -15 43<-40 258.505> 472 57<64 246> 649 43<-40 258.505>
VStem: 462 43<231.882 444.797>
LayerCount: 2
Fore
SplineSet
305 512 m 1
 166 137 l 1
 119 137 l 1
 246 472 l 1
 114 472 l 2
 76 472 64 463 38 426 c 1
 19 435 l 1
 64 529 l 1
 305 529 l 1
 305 512 l 1
152 28 m 0
 323 28 462 167 462 338 c 0
 462 510 323 649 152 649 c 0
 -20 649 19 649 -40 649 c 1
 -40 692 l 25
 149 692 l 0
 350 692 505 537 505 338 c 0
 505 141 351 -15 154 -15 c 0
 -42 -15 20 -15 -40 -15 c 1
 -40 28 l 25
 152 28 l 0
EndSplineSet
Validated: 1
EndChar

StartChar: eight.fina
Encoding: 425 57496 169
Width: 505
Flags: W
HStem: -15 43<-40 258.505> 137 30<121.278 230.923> 499 30<115.929 218.791> 649 43<-40 258.505>
VStem: 42 55<184.414 286.89> 49 50<408.817 486.829> 239 47<396.439 485.639> 248 57<178.646 263.872> 462 43<231.882 444.797>
LayerCount: 2
Fore
SplineSet
305 237 m 0xf180
 305 176 249 137 170 137 c 0
 96 137 42 168 42 224 c 0xf980
 42 264 59 296 121 334 c 1
 62 378 49 396 49 436 c 0
 49 492 102 529 176 529 c 0
 241 529 286 493 286 448 c 0xf680
 286 404 265 382 209 355 c 1
 280 312 305 283 305 237 c 0xf180
239 442 m 0xf680
 239 477 213 499 170 499 c 0
 128 499 99 482 99 451 c 0
 99 421 124 400 179 371 c 1
 221 394 239 411 239 442 c 0xf680
185 295 m 2
 148 316 l 1
 110 290 97 267 97 235 c 0
 97 187 130 167 178 167 c 0
 218 167 248 184 248 216 c 0xf980
 248 246 228 270 185 295 c 2
152 28 m 0
 323 28 462 167 462 338 c 0
 462 510 323 649 152 649 c 0
 -20 649 19 649 -40 649 c 1
 -40 692 l 25
 149 692 l 0
 350 692 505 537 505 338 c 0
 505 141 351 -15 154 -15 c 0
 -42 -15 20 -15 -40 -15 c 1
 -40 28 l 25
 152 28 l 0
EndSplineSet
Validated: 1
EndChar

StartChar: nine.fina
Encoding: 426 57497 170
Width: 505
Flags: W
HStem: -15 43<-40 258.505> 137 26<71 124.839> 270 38<142.117 245.769> 499 30<140.208 230.164> 649 43<-40 258.505>
VStem: 51 61<335.55 468.911> 264 66<317.196 454.439> 462 43<231.882 444.797>
LayerCount: 2
Fore
SplineSet
71 137 m 5
 71 163 l 5
 165 177 232 217 260 299 c 5
 233 277 202 270 168 270 c 4
 97 270 51 318 51 391 c 4
 51 470 107 529 186 529 c 4
 280 529 330 451 330 364 c 4
 330 298 304 242 251 201 c 4
 196 157 152 147 71 137 c 5
264 341 m 6
 264 376 l 6
 264 466 236 499 181 499 c 4
 133 499 112 456 112 409 c 4
 112 347 143 308 190 308 c 4
 219 308 264 316 264 341 c 6
152 28 m 0
 323 28 462 167 462 338 c 0
 462 510 323 649 152 649 c 0
 -20 649 19 649 -40 649 c 1
 -40 692 l 25
 149 692 l 0
 350 692 505 537 505 338 c 0
 505 141 351 -15 154 -15 c 0
 -42 -15 20 -15 -40 -15 c 1
 -40 28 l 25
 152 28 l 0
EndSplineSet
Validated: 1
EndChar
